<svg width="24" height="24" viewBox="0 0 24 24" fill="none" xmlns="http://www.w3.org/2000/svg">
<g clip-path="url(#clip0_1088_10397)">
<path d="M4.22459 13.43L5.5246 13.27C5.5646 13.6 5.67459 13.85 5.85459 14.03C6.03459 14.21 6.2546 14.29 6.5146 14.29C6.7946 14.29 7.02459 14.19 7.21459 13.97C7.40459 13.76 7.49459 13.48 7.49459 13.12C7.49459 12.78 7.40459 12.52 7.22459 12.32C7.04459 12.12 6.82459 12.02 6.56459 12.02C6.39459 12.02 6.1846 12.05 5.9446 12.12L6.0946 11.03C6.4546 11.04 6.73459 10.96 6.92459 10.79C7.11459 10.62 7.21459 10.4 7.21459 10.12C7.21459 9.89 7.14459 9.7 7.00459 9.56C6.86459 9.42 6.6746 9.35 6.4446 9.35C6.2146 9.35 6.02459 9.43 5.85459 9.59C5.68459 9.75 5.5946 9.98 5.5546 10.29L4.31459 10.08C4.40459 9.66 4.52459 9.32 4.70459 9.07C4.88459 8.82 5.12459 8.62 5.43459 8.47C5.74459 8.33 6.09459 8.25 6.47459 8.25C7.13459 8.25 7.66459 8.46 8.06459 8.88C8.39459 9.22 8.5546 9.61 8.5546 10.04C8.5546 10.65 8.22459 11.14 7.54459 11.51C7.94459 11.6 8.26459 11.79 8.50459 12.09C8.74459 12.39 8.86459 12.75 8.86459 13.17C8.86459 13.78 8.6446 14.31 8.1946 14.74C7.7446 15.17 7.1846 15.39 6.5146 15.39C5.8446 15.39 5.35459 15.21 4.93459 14.84C4.51459 14.48 4.27459 14 4.20459 13.41L4.22459 13.43Z" fill="white"/>
<path d="M14.2544 10.0017L12.9544 10.1417C12.9244 9.87172 12.8444 9.67172 12.7044 9.55172C12.5744 9.42172 12.3944 9.36172 12.1844 9.36172C11.9044 9.36172 11.6644 9.49172 11.4644 9.74172C11.2644 9.99172 11.1444 10.5217 11.0944 11.3317C11.4244 10.9417 11.8444 10.7417 12.3444 10.7417C12.9044 10.7417 13.3844 10.9517 13.7844 11.3817C14.1844 11.8117 14.3844 12.3617 14.3844 13.0317C14.3844 13.7517 14.1744 14.3217 13.7544 14.7517C13.3344 15.1817 12.7944 15.4017 12.1344 15.4017C11.4244 15.4017 10.8444 15.1317 10.3944 14.5817C9.94436 14.0317 9.71436 13.1317 9.71436 11.8817C9.71436 10.6317 9.95435 9.67172 10.4244 9.11172C10.8944 8.55172 11.5144 8.26172 12.2744 8.26172C12.8044 8.26172 13.2444 8.41172 13.5944 8.71172C13.9444 9.01172 14.1644 9.44172 14.2644 10.0117L14.2544 10.0017ZM11.2144 12.9217C11.2144 13.3617 11.3144 13.6917 11.5144 13.9317C11.7144 14.1717 11.9444 14.2917 12.2044 14.2917C12.4644 14.2917 12.6544 14.1917 12.8244 14.0017C12.9944 13.8117 13.0744 13.4917 13.0744 13.0517C13.0744 12.6117 12.9844 12.2617 12.8044 12.0517C12.6244 11.8417 12.4044 11.7317 12.1344 11.7317C11.8644 11.7317 11.6544 11.8317 11.4844 12.0317C11.3044 12.2317 11.2144 12.5317 11.2144 12.9317V12.9217Z" fill="white"/>
<path d="M17.4148 8.26172C18.0948 8.26172 18.6248 8.50172 19.0048 8.99172C19.4548 9.56172 19.6848 10.5117 19.6848 11.8417C19.6848 13.1717 19.4548 14.1117 18.9948 14.6917C18.6148 15.1717 18.0848 15.4117 17.4148 15.4117C16.7448 15.4117 16.1848 15.1517 15.7648 14.6317C15.3448 14.1117 15.1348 13.1717 15.1348 11.8317C15.1348 10.4917 15.3648 9.56172 15.8248 8.98172C16.2048 8.50172 16.7348 8.26172 17.4148 8.26172ZM17.4148 9.37172C17.2548 9.37172 17.1048 9.42172 16.9748 9.53172C16.8448 9.63172 16.7448 9.82172 16.6748 10.0917C16.5848 10.4417 16.5348 11.0217 16.5348 11.8417C16.5348 12.6617 16.5748 13.2217 16.6548 13.5317C16.7348 13.8417 16.8448 14.0417 16.9648 14.1417C17.0948 14.2417 17.2348 14.2917 17.3948 14.2917C17.5548 14.2917 17.7048 14.2417 17.8248 14.1317C17.9448 14.0217 18.0548 13.8417 18.1248 13.5717C18.2148 13.2317 18.2648 12.6417 18.2648 11.8217C18.2648 11.0017 18.2248 10.4317 18.1448 10.1317C18.0648 9.83172 17.9548 9.62172 17.8348 9.51172C17.7048 9.41172 17.5648 9.35172 17.4048 9.35172L17.4148 9.37172Z" fill="white"/>
<path d="M20.2947 9.96187C20.2947 9.39187 20.4447 8.95188 20.7447 8.64188C21.0447 8.33188 21.4447 8.17188 21.9547 8.17188C22.4647 8.17188 22.8547 8.33188 23.1547 8.65188C23.4547 8.97188 23.6047 9.41188 23.6047 9.97188C23.6047 10.5319 23.4547 10.9719 23.1547 11.2919C22.8547 11.6119 22.4547 11.7619 21.9447 11.7619C21.4347 11.7619 21.0447 11.6019 20.7347 11.2919C20.4347 10.9819 20.2847 10.5419 20.2847 9.97188L20.2947 9.96187ZM21.2947 9.97188C21.2947 10.3219 21.3547 10.5719 21.4747 10.7219C21.5947 10.8719 21.7447 10.9419 21.9347 10.9419C22.1247 10.9419 22.2747 10.8719 22.3947 10.7219C22.5147 10.5719 22.5747 10.3219 22.5747 9.97188C22.5747 9.62188 22.5147 9.37188 22.3947 9.22188C22.2747 9.07188 22.1247 9.00187 21.9347 9.00187C21.7447 9.00187 21.5947 9.07188 21.4747 9.22188C21.3547 9.37188 21.2947 9.62188 21.2947 9.97188Z" fill="white"/>
<path d="M22.4844 12.86C22.4844 12.93 22.4744 13.01 22.4644 13.08C22.4644 13.17 22.4444 13.26 22.4344 13.34C22.4244 13.43 22.4144 13.51 22.3944 13.6C22.3744 13.69 22.3644 13.77 22.3544 13.86C22.3344 13.95 22.3244 14.03 22.3044 14.12C22.2844 14.21 22.2644 14.29 22.2444 14.38C22.2244 14.46 22.2044 14.55 22.1844 14.63C22.1644 14.71 22.1444 14.8 22.1144 14.88C22.0944 14.96 22.0644 15.05 22.0444 15.13C22.0144 15.21 21.9944 15.29 21.9644 15.37C21.9344 15.45 21.9044 15.53 21.8744 15.61C21.8444 15.69 21.8144 15.77 21.7844 15.85C21.7544 15.93 21.7244 16.01 21.6844 16.09C21.6444 16.17 21.6144 16.25 21.5844 16.32C21.5444 16.4 21.5144 16.47 21.4744 16.55C21.4344 16.63 21.4044 16.7 21.3644 16.78C21.3244 16.86 21.2844 16.93 21.2444 17C21.2044 17.07 21.1644 17.15 21.1244 17.22C21.0844 17.29 21.0344 17.37 20.9944 17.44C20.9544 17.51 20.9044 17.58 20.8644 17.65C20.8244 17.72 20.7744 17.79 20.7244 17.86C20.6744 17.93 20.6244 18 20.5844 18.07C20.5344 18.14 20.4844 18.21 20.4344 18.27C20.3844 18.34 20.3344 18.4 20.2844 18.47C20.2344 18.54 20.1844 18.6 20.1244 18.67C20.0744 18.74 20.0144 18.8 19.9644 18.86C19.9144 18.92 19.8544 18.99 19.7944 19.05C19.7344 19.11 19.6844 19.17 19.6244 19.23C19.5644 19.29 19.5044 19.35 19.4444 19.41C19.3844 19.47 19.3244 19.53 19.2644 19.59C19.2044 19.65 19.1444 19.71 19.0844 19.76C19.0244 19.82 18.9544 19.87 18.8944 19.93C18.8344 19.98 18.7644 20.04 18.7044 20.09C18.6344 20.14 18.5744 20.2 18.5044 20.25C18.4344 20.3 18.3744 20.35 18.3044 20.4C18.2344 20.45 18.1644 20.5 18.1044 20.55C18.0344 20.6 17.9644 20.65 17.8944 20.69C17.8244 20.73 17.7544 20.78 17.6844 20.83C17.6144 20.88 17.5444 20.92 17.4744 20.96C17.4044 21 17.3344 21.05 17.2544 21.09C17.1744 21.13 17.1044 21.17 17.0344 21.21C16.9644 21.25 16.8844 21.29 16.8144 21.33C16.7444 21.37 16.6644 21.41 16.5844 21.44C16.5044 21.48 16.4344 21.51 16.3544 21.55C16.2744 21.58 16.1944 21.62 16.1244 21.65C16.0544 21.68 15.9644 21.72 15.8844 21.75C15.8044 21.78 15.7244 21.81 15.6444 21.84C15.5644 21.87 15.4844 21.9 15.4044 21.93C15.3244 21.96 15.2444 21.98 15.1544 22.01C15.0744 22.04 14.9944 22.06 14.9044 22.08C14.8244 22.1 14.7344 22.13 14.6544 22.15C14.5744 22.17 14.4844 22.19 14.4044 22.21C14.3244 22.23 14.2344 22.25 14.1444 22.27C14.0544 22.29 13.9744 22.3 13.8844 22.32C13.7944 22.34 13.7144 22.35 13.6244 22.36C13.5344 22.37 13.4544 22.39 13.3644 22.4C13.2744 22.41 13.1844 22.42 13.1044 22.43C13.0144 22.43 12.9244 22.45 12.8344 22.45C12.7444 22.45 12.6544 22.46 12.5644 22.47C12.4744 22.47 12.3844 22.47 12.2944 22.48C12.2044 22.49 12.1144 22.48 12.0244 22.48C11.9344 22.48 11.8444 22.48 11.7544 22.48C11.6644 22.48 11.5744 22.48 11.4844 22.47C11.3944 22.47 11.3044 22.46 11.2144 22.45C11.1244 22.45 11.0344 22.44 10.9444 22.43C10.8544 22.43 10.7644 22.41 10.6844 22.4C10.5944 22.39 10.5144 22.38 10.4244 22.36C10.3344 22.34 10.2544 22.33 10.1644 22.32C10.0744 22.31 9.99445 22.29 9.90445 22.27C9.81445 22.25 9.73445 22.23 9.65445 22.21C9.57445 22.19 9.48445 22.17 9.40445 22.15C9.32445 22.13 9.23445 22.11 9.15445 22.08C9.07445 22.06 8.98445 22.03 8.90445 22.01C8.82445 21.98 8.74445 21.96 8.65445 21.93C8.57445 21.9 8.49445 21.87 8.41445 21.84C8.33445 21.81 8.25444 21.78 8.17444 21.75C8.09444 21.72 8.01444 21.69 7.93444 21.65C7.85444 21.62 7.77444 21.58 7.70444 21.55C7.62444 21.51 7.55445 21.48 7.47445 21.44C7.39445 21.4 7.32444 21.37 7.24444 21.33C7.16444 21.29 7.09445 21.25 7.02445 21.21C6.95445 21.17 6.87445 21.13 6.80445 21.09C6.73445 21.05 6.65445 21 6.58445 20.96C6.51445 20.92 6.44445 20.87 6.37445 20.83C6.30445 20.78 6.23445 20.74 6.16445 20.69C6.09445 20.64 6.02444 20.59 5.95444 20.55C5.88444 20.5 5.81444 20.45 5.75444 20.4C5.68444 20.35 5.62445 20.3 5.55445 20.25C5.48445 20.2 5.42444 20.15 5.35444 20.09C5.29444 20.04 5.22445 19.98 5.16445 19.93C5.10445 19.87 5.03445 19.82 4.97445 19.76C4.91445 19.7 4.85445 19.65 4.79445 19.59C4.73445 19.53 4.67445 19.47 4.61445 19.41C4.55445 19.35 4.49444 19.29 4.43444 19.23C4.37444 19.17 4.31445 19.11 4.26445 19.05C4.20445 18.99 4.15445 18.92 4.09445 18.86C4.03445 18.8 3.98444 18.73 3.93444 18.67C3.88444 18.61 3.82445 18.54 3.77445 18.47C3.72445 18.4 3.67445 18.34 3.62445 18.27C3.57445 18.2 3.52445 18.13 3.47445 18.07C3.42445 18 3.37445 17.93 3.33445 17.86C3.28445 17.79 3.24445 17.72 3.19445 17.65C3.14445 17.58 3.10444 17.51 3.06444 17.44C3.02444 17.37 2.97444 17.3 2.93444 17.22C2.89444 17.15 2.85444 17.07 2.81444 17C2.77444 16.93 2.73445 16.85 2.69445 16.78C2.65445 16.71 2.61445 16.63 2.58445 16.55C2.54445 16.47 2.51445 16.4 2.47445 16.32C2.43445 16.24 2.40445 16.16 2.37445 16.09C2.34445 16.01 2.30445 15.93 2.27445 15.85C2.24445 15.77 2.21444 15.69 2.18444 15.61C2.15444 15.53 2.12445 15.45 2.09445 15.37C2.06445 15.29 2.04445 15.21 2.01445 15.13C1.98445 15.05 1.96445 14.97 1.94445 14.88C1.92445 14.79 1.89445 14.71 1.87445 14.63C1.85445 14.55 1.83444 14.46 1.81444 14.38C1.79444 14.3 1.77444 14.21 1.75444 14.12C1.73444 14.03 1.72444 13.95 1.70444 13.86C1.69444 13.77 1.67445 13.69 1.66445 13.6C1.65445 13.51 1.63445 13.43 1.62445 13.34C1.61445 13.25 1.60445 13.16 1.59445 13.08C1.59445 12.99 1.57444 12.9 1.57444 12.81C1.57444 12.72 1.56445 12.63 1.55445 12.54C1.54445 12.45 1.55445 12.36 1.54445 12.27C1.54445 12.18 1.54445 12.09 1.54445 12C1.54445 11.91 1.54445 11.82 1.54445 11.73C1.54445 11.64 1.54445 11.55 1.55445 11.46C1.56445 11.37 1.56444 11.28 1.57444 11.19C1.58444 11.1 1.58445 11.01 1.59445 10.92C1.59445 10.83 1.61445 10.74 1.62445 10.66C1.63445 10.58 1.64445 10.49 1.66445 10.4C1.68445 10.31 1.69444 10.23 1.70444 10.14C1.72444 10.05 1.73444 9.97 1.75444 9.88C1.77444 9.79 1.79444 9.71 1.81444 9.63C1.83444 9.55 1.85445 9.46 1.87445 9.38C1.89445 9.3 1.91445 9.21 1.94445 9.13C1.96445 9.05 1.99445 8.96 2.01445 8.88C2.04445 8.8 2.06445 8.72 2.09445 8.63C2.12445 8.55 2.15444 8.47 2.18444 8.39C2.21444 8.31 2.24445 8.23 2.27445 8.15C2.30445 8.07 2.33445 7.99 2.37445 7.91C2.40445 7.83 2.44445 7.75 2.47445 7.68C2.50445 7.61 2.54445 7.53 2.58445 7.45C2.62445 7.37 2.65445 7.3 2.69445 7.22C2.73445 7.14 2.77444 7.07 2.81444 7C2.85444 6.93 2.89444 6.85 2.93444 6.78C2.97444 6.71 3.02444 6.63 3.06444 6.56C3.10444 6.49 3.15445 6.42 3.19445 6.35C3.24445 6.28 3.28445 6.21 3.33445 6.14C3.38445 6.07 3.43445 6 3.47445 5.93C3.52445 5.86 3.57445 5.79 3.62445 5.73C3.67445 5.66 3.72445 5.6 3.77445 5.53C3.82445 5.46 3.87444 5.4 3.93444 5.33C3.98444 5.27 4.04445 5.2 4.09445 5.14C4.14445 5.08 4.20445 5.01 4.26445 4.95C4.32445 4.89 4.37444 4.83 4.43444 4.76C4.49444 4.7 4.55445 4.64 4.61445 4.58C4.67445 4.52 4.73445 4.46 4.79445 4.4C4.85445 4.34 4.91445 4.28 4.97445 4.23C5.03445 4.17 5.10445 4.12 5.16445 4.06C5.22445 4 5.29444 3.95 5.35444 3.9C5.42444 3.85 5.48445 3.79 5.55445 3.74C5.62445 3.69 5.68444 3.64 5.75444 3.59C5.82444 3.54 5.89444 3.49 5.95444 3.44C6.02444 3.39 6.09445 3.34 6.16445 3.3C6.23445 3.25 6.30445 3.21 6.37445 3.16C6.44445 3.11 6.51445 3.07 6.58445 3.03C6.65445 2.99 6.72445 2.94 6.80445 2.9C6.87445 2.86 6.95445 2.82 7.02445 2.78C7.09445 2.74 7.17444 2.7 7.24444 2.66C7.31444 2.62 7.39445 2.58 7.47445 2.55C7.55445 2.51 7.62444 2.48 7.70444 2.44C7.78444 2.4 7.86444 2.37 7.93444 2.34C8.01444 2.31 8.09444 2.27 8.17444 2.24C8.25444 2.21 8.33445 2.18 8.41445 2.15C8.49445 2.12 8.57445 2.09 8.65445 2.06C8.73445 2.03 8.81445 2.01 8.90445 1.98C8.98445 1.95 9.06445 1.93 9.15445 1.91C9.23445 1.89 9.32445 1.86 9.40445 1.84C9.48445 1.82 9.57445 1.8 9.65445 1.78C9.73445 1.76 9.82445 1.74 9.90445 1.72C9.99445 1.7 10.0744 1.69 10.1644 1.67C10.2544 1.65 10.3344 1.64 10.4244 1.63C10.5144 1.62 10.5944 1.6 10.6844 1.59C10.7744 1.58 10.8644 1.57 10.9444 1.56C11.0344 1.56 11.1244 1.54 11.2144 1.54C11.3044 1.54 11.3944 1.53 11.4844 1.52C11.5744 1.52 11.6644 1.52 11.7544 1.51C11.8444 1.51 11.9344 1.51 12.0244 1.51C12.1144 1.51 12.2044 1.51 12.2944 1.51C12.3844 1.51 12.4744 1.51 12.5644 1.52C12.6544 1.52 12.7444 1.53 12.8344 1.54C12.9244 1.54 13.0144 1.55 13.1044 1.56C13.1944 1.56 13.2844 1.58 13.3644 1.59C13.4544 1.6 13.5344 1.61 13.6244 1.63C13.7144 1.64 13.7944 1.66 13.8844 1.67C13.9744 1.69 14.0544 1.7 14.1444 1.72C14.2344 1.74 14.3144 1.76 14.4044 1.78C14.4844 1.8 14.5744 1.82 14.6544 1.84C14.7344 1.86 14.8244 1.88 14.9044 1.91C14.9844 1.93 15.0744 1.96 15.1544 1.98C15.2344 2.01 15.3144 2.03 15.4044 2.06C15.4844 2.09 15.5644 2.12 15.6444 2.15C15.7244 2.18 15.8044 2.21 15.8844 2.24C15.9644 2.27 16.0444 2.3 16.1244 2.34C16.2044 2.37 16.2844 2.41 16.3544 2.44C16.4244 2.47 16.5044 2.51 16.5844 2.55C16.6644 2.59 16.7344 2.62 16.8144 2.66C16.8944 2.7 16.9644 2.74 17.0344 2.78C17.1044 2.82 17.1844 2.86 17.2544 2.9C17.3244 2.94 17.4044 2.99 17.4744 3.03C17.5444 3.07 17.6144 3.12 17.6844 3.16C17.7544 3.21 17.8244 3.25 17.8944 3.3C17.9644 3.35 18.0344 3.4 18.1044 3.44C18.1744 3.49 18.2444 3.54 18.3044 3.59C18.3744 3.64 18.4344 3.69 18.5044 3.74C18.5744 3.79 18.6344 3.84 18.7044 3.9C18.7644 3.95 18.8344 4.01 18.8944 4.06C18.9544 4.11 19.0244 4.17 19.0844 4.23C19.1444 4.29 19.2044 4.34 19.2644 4.4C19.3244 4.46 19.3844 4.52 19.4444 4.58C19.5044 4.64 19.5644 4.7 19.6244 4.76C19.6844 4.82 19.7444 4.88 19.7944 4.95C19.8544 5.01 19.9044 5.08 19.9644 5.14C20.0244 5.2 20.0744 5.27 20.1244 5.33C20.1744 5.4 20.2344 5.46 20.2844 5.53C20.3344 5.6 20.3844 5.66 20.4344 5.73C20.4844 5.8 20.5344 5.87 20.5844 5.93C20.6344 6 20.6844 6.07 20.7244 6.14C20.7744 6.21 20.8144 6.28 20.8644 6.35C20.9144 6.42 20.9544 6.49 20.9944 6.56C21.0344 6.63 21.0844 6.71 21.1244 6.78C21.1644 6.85 21.2044 6.93 21.2444 7C21.2444 7.01 21.2544 7.02 21.2644 7.03L22.8144 6.77C22.7744 6.69 22.7344 6.61 22.6944 6.54C22.6544 6.45 22.6044 6.37 22.5544 6.28C22.5044 6.19 22.4644 6.11 22.4144 6.03C22.3644 5.95 22.3144 5.86 22.2644 5.78C22.2144 5.7 22.1644 5.62 22.1144 5.53C22.0644 5.45 22.0144 5.37 21.9544 5.29C21.9044 5.21 21.8444 5.13 21.7944 5.05C21.7344 4.97 21.6844 4.89 21.6244 4.82C21.5644 4.74 21.5044 4.67 21.4444 4.59C21.3844 4.51 21.3244 4.44 21.2644 4.37C21.2044 4.3 21.1444 4.22 21.0744 4.15C21.0144 4.08 20.9444 4.01 20.8844 3.93C20.8244 3.86 20.7544 3.79 20.6844 3.72C20.6144 3.65 20.5544 3.58 20.4844 3.51C20.4144 3.44 20.3444 3.38 20.2744 3.31C20.2044 3.24 20.1344 3.18 20.0644 3.11C19.9944 3.05 19.9244 2.98 19.8444 2.92C19.7744 2.86 19.6944 2.8 19.6244 2.73C19.5544 2.67 19.4744 2.61 19.4044 2.55C19.3244 2.49 19.2544 2.43 19.1744 2.37C19.0944 2.31 19.0244 2.26 18.9444 2.2C18.8644 2.14 18.7844 2.09 18.7044 2.04C18.6244 1.99 18.5444 1.93 18.4644 1.88C18.3844 1.83 18.3044 1.78 18.2144 1.73C18.1344 1.68 18.0444 1.63 17.9644 1.58C17.8844 1.53 17.7944 1.48 17.7144 1.44C17.6244 1.39 17.5444 1.35 17.4544 1.3C17.3644 1.26 17.2844 1.21 17.1944 1.17C17.1044 1.13 17.0144 1.09 16.9344 1.05C16.8444 1.01 16.7544 0.97 16.6644 0.93C16.5744 0.89 16.4844 0.86 16.3944 0.82C16.3044 0.78 16.2144 0.75 16.1244 0.72C16.0344 0.69 15.9444 0.65 15.8444 0.62C15.7444 0.59 15.6544 0.56 15.5644 0.53C15.4744 0.5 15.3744 0.47 15.2844 0.45C15.1944 0.42 15.0944 0.4 14.9944 0.37C14.8944 0.35 14.8044 0.32 14.7044 0.3C14.6044 0.28 14.5144 0.26 14.4144 0.24C14.3144 0.22 14.2144 0.2 14.1244 0.18C14.0244 0.16 13.9244 0.15 13.8244 0.13C13.7244 0.12 13.6244 0.1 13.5244 0.09C13.4244 0.08 13.3244 0.07 13.2244 0.06C13.1244 0.05 13.0244 0.04 12.9244 0.03C12.8244 0.03 12.7244 0.02 12.6144 0.01C12.5044 0 12.4144 0.01 12.3044 0C12.2044 0 12.0944 0 11.9944 0C11.8944 0 11.7844 0 11.6844 0C11.5844 0 11.4744 0 11.3744 0.01C11.2744 0.02 11.1744 0.02 11.0644 0.03C10.9644 0.03 10.8644 0.05 10.7644 0.06C10.6644 0.07 10.5644 0.08 10.4644 0.09C10.3644 0.1 10.2644 0.12 10.1644 0.13C10.0644 0.15 9.96444 0.16 9.86444 0.18C9.76444 0.2 9.66444 0.22 9.57444 0.24C9.47444 0.26 9.38444 0.28 9.28444 0.3C9.18444 0.32 9.09444 0.35 8.99444 0.37C8.89444 0.39 8.80444 0.42 8.70444 0.45C8.60444 0.48 8.51444 0.5 8.42444 0.53C8.33444 0.56 8.23444 0.59 8.14444 0.62C8.05444 0.65 7.95445 0.68 7.86445 0.72C7.77445 0.76 7.68445 0.79 7.59445 0.82C7.50445 0.86 7.41444 0.89 7.32444 0.93C7.23444 0.97 7.14445 1.01 7.05445 1.05C6.96445 1.09 6.87445 1.13 6.79445 1.17C6.70445 1.21 6.62444 1.26 6.53444 1.3C6.44444 1.34 6.36445 1.39 6.27445 1.44C6.19445 1.49 6.10445 1.53 6.02445 1.58C5.94445 1.63 5.85445 1.68 5.77445 1.73C5.69445 1.78 5.61445 1.83 5.52445 1.88C5.43445 1.93 5.36444 1.98 5.28444 2.04C5.20444 2.09 5.12445 2.15 5.04445 2.2C4.96445 2.26 4.88444 2.31 4.81444 2.37C4.73444 2.43 4.66445 2.49 4.58445 2.55C4.50445 2.61 4.43445 2.67 4.36445 2.73C4.29445 2.79 4.21444 2.85 4.14444 2.92C4.07444 2.98 4.00444 3.05 3.93444 3.11C3.86444 3.17 3.79445 3.24 3.72445 3.31C3.65445 3.38 3.58445 3.44 3.51445 3.51C3.44445 3.58 3.38444 3.65 3.31444 3.72C3.24444 3.79 3.18444 3.86 3.11444 3.93C3.05444 4 2.98444 4.07 2.92444 4.15C2.86444 4.22 2.80445 4.3 2.73445 4.37C2.67445 4.44 2.61445 4.52 2.55445 4.59C2.49445 4.67 2.43445 4.74 2.37445 4.82C2.31445 4.9 2.26444 4.98 2.20444 5.05C2.14444 5.13 2.09445 5.21 2.04445 5.29C1.99445 5.37 1.93444 5.45 1.88444 5.53C1.83444 5.61 1.78445 5.69 1.73445 5.78C1.68445 5.86 1.63445 5.95 1.58445 6.03C1.53445 6.11 1.48445 6.2 1.44445 6.28C1.39445 6.36 1.35445 6.45 1.30445 6.54C1.25445 6.63 1.21444 6.71 1.17444 6.8C1.13444 6.89 1.09445 6.98 1.05445 7.06C1.01445 7.15 0.974445 7.24 0.934445 7.33C0.894445 7.42 0.864444 7.51 0.824444 7.6C0.784444 7.69 0.754446 7.78 0.724446 7.87C0.694446 7.96 0.654447 8.05 0.624447 8.15C0.594447 8.24 0.564443 8.34 0.534443 8.43C0.504443 8.52 0.474441 8.62 0.454441 8.71C0.424441 8.81 0.404447 8.9 0.374447 9C0.354447 9.1 0.324448 9.19 0.304448 9.29C0.284448 9.39 0.264442 9.48 0.244442 9.58C0.224442 9.68 0.204445 9.78 0.184445 9.87C0.164445 9.97 0.154442 10.07 0.134442 10.17C0.114442 10.27 0.104448 10.37 0.0944484 10.47C0.0844484 10.57 0.074442 10.67 0.064442 10.77C0.054442 10.87 0.0444432 10.97 0.0344432 11.07C0.0344432 11.17 0.0244466 11.27 0.0144466 11.38C0.00444658 11.49 0.0144444 11.59 0.00444444 11.69C-0.00555556 11.79 0.00444444 11.9 0.00444444 12C0.00444444 12.1 0.00444444 12.21 0.00444444 12.31C0.00444444 12.41 0.00444658 12.52 0.0144466 12.62C0.0244466 12.72 0.0244432 12.82 0.0344432 12.93C0.0444432 13.04 0.054442 13.13 0.064442 13.23C0.064442 13.33 0.0844484 13.43 0.0944484 13.53C0.104448 13.63 0.124442 13.73 0.134442 13.83C0.144442 13.93 0.164445 14.03 0.184445 14.13C0.204445 14.23 0.224442 14.33 0.244442 14.42C0.264442 14.52 0.284448 14.61 0.304448 14.71C0.324448 14.81 0.354447 14.9 0.374447 15C0.394447 15.1 0.424441 15.19 0.454441 15.29C0.484441 15.39 0.514443 15.48 0.534443 15.57C0.564443 15.66 0.594447 15.76 0.624447 15.85C0.654447 15.94 0.684446 16.04 0.724446 16.13C0.754446 16.22 0.794444 16.31 0.824444 16.4C0.864444 16.49 0.894445 16.58 0.934445 16.67C0.974445 16.76 1.01445 16.85 1.05445 16.94C1.09445 17.03 1.13444 17.12 1.17444 17.2C1.21444 17.29 1.25445 17.37 1.30445 17.46C1.35445 17.55 1.39445 17.63 1.44445 17.72C1.49445 17.81 1.53445 17.89 1.58445 17.97C1.63445 18.05 1.68445 18.14 1.73445 18.22C1.78445 18.3 1.83444 18.38 1.88444 18.46C1.93444 18.54 1.98445 18.62 2.04445 18.7C2.09445 18.78 2.15444 18.86 2.20444 18.94C2.25444 19.02 2.31445 19.1 2.37445 19.17C2.43445 19.24 2.49445 19.32 2.55445 19.4C2.61445 19.48 2.67445 19.55 2.73445 19.62C2.79445 19.69 2.85444 19.77 2.92444 19.84C2.98444 19.91 3.05444 19.98 3.11444 20.06C3.17444 20.13 3.24444 20.2 3.31444 20.27C3.38444 20.34 3.44445 20.41 3.51445 20.48C3.58445 20.55 3.65445 20.61 3.72445 20.68C3.79445 20.75 3.86444 20.81 3.93444 20.88C4.00444 20.94 4.07444 21.01 4.14444 21.07C4.21444 21.13 4.29445 21.2 4.36445 21.26C4.43445 21.32 4.51445 21.38 4.58445 21.44C4.66445 21.5 4.73444 21.56 4.81444 21.62C4.89444 21.68 4.97445 21.73 5.04445 21.79C5.12445 21.85 5.20444 21.9 5.28444 21.95C5.36444 22 5.44445 22.06 5.52445 22.11C5.60445 22.16 5.68445 22.21 5.77445 22.26C5.86445 22.31 5.94445 22.36 6.02445 22.41C6.10445 22.46 6.19445 22.51 6.27445 22.55C6.36445 22.6 6.44444 22.64 6.53444 22.69C6.62444 22.73 6.70445 22.78 6.79445 22.82C6.88445 22.86 6.97445 22.9 7.05445 22.94C7.14445 22.98 7.23444 23.02 7.32444 23.06C7.41444 23.1 7.50445 23.13 7.59445 23.17C7.68445 23.21 7.77445 23.24 7.86445 23.27C7.95445 23.3 8.04444 23.34 8.14444 23.37C8.23444 23.4 8.33444 23.43 8.42444 23.46C8.51444 23.49 8.61444 23.52 8.70444 23.54C8.79444 23.56 8.89444 23.59 8.99444 23.62C9.09444 23.64 9.18444 23.67 9.28444 23.69C9.38444 23.71 9.47444 23.73 9.57444 23.75C9.67444 23.77 9.77444 23.79 9.86444 23.81C9.96444 23.83 10.0644 23.84 10.1644 23.86C10.2644 23.88 10.3644 23.89 10.4644 23.9C10.5644 23.91 10.6644 23.92 10.7644 23.93C10.8644 23.94 10.9644 23.95 11.0644 23.96C11.1644 23.96 11.2644 23.97 11.3744 23.98C11.4844 23.99 11.5744 23.98 11.6844 23.99C11.7844 23.99 11.8944 23.99 11.9944 23.99C12.0944 23.99 12.2044 23.99 12.3044 23.99C12.4044 23.99 12.5144 23.99 12.6144 23.98C12.7144 23.97 12.8144 23.97 12.9244 23.96C13.0244 23.96 13.1244 23.94 13.2244 23.93C13.3244 23.92 13.4244 23.91 13.5244 23.9C13.6244 23.89 13.7244 23.87 13.8244 23.86C13.9244 23.85 14.0244 23.83 14.1244 23.81C14.2244 23.79 14.3244 23.77 14.4144 23.75C14.5044 23.73 14.6044 23.71 14.7044 23.69C14.8044 23.67 14.8944 23.64 14.9944 23.62C15.0944 23.6 15.1844 23.57 15.2844 23.54C15.3844 23.51 15.4744 23.48 15.5644 23.46C15.6544 23.43 15.7544 23.4 15.8444 23.37C15.9344 23.34 16.0344 23.31 16.1244 23.27C16.2144 23.24 16.3044 23.2 16.3944 23.17C16.4844 23.14 16.5744 23.1 16.6644 23.06C16.7544 23.02 16.8444 22.98 16.9344 22.94C17.0244 22.9 17.1144 22.86 17.1944 22.82C17.2844 22.78 17.3644 22.73 17.4544 22.69C17.5444 22.65 17.6244 22.6 17.7144 22.55C17.7944 22.5 17.8844 22.46 17.9644 22.41C18.0444 22.36 18.1344 22.31 18.2144 22.26C18.2944 22.21 18.3744 22.16 18.4644 22.11C18.5444 22.06 18.6244 22.01 18.7044 21.95C18.7844 21.9 18.8644 21.84 18.9444 21.79C19.0244 21.73 19.1044 21.68 19.1744 21.62C19.2544 21.56 19.3244 21.5 19.4044 21.44C19.4844 21.38 19.5544 21.32 19.6244 21.26C19.6944 21.2 19.7744 21.14 19.8444 21.07C19.9144 21.01 19.9844 20.94 20.0644 20.88C20.1344 20.82 20.2044 20.75 20.2744 20.68C20.3444 20.61 20.4144 20.55 20.4844 20.48C20.5544 20.41 20.6144 20.34 20.6844 20.27C20.7544 20.2 20.8144 20.13 20.8844 20.06C20.9444 19.99 21.0144 19.92 21.0744 19.84C21.1344 19.77 21.2044 19.69 21.2644 19.62C21.3244 19.55 21.3844 19.47 21.4444 19.4C21.5044 19.33 21.5644 19.25 21.6244 19.17C21.6844 19.09 21.7344 19.02 21.7944 18.94C21.8544 18.86 21.9044 18.78 21.9544 18.7C22.0044 18.62 22.0644 18.54 22.1144 18.46C22.1644 18.38 22.2144 18.3 22.2644 18.22C22.3144 18.14 22.3644 18.05 22.4144 17.97C22.4644 17.89 22.5144 17.8 22.5544 17.72C22.6044 17.63 22.6444 17.55 22.6944 17.46C22.7344 17.37 22.7844 17.29 22.8244 17.2C22.8644 17.11 22.9044 17.02 22.9444 16.94C22.9844 16.85 23.0244 16.76 23.0644 16.67C23.1044 16.58 23.1344 16.49 23.1744 16.4C23.2144 16.31 23.2444 16.22 23.2744 16.13C23.3044 16.04 23.3444 15.95 23.3744 15.85C23.4044 15.76 23.4344 15.66 23.4644 15.57C23.4944 15.48 23.5244 15.38 23.5444 15.29C23.5744 15.19 23.5944 15.1 23.6244 15C23.6444 14.9 23.6744 14.81 23.6944 14.71C23.7144 14.61 23.7344 14.52 23.7544 14.42C23.7744 14.32 23.7944 14.22 23.8144 14.13C23.8344 14.04 23.8444 13.93 23.8644 13.83C23.8744 13.73 23.8944 13.63 23.9044 13.53C23.9144 13.43 23.9244 13.33 23.9344 13.23C23.9344 13.13 23.9544 13.03 23.9644 12.93C23.9744 12.83 23.9744 12.73 23.9844 12.62C23.9844 12.62 23.9844 12.61 23.9844 12.6L22.4644 12.86H22.4844Z" fill="white"/>
</g>
<defs>
<clipPath id="clip0_1088_10397">
<rect width="23.9844" height="23.99" fill="white"/>
</clipPath>
</defs>
</svg>
