<svg width="24" height="24" viewBox="0 0 24 24" fill="none" xmlns="http://www.w3.org/2000/svg">
<g clip-path="url(#clip0_1088_10392)">
<path d="M12 1.5C12.09 1.5 12.18 1.5 12.27 1.5C12.36 1.5 12.45 1.5 12.54 1.51C12.63 1.51 12.72 1.52 12.81 1.53C12.9 1.53 12.99 1.54 13.08 1.55C13.17 1.55 13.26 1.57 13.34 1.58C13.43 1.59 13.51 1.6 13.6 1.62C13.69 1.64 13.77 1.65 13.86 1.66C13.95 1.68 14.03 1.69 14.12 1.71C14.21 1.73 14.29 1.75 14.38 1.77C14.46 1.79 14.55 1.81 14.63 1.83C14.71 1.85 14.8 1.87 14.88 1.9C14.96 1.92 15.05 1.95 15.13 1.97C15.21 2 15.29 2.02 15.38 2.05C15.46 2.08 15.54 2.11 15.62 2.14C15.7 2.17 15.78 2.2 15.86 2.23C15.94 2.26 16.02 2.29 16.1 2.33C16.18 2.36 16.26 2.4 16.33 2.43C16.41 2.47 16.48 2.5 16.56 2.54C16.64 2.58 16.71 2.61 16.79 2.65C16.87 2.69 16.94 2.73 17.01 2.77C17.08 2.81 17.16 2.85 17.23 2.89C17.3 2.93 17.38 2.98 17.45 3.02C17.52 3.06 17.59 3.11 17.66 3.15C17.73 3.2 17.8 3.24 17.87 3.29C17.94 3.34 18.01 3.39 18.08 3.43C18.15 3.48 18.22 3.53 18.28 3.58C18.35 3.63 18.41 3.68 18.48 3.73C18.55 3.78 18.61 3.83 18.68 3.89C18.75 3.95 18.81 4 18.87 4.05C18.93 4.1 19 4.16 19.06 4.22C19.12 4.28 19.18 4.33 19.24 4.39C19.3 4.45 19.36 4.51 19.42 4.57C19.48 4.63 19.54 4.69 19.6 4.75C19.66 4.81 19.72 4.87 19.77 4.93C19.83 4.99 19.88 5.06 19.94 5.12C20 5.18 20.05 5.25 20.1 5.31C20.15 5.37 20.21 5.44 20.26 5.51C20.31 5.58 20.36 5.64 20.41 5.71C20.46 5.78 20.51 5.85 20.56 5.91C20.61 5.98 20.66 6.05 20.7 6.12C20.75 6.19 20.79 6.26 20.84 6.33C20.89 6.4 20.93 6.47 20.97 6.54C21.01 6.61 21.06 6.68 21.1 6.76C21.14 6.84 21.18 6.91 21.22 6.98C21.26 7.05 21.3 7.13 21.34 7.2C21.38 7.28 21.42 7.35 21.45 7.43C21.49 7.51 21.52 7.58 21.56 7.66C21.6 7.74 21.63 7.82 21.66 7.89C21.69 7.97 21.73 8.05 21.76 8.13C21.79 8.21 21.82 8.29 21.85 8.37C21.88 8.45 21.91 8.53 21.94 8.61C21.97 8.69 21.99 8.77 22.02 8.86C22.05 8.94 22.07 9.02 22.09 9.11C22.11 9.19 22.14 9.28 22.16 9.36C22.18 9.44 22.2 9.53 22.22 9.61C22.24 9.69 22.26 9.78 22.28 9.87C22.3 9.96 22.31 10.04 22.33 10.13C22.35 10.22 22.36 10.3 22.37 10.39C22.38 10.48 22.4 10.56 22.41 10.65C22.42 10.74 22.43 10.83 22.44 10.91C22.44 11 22.46 11.09 22.46 11.18C22.46 11.27 22.47 11.36 22.48 11.45C22.48 11.54 22.48 11.63 22.49 11.72C22.5 11.81 22.49 11.9 22.49 11.99C22.49 12.08 22.49 12.17 22.49 12.26C22.49 12.35 22.49 12.44 22.48 12.53C22.48 12.62 22.47 12.71 22.46 12.8C22.46 12.89 22.45 12.98 22.44 13.07C22.44 13.16 22.42 13.25 22.41 13.33C22.4 13.42 22.39 13.5 22.37 13.59C22.36 13.68 22.34 13.76 22.33 13.85C22.31 13.94 22.3 14.02 22.28 14.11C22.26 14.2 22.24 14.28 22.22 14.37C22.2 14.45 22.18 14.54 22.16 14.62C22.14 14.7 22.12 14.79 22.09 14.87C22.07 14.95 22.04 15.04 22.02 15.12C21.99 15.2 21.97 15.28 21.94 15.37C21.91 15.45 21.88 15.53 21.85 15.61C21.82 15.69 21.79 15.77 21.76 15.85C21.73 15.93 21.7 16.01 21.66 16.09C21.63 16.17 21.59 16.25 21.56 16.32C21.52 16.4 21.49 16.47 21.45 16.55C21.41 16.63 21.38 16.7 21.34 16.78C21.3 16.86 21.26 16.93 21.22 17C21.18 17.07 21.14 17.15 21.1 17.22C21.06 17.29 21.01 17.37 20.97 17.44C20.93 17.51 20.88 17.58 20.84 17.65C20.79 17.72 20.75 17.79 20.7 17.86C20.65 17.93 20.6 18 20.56 18.07C20.51 18.14 20.46 18.21 20.41 18.27C20.36 18.34 20.31 18.4 20.26 18.47C20.21 18.54 20.16 18.6 20.1 18.67C20.05 18.73 19.99 18.8 19.94 18.86C19.88 18.92 19.83 18.99 19.77 19.05C19.71 19.11 19.66 19.17 19.6 19.23C19.54 19.29 19.48 19.35 19.42 19.41C19.36 19.47 19.3 19.53 19.24 19.59C19.18 19.65 19.12 19.71 19.06 19.76C19 19.82 18.93 19.87 18.87 19.93C18.81 19.99 18.74 20.04 18.68 20.09C18.62 20.14 18.55 20.2 18.48 20.25C18.41 20.3 18.35 20.35 18.28 20.4C18.21 20.45 18.14 20.5 18.08 20.55C18.01 20.6 17.94 20.65 17.87 20.69C17.8 20.73 17.73 20.78 17.66 20.83C17.59 20.88 17.52 20.92 17.45 20.96C17.38 21 17.31 21.05 17.23 21.09C17.15 21.13 17.08 21.17 17.01 21.21C16.94 21.25 16.86 21.29 16.79 21.33C16.72 21.37 16.64 21.41 16.56 21.44C16.48 21.48 16.41 21.51 16.33 21.55C16.25 21.59 16.17 21.62 16.1 21.65C16.02 21.68 15.94 21.72 15.86 21.75C15.78 21.78 15.7 21.81 15.62 21.84C15.54 21.87 15.46 21.9 15.38 21.93C15.3 21.96 15.22 21.98 15.13 22.01C15.05 22.04 14.97 22.06 14.88 22.08C14.8 22.1 14.71 22.13 14.63 22.15C14.55 22.17 14.46 22.19 14.38 22.21C14.3 22.23 14.21 22.25 14.12 22.27C14.03 22.29 13.95 22.3 13.86 22.32C13.77 22.34 13.69 22.35 13.6 22.36C13.51 22.37 13.43 22.39 13.34 22.4C13.25 22.41 13.16 22.42 13.08 22.43C12.99 22.43 12.9 22.45 12.81 22.45C12.72 22.45 12.63 22.46 12.54 22.47C12.45 22.47 12.36 22.47 12.27 22.48C12.18 22.49 12.09 22.48 12 22.48C11.91 22.48 11.82 22.48 11.73 22.48C11.64 22.48 11.55 22.48 11.46 22.47C11.37 22.47 11.28 22.46 11.19 22.45C11.1 22.45 11.01 22.44 10.92 22.43C10.83 22.43 10.74 22.41 10.66 22.4C10.57 22.39 10.49 22.38 10.4 22.36C10.31 22.35 10.23 22.33 10.14 22.32C10.05 22.3 9.97 22.29 9.88 22.27C9.79 22.25 9.71 22.23 9.62 22.21C9.54 22.19 9.45 22.17 9.37 22.15C9.29 22.13 9.2 22.11 9.12 22.08C9.04 22.06 8.95 22.03 8.87 22.01C8.79 21.99 8.71 21.96 8.62 21.93C8.54 21.9 8.46 21.87 8.38 21.84C8.3 21.81 8.22 21.78 8.14 21.75C8.06 21.72 7.98 21.69 7.9 21.65C7.82 21.62 7.74 21.58 7.67 21.55C7.59 21.51 7.52 21.48 7.44 21.44C7.36 21.4 7.29 21.37 7.21 21.33C7.13 21.29 7.06 21.25 6.99 21.21C6.92 21.17 6.84 21.13 6.77 21.09C6.7 21.05 6.62 21 6.55 20.96C6.48 20.92 6.41 20.87 6.34 20.83C6.27 20.78 6.2 20.74 6.13 20.69C6.06 20.64 5.99 20.59 5.92 20.55C5.85 20.5 5.78 20.45 5.72 20.4C5.65 20.35 5.59 20.3 5.52 20.25C5.45 20.2 5.39 20.15 5.32 20.09C5.26 20.04 5.19 19.98 5.13 19.93C5.07 19.87 5 19.82 4.94 19.76C4.88 19.7 4.82 19.65 4.76 19.59C4.7 19.53 4.64 19.47 4.58 19.41C4.52 19.35 4.46 19.29 4.4 19.23C4.34 19.17 4.28 19.11 4.23 19.05C4.17 18.99 4.12 18.92 4.06 18.86C4 18.8 3.95 18.73 3.9 18.67C3.85 18.61 3.79 18.54 3.74 18.47C3.69 18.4 3.64 18.34 3.59 18.27C3.54 18.2 3.49 18.13 3.44 18.07C3.39 18 3.34 17.93 3.3 17.86C3.25 17.79 3.21 17.72 3.16 17.65C3.11 17.58 3.07 17.51 3.03 17.44C2.99 17.37 2.94 17.3 2.9 17.22C2.86 17.14 2.82 17.07 2.78 17C2.74 16.93 2.7 16.85 2.66 16.78C2.62 16.7 2.58 16.63 2.55 16.55C2.51 16.47 2.48 16.4 2.44 16.32C2.4 16.24 2.37 16.16 2.34 16.09C2.31 16.01 2.27 15.93 2.24 15.85C2.21 15.77 2.18 15.69 2.15 15.61C2.12 15.53 2.09 15.45 2.06 15.37C2.03 15.29 2.01 15.21 1.98 15.12C1.95 15.04 1.93 14.96 1.91 14.87C1.89 14.79 1.86 14.7 1.84 14.62C1.82 14.54 1.8 14.45 1.78 14.37C1.76 14.29 1.74 14.2 1.72 14.11C1.7 14.02 1.69 13.94 1.67 13.85C1.65 13.76 1.64 13.68 1.63 13.59C1.62 13.5 1.6 13.42 1.59 13.33C1.58 13.24 1.57 13.15 1.56 13.07C1.56 12.98 1.54 12.89 1.54 12.8C1.54 12.71 1.53 12.62 1.52 12.53C1.52 12.44 1.52 12.35 1.51 12.26C1.5 12.17 1.51 12.08 1.51 11.99C1.51 11.9 1.51 11.81 1.51 11.72C1.51 11.63 1.51 11.54 1.52 11.45C1.52 11.36 1.53 11.27 1.54 11.18C1.54 11.09 1.55 11 1.56 10.91C1.56 10.82 1.58 10.73 1.59 10.65C1.6 10.56 1.61 10.48 1.63 10.39C1.65 10.3 1.66 10.22 1.67 10.13C1.69 10.04 1.7 9.96 1.72 9.87C1.74 9.78 1.76 9.7 1.78 9.61C1.8 9.53 1.82 9.44 1.84 9.36C1.86 9.28 1.88 9.19 1.91 9.11C1.93 9.03 1.96 8.94 1.98 8.86C2.01 8.78 2.03 8.7 2.06 8.61C2.09 8.52 2.12 8.45 2.15 8.37C2.18 8.29 2.21 8.21 2.24 8.13C2.27 8.05 2.3 7.97 2.34 7.89C2.37 7.81 2.41 7.73 2.44 7.66C2.48 7.58 2.51 7.51 2.55 7.43C2.59 7.35 2.62 7.28 2.66 7.2C2.7 7.12 2.74 7.05 2.78 6.98C2.82 6.91 2.86 6.83 2.9 6.76C2.94 6.69 2.99 6.61 3.03 6.54C3.07 6.47 3.12 6.4 3.16 6.33C3.21 6.26 3.25 6.19 3.3 6.12C3.35 6.05 3.4 5.98 3.44 5.91C3.49 5.84 3.54 5.77 3.59 5.71C3.64 5.64 3.69 5.58 3.74 5.51C3.79 5.44 3.84 5.38 3.9 5.31C3.96 5.24 4.01 5.18 4.06 5.12C4.12 5.06 4.17 4.99 4.23 4.93C4.29 4.87 4.34 4.81 4.4 4.75C4.46 4.69 4.52 4.63 4.58 4.57C4.64 4.51 4.7 4.45 4.76 4.39C4.82 4.33 4.88 4.27 4.94 4.22C5 4.16 5.07 4.11 5.13 4.05C5.19 3.99 5.26 3.94 5.32 3.89C5.38 3.84 5.45 3.78 5.52 3.73C5.59 3.68 5.65 3.63 5.72 3.58C5.79 3.53 5.86 3.48 5.92 3.43C5.99 3.38 6.06 3.33 6.13 3.29C6.2 3.24 6.27 3.2 6.34 3.15C6.41 3.1 6.48 3.06 6.55 3.02C6.62 2.98 6.69 2.93 6.77 2.89C6.85 2.85 6.92 2.81 6.99 2.77C7.06 2.73 7.14 2.69 7.21 2.65C7.28 2.61 7.36 2.57 7.44 2.54C7.52 2.5 7.59 2.47 7.67 2.43C7.75 2.39 7.83 2.36 7.9 2.33C7.98 2.3 8.06 2.26 8.14 2.23C8.22 2.2 8.3 2.17 8.38 2.14C8.46 2.11 8.54 2.08 8.62 2.05C8.7 2.02 8.78 2 8.87 1.97C8.96 1.94 9.03 1.92 9.12 1.9C9.2 1.88 9.29 1.85 9.37 1.83C9.45 1.81 9.54 1.79 9.62 1.77C9.7 1.75 9.79 1.73 9.88 1.71C9.97 1.69 10.05 1.68 10.14 1.66C10.23 1.64 10.31 1.63 10.4 1.62C10.49 1.61 10.57 1.59 10.66 1.58C10.75 1.57 10.84 1.56 10.92 1.55C11.01 1.55 11.1 1.53 11.19 1.53C11.28 1.53 11.37 1.52 11.46 1.51C11.55 1.51 11.64 1.51 11.73 1.5C11.82 1.49 11.91 1.5 12 1.5ZM12 0C11.9 0 11.79 0 11.69 0C11.59 0 11.48 0 11.38 0.01C11.28 0.01 11.18 0.02 11.07 0.03C10.96 0.04 10.87 0.05 10.77 0.06C10.67 0.07 10.57 0.08 10.47 0.09C10.37 0.1 10.27 0.12 10.17 0.13C10.07 0.15 9.97 0.16 9.87 0.18C9.77 0.2 9.67 0.22 9.58 0.24C9.48 0.26 9.39 0.28 9.29 0.3C9.19 0.32 9.1 0.35 9 0.37C8.9 0.39 8.81 0.42 8.71 0.45C8.62 0.48 8.52 0.51 8.43 0.53C8.34 0.56 8.24 0.59 8.15 0.62C8.06 0.65 7.96 0.68 7.87 0.72C7.78 0.75 7.69 0.79 7.6 0.82C7.51 0.86 7.42 0.89 7.33 0.93C7.24 0.97 7.15 1.01 7.06 1.05C6.97 1.09 6.88 1.13 6.8 1.17C6.72 1.21 6.63 1.26 6.54 1.3C6.45 1.34 6.37 1.39 6.28 1.44C6.19 1.49 6.11 1.53 6.03 1.58C5.95 1.63 5.86 1.68 5.78 1.73C5.7 1.78 5.62 1.83 5.53 1.88C5.44 1.93 5.37 1.98 5.29 2.04C5.21 2.09 5.13 2.15 5.05 2.2C4.97 2.26 4.89 2.31 4.82 2.37C4.75 2.43 4.67 2.49 4.59 2.55C4.51 2.61 4.44 2.67 4.37 2.73C4.3 2.79 4.22 2.85 4.15 2.92C4.08 2.99 4.01 3.05 3.93 3.11C3.86 3.17 3.79 3.24 3.72 3.31C3.65 3.38 3.58 3.44 3.51 3.51C3.44 3.58 3.38 3.65 3.31 3.72C3.24 3.79 3.18 3.86 3.11 3.93C3.05 4 2.98 4.07 2.92 4.15C2.86 4.23 2.8 4.3 2.73 4.37C2.67 4.44 2.61 4.52 2.55 4.59C2.49 4.67 2.43 4.74 2.37 4.82C2.31 4.9 2.26 4.97 2.2 5.05C2.14 5.13 2.09 5.21 2.04 5.29C1.99 5.37 1.93 5.45 1.88 5.53C1.83 5.61 1.78 5.69 1.73 5.78C1.68 5.87 1.63 5.95 1.58 6.03C1.53 6.11 1.48 6.2 1.44 6.28C1.39 6.37 1.35 6.45 1.3 6.54C1.26 6.63 1.21 6.71 1.17 6.8C1.13 6.89 1.09 6.98 1.05 7.06C1.01 7.15 0.97 7.24 0.93 7.33C0.89 7.42 0.86 7.51 0.82 7.6C0.78 7.69 0.749997 7.78 0.719997 7.87C0.689997 7.96 0.649999 8.05 0.619999 8.15C0.589999 8.25 0.559999 8.34 0.529999 8.43C0.499999 8.52 0.470001 8.62 0.450001 8.71C0.430001 8.8 0.399999 8.9 0.369999 9C0.349999 9.1 0.319999 9.19 0.299999 9.29C0.279999 9.39 0.259998 9.48 0.239998 9.58C0.219998 9.68 0.2 9.78 0.18 9.87C0.16 9.97 0.150001 10.07 0.130001 10.17C0.110001 10.27 0.1 10.37 0.0900002 10.47C0.0800002 10.57 0.0699976 10.67 0.0599976 10.77C0.0499976 10.87 0.0399988 10.97 0.0299988 11.07C0.0199988 11.17 0.0199983 11.27 0.00999832 11.38C0.00999832 11.48 0.01 11.58 0 11.69C0 11.79 0 11.9 0 12C0 12.1 0 12.21 0 12.31C0 12.41 -1.67824e-06 12.52 0.00999832 12.62C0.00999832 12.72 0.0199988 12.82 0.0299988 12.93C0.0399988 13.04 0.0499976 13.13 0.0599976 13.23C0.0699976 13.33 0.0800002 13.43 0.0900002 13.53C0.1 13.63 0.120001 13.73 0.130001 13.83C0.150001 13.93 0.16 14.03 0.18 14.13C0.2 14.23 0.219998 14.33 0.239998 14.42C0.259998 14.52 0.279999 14.61 0.299999 14.71C0.319999 14.81 0.349999 14.9 0.369999 15C0.389999 15.1 0.420001 15.19 0.450001 15.29C0.480001 15.39 0.509999 15.48 0.529999 15.57C0.549999 15.66 0.589999 15.76 0.619999 15.85C0.649999 15.94 0.679997 16.04 0.719997 16.13C0.749997 16.22 0.79 16.31 0.82 16.4C0.86 16.49 0.89 16.58 0.93 16.67C0.97 16.76 1.01 16.85 1.05 16.94C1.09 17.03 1.13 17.12 1.17 17.2C1.21 17.28 1.26 17.37 1.3 17.46C1.34 17.55 1.39 17.63 1.44 17.72C1.49 17.81 1.53 17.89 1.58 17.97C1.63 18.05 1.68 18.14 1.73 18.22C1.78 18.3 1.83 18.38 1.88 18.47C1.93 18.55 1.98 18.63 2.04 18.71C2.09 18.79 2.15 18.87 2.2 18.95C2.26 19.03 2.31 19.11 2.37 19.18C2.43 19.25 2.49 19.33 2.55 19.41C2.61 19.49 2.67 19.56 2.73 19.63C2.79 19.7 2.85 19.78 2.92 19.85C2.99 19.92 3.05 19.99 3.11 20.07C3.17 20.14 3.24 20.21 3.31 20.28C3.38 20.35 3.44 20.42 3.51 20.49C3.58 20.56 3.65 20.62 3.72 20.69C3.79 20.76 3.86 20.82 3.93 20.89C4 20.95 4.07 21.02 4.15 21.08C4.23 21.14 4.3 21.2 4.37 21.27C4.44 21.33 4.52 21.39 4.59 21.45C4.67 21.51 4.74 21.57 4.82 21.63C4.9 21.69 4.97 21.74 5.05 21.8C5.13 21.86 5.21 21.91 5.29 21.96C5.37 22.01 5.45 22.07 5.53 22.12C5.61 22.17 5.69 22.22 5.78 22.27C5.86 22.32 5.95 22.37 6.03 22.42C6.11 22.47 6.2 22.52 6.28 22.56C6.37 22.61 6.45 22.65 6.54 22.7C6.63 22.75 6.71 22.79 6.8 22.83C6.89 22.87 6.98 22.91 7.06 22.95C7.15 22.99 7.24 23.03 7.33 23.07C7.42 23.11 7.51 23.14 7.6 23.18C7.69 23.22 7.78 23.25 7.87 23.28C7.96 23.31 8.05 23.35 8.15 23.38C8.24 23.41 8.34 23.44 8.43 23.47C8.52 23.5 8.62 23.53 8.71 23.55C8.8 23.58 8.9 23.6 9 23.63C9.1 23.65 9.19 23.68 9.29 23.7C9.39 23.72 9.48 23.74 9.58 23.76C9.68 23.78 9.78 23.8 9.87 23.82C9.97 23.84 10.07 23.85 10.17 23.87C10.27 23.89 10.37 23.9 10.47 23.91C10.57 23.92 10.67 23.93 10.77 23.94C10.87 23.95 10.97 23.96 11.07 23.97C11.17 23.98 11.27 23.98 11.38 23.99C11.48 23.99 11.58 23.99 11.69 24C11.79 24 11.9 24 12 24C12.1 24 12.21 24 12.31 24C12.41 24 12.52 24 12.62 23.99C12.72 23.99 12.82 23.98 12.93 23.97C13.03 23.97 13.13 23.95 13.23 23.94C13.33 23.93 13.43 23.92 13.53 23.91C13.63 23.9 13.73 23.88 13.83 23.87C13.93 23.85 14.03 23.84 14.13 23.82C14.23 23.8 14.33 23.78 14.42 23.76C14.52 23.74 14.61 23.72 14.71 23.7C14.81 23.68 14.9 23.65 15 23.63C15.1 23.61 15.19 23.58 15.29 23.55C15.38 23.52 15.48 23.49 15.57 23.47C15.66 23.44 15.76 23.41 15.85 23.38C15.94 23.35 16.04 23.32 16.13 23.28C16.22 23.25 16.31 23.21 16.4 23.18C16.49 23.14 16.58 23.11 16.67 23.07C16.76 23.03 16.85 22.99 16.94 22.95C17.03 22.91 17.12 22.87 17.2 22.83C17.28 22.79 17.37 22.74 17.46 22.7C17.55 22.66 17.63 22.61 17.72 22.56C17.81 22.51 17.89 22.47 17.97 22.42C18.05 22.37 18.14 22.32 18.22 22.27C18.3 22.22 18.38 22.17 18.47 22.12C18.55 22.07 18.63 22.01 18.71 21.96C18.79 21.91 18.87 21.85 18.95 21.8C19.03 21.74 19.11 21.69 19.18 21.63C19.25 21.57 19.33 21.51 19.41 21.45C19.49 21.39 19.56 21.33 19.63 21.27C19.7 21.21 19.78 21.15 19.85 21.08C19.92 21.01 19.99 20.95 20.07 20.89C20.14 20.83 20.21 20.76 20.28 20.69C20.35 20.62 20.42 20.56 20.49 20.49C20.56 20.42 20.62 20.35 20.69 20.28C20.76 20.21 20.82 20.14 20.89 20.07C20.95 20 21.02 19.93 21.08 19.85C21.14 19.77 21.2 19.7 21.27 19.63C21.33 19.56 21.39 19.48 21.45 19.41C21.51 19.34 21.57 19.26 21.63 19.18C21.69 19.1 21.74 19.03 21.8 18.95C21.86 18.87 21.91 18.79 21.96 18.71C22.01 18.63 22.07 18.55 22.12 18.47C22.17 18.39 22.22 18.31 22.27 18.22C22.32 18.14 22.37 18.05 22.42 17.97C22.47 17.89 22.52 17.8 22.56 17.72C22.61 17.63 22.65 17.55 22.7 17.46C22.75 17.37 22.79 17.29 22.83 17.2C22.87 17.11 22.91 17.02 22.95 16.94C22.99 16.85 23.03 16.76 23.07 16.67C23.11 16.58 23.14 16.49 23.18 16.4C23.22 16.31 23.25 16.22 23.28 16.13C23.31 16.04 23.35 15.95 23.38 15.85C23.41 15.75 23.44 15.66 23.47 15.57C23.5 15.48 23.53 15.38 23.55 15.29C23.58 15.2 23.6 15.1 23.63 15C23.65 14.9 23.68 14.81 23.7 14.71C23.72 14.61 23.74 14.52 23.76 14.42C23.78 14.32 23.8 14.22 23.82 14.13C23.84 14.03 23.85 13.93 23.87 13.83C23.89 13.73 23.9 13.63 23.91 13.53C23.92 13.43 23.93 13.33 23.94 13.23C23.95 13.13 23.96 13.03 23.97 12.93C23.98 12.83 23.98 12.73 23.99 12.62C23.99 12.52 23.99 12.42 24 12.31C24 12.21 24 12.1 24 12C24 11.9 24 11.79 24 11.69C24 11.59 24 11.48 23.99 11.38C23.99 11.28 23.98 11.18 23.97 11.07C23.96 10.96 23.95 10.87 23.94 10.77C23.93 10.67 23.92 10.57 23.91 10.47C23.9 10.37 23.88 10.27 23.87 10.17C23.86 10.07 23.84 9.97 23.82 9.87C23.8 9.77 23.78 9.67 23.76 9.58C23.74 9.48 23.72 9.39 23.7 9.29C23.68 9.19 23.65 9.1 23.63 9C23.61 8.9 23.58 8.81 23.55 8.71C23.52 8.62 23.49 8.52 23.47 8.43C23.44 8.34 23.41 8.24 23.38 8.15C23.35 8.06 23.32 7.96 23.28 7.87C23.25 7.78 23.21 7.69 23.18 7.6C23.14 7.51 23.11 7.42 23.07 7.33C23.03 7.24 22.99 7.15 22.95 7.06C22.91 6.97 22.87 6.88 22.83 6.8C22.79 6.71 22.74 6.63 22.7 6.54C22.66 6.45 22.61 6.37 22.56 6.28C22.51 6.19 22.47 6.11 22.42 6.03C22.37 5.95 22.32 5.86 22.27 5.78C22.22 5.7 22.17 5.62 22.12 5.53C22.07 5.45 22.01 5.37 21.96 5.29C21.91 5.21 21.85 5.13 21.8 5.05C21.74 4.97 21.69 4.89 21.63 4.82C21.57 4.75 21.51 4.67 21.45 4.59C21.39 4.51 21.33 4.44 21.27 4.37C21.21 4.3 21.15 4.22 21.08 4.15C21.01 4.08 20.95 4.01 20.89 3.93C20.83 3.86 20.76 3.79 20.69 3.72C20.62 3.65 20.56 3.58 20.49 3.51C20.42 3.44 20.35 3.38 20.28 3.31C20.21 3.24 20.14 3.18 20.07 3.11C20 3.05 19.93 2.98 19.85 2.92C19.77 2.86 19.7 2.8 19.63 2.73C19.56 2.67 19.48 2.61 19.41 2.55C19.34 2.49 19.26 2.43 19.18 2.37C19.1 2.31 19.03 2.26 18.95 2.2C18.87 2.14 18.79 2.09 18.71 2.04C18.63 1.99 18.55 1.93 18.47 1.88C18.39 1.83 18.31 1.78 18.22 1.73C18.14 1.68 18.05 1.63 17.97 1.58C17.89 1.53 17.8 1.48 17.72 1.44C17.64 1.4 17.55 1.35 17.46 1.3C17.37 1.26 17.29 1.21 17.2 1.17C17.11 1.13 17.02 1.09 16.94 1.05C16.85 1.01 16.76 0.97 16.67 0.93C16.58 0.89 16.49 0.86 16.4 0.82C16.31 0.78 16.22 0.75 16.13 0.72C16.04 0.69 15.95 0.65 15.85 0.62C15.76 0.59 15.66 0.56 15.57 0.53C15.48 0.5 15.38 0.47 15.29 0.45C15.2 0.42 15.1 0.4 15 0.37C14.9 0.35 14.81 0.32 14.71 0.3C14.61 0.28 14.52 0.26 14.42 0.24C14.32 0.22 14.22 0.2 14.13 0.18C14.03 0.16 13.93 0.15 13.83 0.13C13.73 0.11 13.63 0.1 13.53 0.09C13.43 0.08 13.33 0.07 13.23 0.06C13.13 0.05 13.03 0.04 12.93 0.03C12.83 0.03 12.73 0.02 12.62 0.01C12.52 0.01 12.42 0.01 12.31 0C12.21 0 12.1 0 12 0Z" fill="white"/>
<path d="M16.1199 8.70062L16.0599 8.66062L15.9999 8.62063L15.9399 8.58063L15.8799 8.54063L15.8199 8.50063L15.7599 8.46063L15.6999 8.42063L15.6399 8.38063L15.5799 8.34063L15.5199 8.30063L15.4599 8.26063L15.3999 8.22063L15.3399 8.18063L15.2799 8.14063L15.2199 8.10063L15.1599 8.06063L15.0999 8.02063L15.0399 7.98063L14.9799 7.94063L14.9199 7.90063L14.8599 7.86063L14.7999 7.82063L14.7399 7.78063L14.6799 7.74062L14.6199 7.70062L14.5599 7.66062L14.4999 7.62063L14.4399 7.58063L14.3799 7.54063L14.3199 7.50063L14.2599 7.46063L14.1999 7.42063L14.1399 7.38063L14.0799 7.34063L14.0199 7.30063L13.9599 7.26063L13.8999 7.22062L13.8399 7.18062L13.7799 7.14062L13.7199 7.10063L13.6599 7.06063L13.5999 7.02063L13.5399 6.98063L13.4799 6.94063L13.4199 6.90063L13.3599 6.86063L13.2999 6.82063L13.2399 6.78063L13.1799 6.74062L13.1199 6.70062L13.0599 6.66062L12.9999 6.62063L12.9399 6.58063L12.8799 6.54063L12.8199 6.50063L12.7599 6.46063L12.6999 6.42063L12.6399 6.38063L12.5799 6.34063L12.5199 6.30063L12.4599 6.26063L12.3999 6.22062L12.3399 6.18062L12.2799 6.14062C12.2799 6.14062 12.2799 6.14062 12.2699 6.14062C12.2599 6.14062 12.2699 6.14062 12.2599 6.14062C12.2599 6.14062 12.2599 6.14062 12.2499 6.14062C12.2499 6.14062 12.2499 6.14062 12.2399 6.14062C12.2299 6.14062 12.2399 6.14062 12.2299 6.14062C12.2299 6.14062 12.2299 6.14062 12.2199 6.14062C12.2199 6.14062 12.2199 6.14062 12.2099 6.14062C12.2099 6.14062 12.2099 6.14062 12.1999 6.14062C12.1899 6.14062 12.1999 6.14062 12.1899 6.14062C12.1899 6.14062 12.1899 6.14062 12.1799 6.14062C12.1699 6.14062 12.1799 6.14062 12.1699 6.14062C12.1699 6.14062 12.1699 6.14062 12.1599 6.14062C12.1599 6.14062 12.1599 6.14062 12.1499 6.14062C12.1499 6.14062 12.1499 6.14062 12.1399 6.14062C12.1399 6.14062 12.1399 6.14062 12.1299 6.14062C12.1199 6.14062 12.1299 6.14062 12.1199 6.14062C12.1199 6.14062 12.1199 6.14062 12.1099 6.14062C12.1099 6.14062 12.1099 6.14062 12.0999 6.14062C12.0999 6.14062 12.0999 6.14062 12.0899 6.14062C12.0899 6.14062 12.0899 6.14062 12.0799 6.14062C12.0699 6.14062 12.0799 6.14062 12.0699 6.14062C12.0699 6.14062 12.0699 6.14062 12.0599 6.14062C12.0499 6.14062 12.0599 6.14062 12.0499 6.14062C12.0399 6.14062 12.0499 6.14062 12.0399 6.14062C12.0399 6.14062 12.0399 6.14062 12.0299 6.14062C12.0299 6.14062 12.0299 6.14062 12.0199 6.14062C12.0199 6.14062 12.0199 6.14062 12.0099 6.14062C12.0099 6.14062 12.0099 6.14062 11.9999 6.14062C11.9999 6.14062 11.9999 6.14062 11.9899 6.14062C11.9899 6.14062 11.9899 6.14062 11.9799 6.14062C11.9699 6.14062 11.9799 6.14062 11.9699 6.14062C11.9699 6.14062 11.9699 6.14062 11.9599 6.14062C11.9499 6.14062 11.9599 6.14062 11.9499 6.14062C11.9399 6.14062 11.9499 6.14062 11.9399 6.14062C11.9399 6.14062 11.9399 6.14062 11.9299 6.14062C11.9299 6.14062 11.9299 6.14062 11.9199 6.14062C11.9199 6.14062 11.9199 6.14062 11.9099 6.14062C11.9099 6.14062 11.9099 6.14062 11.8999 6.14062C11.8999 6.14062 11.8999 6.14062 11.8899 6.14062C11.8899 6.14062 11.8899 6.14062 11.8799 6.14062C11.8799 6.14062 11.8799 6.14062 11.8699 6.14062C11.8699 6.14062 11.8699 6.14062 11.8599 6.14062C11.8599 6.14062 11.8599 6.14062 11.8499 6.14062C11.8499 6.14062 11.8499 6.14062 11.8399 6.14062C11.8399 6.14062 11.8399 6.14062 11.8299 6.14062C11.8299 6.14062 11.8299 6.14062 11.8199 6.14062C11.8199 6.14062 11.8199 6.14062 11.8099 6.14062C11.8099 6.14062 11.8099 6.14062 11.7999 6.14062C11.7999 6.14062 11.7999 6.14062 11.7899 6.14062C11.7899 6.14062 11.7899 6.14062 11.7799 6.14062C11.7799 6.14062 11.7799 6.14062 11.7699 6.14062C11.7599 6.14062 11.7699 6.14062 11.7599 6.14062C11.7599 6.14062 11.7599 6.14062 11.7499 6.14062C11.7399 6.14062 11.7499 6.14062 11.7399 6.14062C11.7399 6.14062 11.7399 6.14062 11.7299 6.14062C11.7199 6.14062 11.7299 6.14062 11.7199 6.14062C11.7199 6.14062 11.7199 6.14062 11.7099 6.14062C11.7099 6.14062 11.7099 6.14062 11.6999 6.14062C11.6999 6.14062 11.6999 6.14062 11.6899 6.14062C11.6899 6.14062 11.6899 6.14062 11.6799 6.14062C11.6799 6.14062 11.6799 6.14062 11.6699 6.14062C11.6699 6.14062 11.6699 6.14062 11.6599 6.14062C11.6599 6.14062 11.6599 6.14062 11.6499 6.14062C11.6499 6.14062 11.6499 6.14062 11.6399 6.14062C11.6399 6.14062 11.6399 6.14062 11.6299 6.14062C11.6299 6.14062 11.6299 6.14062 11.6199 6.14062C11.6199 6.14062 11.6199 6.14062 11.6099 6.14062C11.6099 6.14062 11.6099 6.14062 11.5999 6.14062C11.5999 6.14062 11.5999 6.14062 11.5899 6.14062C11.5899 6.14062 11.5899 6.14062 11.5799 6.14062C11.5799 6.14062 11.5799 6.14062 11.5699 6.14062C11.5699 6.14062 11.5699 6.14063 11.5699 6.15063C11.5699 6.16063 11.5699 6.15062 11.5699 6.16062C11.5699 6.16062 11.5699 6.16063 11.5699 6.17063C11.5699 6.18063 11.5699 6.17062 11.5699 6.18062C11.5699 6.18062 11.5699 6.18063 11.5699 6.19063C11.5699 6.19063 11.5699 6.19062 11.5699 6.20062C11.5699 6.20062 11.5699 6.20063 11.5699 6.21063C11.5699 6.21063 11.5699 6.21062 11.5699 6.22062C11.5699 6.22062 11.5699 6.22063 11.5699 6.23063C11.5699 6.23063 11.5699 6.23062 11.5699 6.24062C11.5699 6.24062 11.5699 6.24063 11.5699 6.25063C11.5699 6.25063 11.5699 6.25063 11.5699 6.26063C11.5699 6.26063 11.5699 6.26063 11.5699 6.27063C11.5699 6.27063 11.5699 6.27063 11.5699 6.28063C11.5699 6.28063 11.5699 6.28063 11.5699 6.29063C11.5699 6.29063 11.5699 6.29063 11.5699 6.30063C11.5699 6.30063 11.5699 6.30063 11.5699 6.31063C11.5699 6.31063 11.5699 6.31063 11.5699 6.32063C11.5699 6.32063 11.5699 6.32063 11.5699 6.33063C11.5699 6.33063 11.5699 6.33063 11.5699 6.34063C11.5699 6.34063 11.5699 6.34063 11.5699 6.35063C11.5699 6.36063 11.5699 6.35063 11.5699 6.36063C11.5699 6.36063 11.5699 6.36063 11.5699 6.37063C11.5699 6.38063 11.5699 6.37063 11.5699 6.38063C11.5699 6.38063 11.5699 6.38063 11.5699 6.39062C11.5699 6.39062 11.5699 6.39063 11.5699 6.40063C11.5699 6.41063 11.5699 6.40062 11.5699 6.41062C11.5699 6.41062 11.5699 6.41063 11.5699 6.42063C11.5699 6.42063 11.5699 6.42062 11.5699 6.43062C11.5699 6.43062 11.5699 6.43063 11.5699 6.44063C11.5699 6.44063 11.5699 6.44062 11.5699 6.45062C11.5699 6.45062 11.5699 6.45063 11.5699 6.46063C11.5699 6.46063 11.5699 6.46062 11.5699 6.47062V6.58063V6.69063V6.80063V6.91062V7.02063V7.13063V7.24062V7.35063V7.46063V7.57063V7.68062V7.79063V7.90063V8.01063V8.12063V8.23062V8.34063V8.45062V8.56063V8.67063V8.78062V8.89063V9.00063V9.11062V9.22063V9.33063V9.44062V9.55063V9.66062V9.77063V9.88063V9.99062V10.1006V10.2106V10.3206V10.4306V10.5406V10.6506V10.7606V10.8706V10.9806V11.0906V11.2006V11.3106V11.4206V11.5306V11.6406V11.7506V11.8606V11.9706V12.0806V12.1906V12.3006V12.4106V12.5206V12.6306V12.7406V12.8506V12.9606V13.0706V13.1806V13.2906V13.4006V13.5106C11.5699 13.5106 11.5699 13.5106 11.5599 13.5106C11.5599 13.5106 11.5499 13.5106 11.5399 13.5106C11.5399 13.5106 11.5299 13.5106 11.5199 13.5106C11.5199 13.5106 11.5099 13.5106 11.4999 13.5106C11.4999 13.5106 11.4899 13.5106 11.4799 13.5106C11.4799 13.5106 11.4699 13.5106 11.4599 13.5106C11.4499 13.5106 11.4499 13.5106 11.4399 13.5106C11.4299 13.5106 11.4299 13.5106 11.4199 13.5106C11.4199 13.5106 11.4099 13.5106 11.3999 13.5106C11.3899 13.5106 11.3899 13.5106 11.3799 13.5106C11.3799 13.5106 11.3699 13.5106 11.3599 13.5106C11.3499 13.5106 11.3499 13.5106 11.3399 13.5106C11.3399 13.5106 11.3299 13.5106 11.3199 13.5106C11.3099 13.5106 11.3099 13.5106 11.2999 13.5106C11.2899 13.5106 11.2899 13.5106 11.2799 13.5106C11.2799 13.5106 11.2699 13.5106 11.2599 13.5106C11.2599 13.5106 11.2499 13.5106 11.2399 13.5106C11.2299 13.5106 11.2299 13.5106 11.2199 13.5106C11.2199 13.5106 11.2099 13.5106 11.1999 13.5106C11.1999 13.5106 11.1899 13.5106 11.1799 13.5106C11.1799 13.5106 11.1699 13.5106 11.1599 13.5106C11.1599 13.5106 11.1499 13.5106 11.1399 13.5106C11.1299 13.5106 11.1299 13.5106 11.1199 13.5106C11.1099 13.5106 11.1099 13.5106 11.0999 13.5106C11.0899 13.5106 11.0899 13.5106 11.0799 13.5106C11.0799 13.5106 11.0699 13.5106 11.0599 13.5106C11.0599 13.5106 11.0499 13.5106 11.0399 13.5106C11.0399 13.5106 11.0299 13.5106 11.0199 13.5106C11.0199 13.5106 11.0099 13.5106 10.9999 13.5106C10.9999 13.5106 10.9899 13.5106 10.9799 13.5106C10.9799 13.5106 10.9699 13.5106 10.9599 13.5106C10.9599 13.5106 10.9499 13.5106 10.9399 13.5106C10.9399 13.5106 10.9299 13.5106 10.9199 13.5106C10.9199 13.5106 10.9099 13.5106 10.8999 13.5106C10.8999 13.5106 10.8899 13.5106 10.8799 13.5106C10.8799 13.5106 10.8699 13.5106 10.8599 13.5106C10.8599 13.5106 10.8499 13.5106 10.8399 13.5106C10.8399 13.5106 10.8299 13.5106 10.8199 13.5106C10.8099 13.5106 10.8099 13.5106 10.7999 13.5106C10.7999 13.5106 10.7899 13.5106 10.7799 13.5106C10.7699 13.5106 10.7699 13.5106 10.7599 13.5106C10.7599 13.5106 10.7499 13.5106 10.7399 13.5106C10.7399 13.5106 10.7299 13.5106 10.7199 13.5106C10.7199 13.5106 10.7099 13.5106 10.6999 13.5106C10.6999 13.5106 10.6899 13.5106 10.6799 13.5106C10.6699 13.5106 10.6699 13.5106 10.6599 13.5106C10.6499 13.5106 10.6499 13.5106 10.6399 13.5106C10.6399 13.5106 10.6299 13.5106 10.6199 13.5106C10.6199 13.5106 10.6099 13.5106 10.5999 13.5106C10.5899 13.5106 10.5899 13.5106 10.5799 13.5106C10.5799 13.5106 10.5699 13.5106 10.5599 13.5106C10.5599 13.5106 10.5499 13.5106 10.5399 13.5106C10.5299 13.5106 10.5299 13.5106 10.5199 13.5106C10.5099 13.5106 10.5099 13.5106 10.4999 13.5106C10.4999 13.5106 10.4899 13.5106 10.4799 13.5106C10.4699 13.5106 10.4699 13.5106 10.4599 13.5106C10.4499 13.5106 10.4499 13.5106 10.4399 13.5106C10.4299 13.5106 10.4299 13.5106 10.4199 13.5106C10.4099 13.5106 10.4099 13.5106 10.3999 13.5106C10.3899 13.5106 10.3899 13.5106 10.3799 13.5106C10.3699 13.5106 10.3699 13.5106 10.3599 13.5106C10.3599 13.5106 10.3499 13.5106 10.3399 13.5106C10.3399 13.5106 10.3299 13.5106 10.3199 13.5106C10.3199 13.5106 10.3099 13.5106 10.2999 13.5106C10.2799 13.5106 10.2599 13.5106 10.2399 13.5106C10.2199 13.5106 10.1999 13.5106 10.1799 13.5106C10.1599 13.5106 10.1399 13.5106 10.1199 13.5106C10.0999 13.5106 10.0799 13.5106 10.0599 13.5106C10.0399 13.5106 10.0199 13.5106 9.99988 13.5106C9.97988 13.5106 9.95988 13.5106 9.93988 13.5106C9.91988 13.5106 9.89988 13.5106 9.87988 13.5206C9.85988 13.5306 9.83988 13.5206 9.81988 13.5306C9.79988 13.5306 9.77988 13.5306 9.75988 13.5406C9.73988 13.5406 9.71988 13.5406 9.69988 13.5506C9.67988 13.5506 9.65988 13.5606 9.63988 13.5706C9.61988 13.5806 9.59988 13.5806 9.57988 13.5906C9.55988 13.5906 9.53988 13.6006 9.51988 13.6106C9.49988 13.6106 9.47988 13.6206 9.45988 13.6306C9.43988 13.6406 9.41988 13.6406 9.39988 13.6506C9.37988 13.6506 9.35988 13.6606 9.33988 13.6706C9.31988 13.6806 9.29988 13.6906 9.28988 13.6906C9.26988 13.6906 9.24988 13.7106 9.23988 13.7206C9.21988 13.7206 9.19988 13.7406 9.18988 13.7506C9.16988 13.7506 9.14988 13.7706 9.13988 13.7806C9.11988 13.7806 9.10988 13.8006 9.08988 13.8106C9.06988 13.8206 9.05988 13.8306 9.03988 13.8406C9.01988 13.8506 9.00988 13.8606 8.98988 13.8706C8.96988 13.8806 8.95988 13.8906 8.93988 13.9006C8.91988 13.9106 8.90988 13.9206 8.88988 13.9306C8.86988 13.9406 8.85988 13.9506 8.83988 13.9606C8.81988 13.9706 8.80988 13.9806 8.78988 14.0006C8.76988 14.0106 8.75988 14.0206 8.73988 14.0406C8.71988 14.0506 8.70988 14.0706 8.68988 14.0806C8.67988 14.0906 8.65988 14.1106 8.64988 14.1206C8.63988 14.1306 8.61988 14.1506 8.60988 14.1606C8.59988 14.1706 8.57988 14.1906 8.56988 14.2006C8.55988 14.2106 8.53988 14.2306 8.52988 14.2406C8.51988 14.2506 8.49988 14.2706 8.48988 14.2806C8.47988 14.2906 8.45988 14.3106 8.44988 14.3206C8.43988 14.3306 8.41988 14.3506 8.40988 14.3706C8.39988 14.3906 8.38988 14.4006 8.36988 14.4206C8.35988 14.4406 8.34988 14.4506 8.32988 14.4706C8.31988 14.4906 8.30988 14.5006 8.29988 14.5206C8.28988 14.5406 8.27988 14.5506 8.26988 14.5706C8.25988 14.5906 8.24988 14.6006 8.23988 14.6206C8.22988 14.6406 8.21988 14.6506 8.20988 14.6706C8.19988 14.6906 8.18988 14.7006 8.17988 14.7206C8.17988 14.7406 8.15988 14.7506 8.14988 14.7706C8.14988 14.7906 8.12988 14.8006 8.11988 14.8206C8.11988 14.8406 8.09988 14.8606 8.08988 14.8706C8.08988 14.8906 8.06988 14.9106 8.05988 14.9206C8.05988 14.9406 8.03988 14.9606 8.03988 14.9706C8.03988 14.9806 8.01988 15.0106 8.01988 15.0306C8.01988 15.0506 8.00988 15.0706 7.99988 15.0906C7.99988 15.1106 7.98988 15.1306 7.97988 15.1506C7.97988 15.1706 7.96988 15.1906 7.95988 15.2106C7.95988 15.2306 7.94988 15.2506 7.93988 15.2706C7.93988 15.2906 7.92988 15.3106 7.91988 15.3306C7.91988 15.3506 7.91988 15.3706 7.90988 15.3906C7.90988 15.4106 7.90988 15.4306 7.89988 15.4506C7.89988 15.4706 7.89988 15.4906 7.88988 15.5106C7.88988 15.5306 7.88988 15.5506 7.87988 15.5706C7.87988 15.5906 7.87988 15.6106 7.87988 15.6306C7.87988 15.6506 7.87988 15.6706 7.87988 15.6906C7.87988 15.7106 7.87988 15.7306 7.87988 15.7506C7.87988 15.7706 7.87988 15.7906 7.87988 15.8106C7.87988 15.8306 7.87988 15.8506 7.87988 15.8706C7.87988 15.8906 7.87988 15.9106 7.87988 15.9306C7.87988 15.9506 7.87988 15.9706 7.87988 15.9906C7.87988 16.0106 7.87988 16.0306 7.87988 16.0506C7.87988 16.0706 7.87988 16.0906 7.87988 16.1106C7.87988 16.1306 7.87988 16.1506 7.87988 16.1706C7.87988 16.1906 7.87988 16.2106 7.87988 16.2306C7.87988 16.2506 7.87988 16.2706 7.87988 16.2906C7.87988 16.3106 7.87988 16.3306 7.88988 16.3506C7.89988 16.3706 7.88988 16.3906 7.89988 16.4106C7.89988 16.4306 7.89988 16.4506 7.90988 16.4706C7.90988 16.4906 7.90988 16.5106 7.91988 16.5306C7.91988 16.5506 7.92988 16.5706 7.93988 16.5906C7.94988 16.6106 7.94988 16.6306 7.95988 16.6506C7.95988 16.6706 7.96988 16.6906 7.97988 16.7106C7.97988 16.7306 7.98988 16.7506 7.99988 16.7706C7.99988 16.7906 8.00988 16.8106 8.01988 16.8306C8.01988 16.8506 8.02988 16.8706 8.03988 16.8906C8.04988 16.9106 8.05988 16.9306 8.05988 16.9406C8.05988 16.9606 8.07988 16.9806 8.08988 16.9906C8.08988 17.0106 8.10988 17.0306 8.11988 17.0406C8.11988 17.0606 8.13988 17.0806 8.14988 17.0906C8.14988 17.1106 8.16988 17.1206 8.17988 17.1406C8.18988 17.1606 8.19988 17.1706 8.20988 17.1906C8.21988 17.2106 8.22988 17.2206 8.23988 17.2406C8.24988 17.2606 8.25988 17.2706 8.26988 17.2906C8.27988 17.3106 8.28988 17.3206 8.29988 17.3406C8.30988 17.3606 8.31988 17.3706 8.32988 17.3906C8.33988 17.4106 8.34988 17.4206 8.36988 17.4406C8.38988 17.4606 8.38988 17.4706 8.40988 17.4906C8.42988 17.5106 8.43988 17.5206 8.44988 17.5406C8.45988 17.5506 8.47988 17.5706 8.48988 17.5806C8.49988 17.5906 8.51988 17.6106 8.52988 17.6206C8.53988 17.6306 8.55988 17.6506 8.56988 17.6606C8.57988 17.6706 8.59988 17.6906 8.60988 17.7006C8.61988 17.7106 8.63988 17.7306 8.64988 17.7406C8.65988 17.7506 8.67988 17.7706 8.68988 17.7806C8.69988 17.7906 8.71988 17.8106 8.73988 17.8206C8.75988 17.8306 8.76988 17.8406 8.78988 17.8606C8.80988 17.8706 8.81988 17.8806 8.83988 17.9006C8.85988 17.9106 8.86988 17.9206 8.88988 17.9306C8.90988 17.9406 8.91988 17.9506 8.93988 17.9606C8.95988 17.9706 8.96988 17.9806 8.98988 17.9906C9.00988 18.0006 9.01988 18.0106 9.03988 18.0206C9.05988 18.0306 9.06988 18.0406 9.08988 18.0506C9.10988 18.0606 9.11988 18.0706 9.13988 18.0806C9.15988 18.0806 9.16988 18.1006 9.18988 18.1106C9.20988 18.1106 9.22988 18.1306 9.23988 18.1406C9.25988 18.1406 9.27988 18.1606 9.28988 18.1706C9.30988 18.1706 9.32988 18.1906 9.33988 18.1906C9.35988 18.1906 9.37988 18.2106 9.39988 18.2106C9.41988 18.2106 9.43988 18.2206 9.45988 18.2306C9.47988 18.2406 9.49988 18.2406 9.51988 18.2506C9.53988 18.2506 9.55988 18.2606 9.57988 18.2706C9.59988 18.2706 9.61988 18.2806 9.63988 18.2906C9.65988 18.2906 9.67988 18.3006 9.69988 18.3106C9.71988 18.3106 9.73988 18.3106 9.75988 18.3206C9.77988 18.3206 9.79988 18.3206 9.81988 18.3306C9.83988 18.3306 9.85988 18.3306 9.87988 18.3406C9.89988 18.3506 9.91988 18.3406 9.93988 18.3506C9.95988 18.3506 9.97988 18.3506 9.99988 18.3506C10.0199 18.3506 10.0399 18.3506 10.0599 18.3506C10.0799 18.3506 10.0999 18.3506 10.1199 18.3506C10.1399 18.3506 10.1599 18.3506 10.1799 18.3506C10.1999 18.3506 10.2199 18.3506 10.2399 18.3506C10.2599 18.3506 10.2799 18.3506 10.2999 18.3506C10.3399 18.3506 10.3699 18.3506 10.4099 18.3506C10.4399 18.3506 10.4799 18.3506 10.5099 18.3506C10.5399 18.3506 10.5799 18.3506 10.6099 18.3506C10.6399 18.3506 10.6699 18.3506 10.7099 18.3406C10.7399 18.3406 10.7699 18.3406 10.7999 18.3306C10.8299 18.3306 10.8599 18.3206 10.8899 18.3106C10.9199 18.3106 10.9499 18.3006 10.9799 18.2906C11.0099 18.2906 11.0399 18.2806 11.0699 18.2706C11.0999 18.2706 11.1299 18.2506 11.1499 18.2506C11.1799 18.2506 11.1999 18.2306 11.2299 18.2206C11.2599 18.2206 11.2799 18.2006 11.3099 18.1906C11.3399 18.1806 11.3599 18.1706 11.3799 18.1606C11.3999 18.1506 11.4299 18.1406 11.4499 18.1306C11.4699 18.1206 11.4999 18.1106 11.5199 18.0906C11.5399 18.0806 11.5699 18.0606 11.5899 18.0506C11.6099 18.0406 11.6299 18.0206 11.6499 18.0106C11.6699 18.0006 11.6899 17.9806 11.7099 17.9706C11.7299 17.9606 11.7499 17.9406 11.7699 17.9306C11.7899 17.9206 11.8099 17.9006 11.8299 17.8906C11.8499 17.8706 11.8699 17.8606 11.8899 17.8406C11.9099 17.8206 11.9299 17.8106 11.9399 17.7906C11.9599 17.7706 11.9699 17.7606 11.9899 17.7406C12.0099 17.7206 12.0199 17.7106 12.0399 17.6906C12.0599 17.6706 12.0699 17.6606 12.0899 17.6406C12.1099 17.6206 12.1199 17.6106 12.1299 17.5906C12.1399 17.5706 12.1599 17.5606 12.1699 17.5406C12.1799 17.5206 12.1999 17.5006 12.2099 17.4906C12.2199 17.4706 12.2399 17.4506 12.2499 17.4406C12.2599 17.4206 12.2699 17.4006 12.2899 17.3906C12.2999 17.3706 12.3099 17.3506 12.3299 17.3406C12.3399 17.3206 12.3499 17.3006 12.3599 17.2806C12.3699 17.2606 12.3799 17.2406 12.3899 17.2206C12.3999 17.2006 12.4099 17.1806 12.4199 17.1606C12.4199 17.1406 12.4399 17.1206 12.4499 17.1006C12.4499 17.0806 12.4699 17.0606 12.4799 17.0406C12.4899 17.0206 12.4999 17.0006 12.5099 16.9806C12.5099 16.9606 12.5299 16.9406 12.5299 16.9206C12.5299 16.9006 12.5499 16.8806 12.5499 16.8706C12.5499 16.8506 12.5599 16.8306 12.5699 16.8206C12.5699 16.8006 12.5799 16.7806 12.5899 16.7706C12.5899 16.7506 12.5999 16.7306 12.6099 16.7206C12.6099 16.7006 12.6199 16.6906 12.6299 16.6706C12.6299 16.6506 12.6399 16.6406 12.6499 16.6206C12.6499 16.6006 12.6499 16.5906 12.6599 16.5706C12.6599 16.5506 12.6599 16.5406 12.6699 16.5206C12.6799 16.5006 12.6699 16.4906 12.6799 16.4706C12.6799 16.4506 12.6799 16.4406 12.6899 16.4206C12.6899 16.4006 12.6899 16.3906 12.6999 16.3706C12.6999 16.3606 12.6999 16.3406 12.6999 16.3306C12.6999 16.3206 12.6999 16.3006 12.6999 16.2906C12.6999 16.2806 12.6999 16.2606 12.6999 16.2506C12.6999 16.2406 12.6999 16.2206 12.6999 16.2106C12.6999 16.2006 12.6999 16.1806 12.6999 16.1706C12.6999 16.1606 12.6999 16.1506 12.6999 16.1306C12.6999 16.1206 12.6999 16.1106 12.6999 16.1006C12.6999 16.0906 12.6999 16.0806 12.6999 16.0706C12.6999 16.0706 12.6999 16.0506 12.6999 16.0406C12.6999 16.0406 12.6999 16.0206 12.6999 16.0106V15.9906C12.6999 15.9906 12.6999 15.9806 12.6999 15.9706C12.6999 15.9706 12.6999 15.9606 12.6999 15.9506C12.6999 15.9406 12.6999 15.9406 12.6999 15.9306C12.6999 15.9306 12.6999 15.9306 12.6999 15.9206V15.8006V15.6806V15.5606V15.4406V15.3206V15.2006V15.0806V14.9606V14.8406V14.7206V14.6006V14.4806V14.3606V14.2406V14.1206V14.0006V13.8806V13.7606V13.6406V13.5206V13.4006V13.2806V13.1606V13.0406V12.9206V12.8006V12.6806V12.5606V12.4406V12.3206V12.2006V12.0806V11.9606V11.8406V11.7206V11.6006V11.4806V11.3606V11.2406V11.1206V11.0006V10.8806V10.7606V10.6406V10.5206V10.4006V10.2806V10.1606V10.0406V9.92063V9.80063V9.68063V9.56063V9.44062V9.32062V9.20062V9.08063V8.96063V8.84063V8.72063V8.60063V8.48062V8.36062V8.24062L12.7399 8.27063L12.7799 8.30063L12.8199 8.33063L12.8599 8.36062L12.8999 8.39063L12.9399 8.42063L12.9799 8.45062L13.0199 8.48062L13.0599 8.51063L13.0999 8.54063L13.1399 8.57062L13.1799 8.60063L13.2199 8.63063L13.2599 8.66062L13.2999 8.69062L13.3399 8.72063L13.3799 8.75063L13.4199 8.78062L13.4599 8.81063L13.4999 8.84063L13.5399 8.87063L13.5799 8.90062L13.6199 8.93063L13.6599 8.96063L13.6999 8.99062L13.7399 9.02063L13.7799 9.05063L13.8199 9.08063L13.8599 9.11062L13.8999 9.14063L13.9399 9.17063L13.9799 9.20062L14.0199 9.23062L14.0599 9.26063L14.0999 9.29063L14.1399 9.32062L14.1799 9.35063L14.2199 9.38063L14.2599 9.41062L14.2999 9.44062L14.3399 9.47063L14.3799 9.50063L14.4199 9.53062L14.4599 9.56063L14.4999 9.59063L14.5399 9.62063L14.5799 9.65062L14.6199 9.68063L14.6599 9.71063L14.6999 9.74062L14.7399 9.77063L14.7799 9.80063L14.8199 9.83063L14.8599 9.86062L14.8999 9.89063L14.9399 9.92063L14.9799 9.95062L15.0199 9.98062L15.0599 10.0106L15.0999 10.0406L15.1399 10.0706L15.1799 10.1006L15.2199 10.1306L15.2599 10.1606C15.2599 10.1606 15.2599 10.1606 15.2699 10.1706C15.2699 10.1706 15.2799 10.1706 15.2899 10.1706C15.2899 10.1706 15.2999 10.1706 15.3099 10.1706C15.3099 10.1706 15.3199 10.1706 15.3299 10.1706C15.3299 10.1706 15.3399 10.1706 15.3499 10.1706C15.3499 10.1706 15.3599 10.1706 15.3699 10.1706C15.3699 10.1706 15.3799 10.1706 15.3899 10.1706C15.3999 10.1706 15.3999 10.1706 15.4099 10.1706C15.4099 10.1706 15.4199 10.1706 15.4299 10.1706C15.4299 10.1706 15.4399 10.1706 15.4499 10.1706C15.4499 10.1706 15.4599 10.1706 15.4699 10.1706C15.4699 10.1706 15.4799 10.1706 15.4899 10.1706C15.4899 10.1706 15.4999 10.1706 15.5099 10.1706C15.5199 10.1706 15.5199 10.1706 15.5299 10.1706C15.5299 10.1706 15.5399 10.1706 15.5499 10.1706C15.5499 10.1706 15.5599 10.1706 15.5699 10.1706C15.5699 10.1706 15.5799 10.1706 15.5899 10.1706C15.5899 10.1706 15.5999 10.1706 15.6099 10.1706C15.6099 10.1706 15.6199 10.1706 15.6299 10.1706C15.6399 10.1706 15.6399 10.1706 15.6499 10.1706C15.6599 10.1706 15.6599 10.1706 15.6699 10.1706C15.6699 10.1706 15.6799 10.1706 15.6899 10.1706C15.6899 10.1706 15.6999 10.1706 15.7099 10.1706C15.7199 10.1706 15.7199 10.1706 15.7299 10.1706C15.7299 10.1706 15.7399 10.1706 15.7499 10.1706C15.7499 10.1706 15.7599 10.1706 15.7699 10.1706C15.7799 10.1706 15.7799 10.1706 15.7899 10.1706C15.7899 10.1706 15.7999 10.1706 15.8099 10.1706C15.8099 10.1706 15.8199 10.1706 15.8299 10.1706C15.8399 10.1706 15.8399 10.1706 15.8499 10.1706C15.8499 10.1706 15.8599 10.1706 15.8699 10.1706C15.8699 10.1706 15.8799 10.1706 15.8899 10.1706C15.8899 10.1706 15.8999 10.1706 15.9099 10.1706C15.9099 10.1706 15.9199 10.1706 15.9299 10.1706C15.9399 10.1706 15.9399 10.1706 15.9499 10.1706C15.9499 10.1706 15.9599 10.1706 15.9699 10.1706C15.9699 10.1706 15.9799 10.1706 15.9899 10.1706C15.9899 10.1706 15.9999 10.1706 16.0099 10.1706C16.0099 10.1706 16.0199 10.1706 16.0299 10.1706C16.0299 10.1706 16.0399 10.1706 16.0499 10.1706C16.0599 10.1706 16.0599 10.1706 16.0699 10.1706C16.0799 10.1706 16.0799 10.1706 16.0899 10.1706C16.0899 10.1706 16.0999 10.1706 16.1099 10.1706C16.1099 10.1706 16.1199 10.1706 16.1299 10.1706C16.1299 10.1706 16.1399 10.1706 16.1499 10.1706C16.1499 10.1706 16.1499 10.1706 16.1599 10.1706C16.1699 10.1706 16.1599 10.1706 16.1699 10.1706C16.1799 10.1706 16.1699 10.1706 16.1799 10.1706C16.1799 10.1706 16.1799 10.1706 16.1899 10.1706C16.1899 10.1706 16.1899 10.1706 16.1999 10.1706C16.2099 10.1706 16.1999 10.1706 16.2099 10.1606C16.2099 10.1606 16.2099 10.1606 16.2199 10.1506C16.2199 10.1506 16.2199 10.1506 16.2299 10.1406C16.2299 10.1406 16.2299 10.1406 16.2399 10.1306C16.2399 10.1306 16.2399 10.1306 16.2499 10.1206C16.2499 10.1206 16.2499 10.1206 16.2599 10.1106C16.2699 10.1006 16.2599 10.1106 16.2699 10.1006C16.2699 10.1006 16.2699 10.1006 16.2799 10.0906C16.2799 10.0906 16.2799 10.0906 16.2899 10.0806C16.2899 10.0806 16.2899 10.0806 16.2999 10.0706C16.2999 10.0706 16.2999 10.0706 16.3099 10.0606C16.3199 10.0506 16.3099 10.0606 16.3199 10.0506C16.3199 10.0506 16.3199 10.0506 16.3299 10.0406C16.3299 10.0406 16.3299 10.0406 16.3399 10.0306C16.3399 10.0306 16.3399 10.0306 16.3499 10.0206C16.3499 10.0206 16.3499 10.0106 16.3499 10.0006C16.3499 10.0006 16.3499 9.99062 16.3499 9.98062C16.3499 9.98062 16.3499 9.97063 16.3499 9.96063C16.3499 9.96063 16.3499 9.95062 16.3499 9.94062C16.3499 9.94062 16.3499 9.93063 16.3499 9.92063C16.3499 9.92063 16.3499 9.91062 16.3499 9.90062C16.3499 9.90062 16.3499 9.89063 16.3499 9.88063C16.3499 9.88063 16.3499 9.87062 16.3499 9.86062C16.3499 9.86062 16.3499 9.85063 16.3499 9.84063C16.3499 9.83063 16.3499 9.83062 16.3499 9.82062C16.3499 9.82062 16.3499 9.81063 16.3499 9.80063C16.3499 9.80063 16.3499 9.79062 16.3499 9.78062C16.3499 9.77062 16.3499 9.77063 16.3499 9.76063C16.3499 9.75063 16.3499 9.75062 16.3499 9.74062C16.3499 9.74062 16.3499 9.73063 16.3499 9.72063C16.3499 9.71063 16.3499 9.71062 16.3499 9.70062C16.3499 9.70062 16.3499 9.69063 16.3499 9.68063C16.3499 9.68063 16.3499 9.67062 16.3499 9.66062C16.3499 9.66062 16.3499 9.65063 16.3499 9.64063C16.3499 9.64063 16.3499 9.63063 16.3499 9.62063C16.3499 9.62063 16.3499 9.61063 16.3499 9.60063C16.3499 9.60063 16.3499 9.59063 16.3499 9.58063C16.3499 9.58063 16.3499 9.57063 16.3499 9.56063C16.3499 9.55063 16.3499 9.55063 16.3499 9.54063C16.3499 9.54063 16.3499 9.53063 16.3499 9.52063C16.3499 9.52063 16.3499 9.51063 16.3499 9.50063C16.3499 9.50063 16.3499 9.49062 16.3499 9.48062C16.3499 9.48062 16.3499 9.47063 16.3499 9.46063C16.3499 9.45063 16.3499 9.45062 16.3499 9.44062C16.3499 9.44062 16.3499 9.43063 16.3499 9.42063C16.3499 9.41063 16.3499 9.41062 16.3499 9.40062C16.3499 9.40062 16.3499 9.39063 16.3499 9.38063C16.3499 9.38063 16.3499 9.37062 16.3499 9.36062C16.3499 9.36062 16.3499 9.35063 16.3499 9.34063C16.3499 9.34063 16.3499 9.33062 16.3499 9.32062C16.3499 9.32062 16.3499 9.31063 16.3499 9.30063C16.3499 9.30063 16.3499 9.29062 16.3499 9.28062C16.3499 9.28062 16.3499 9.27063 16.3499 9.26063C16.3499 9.26063 16.3499 9.25062 16.3499 9.24062C16.3499 9.24062 16.3499 9.23063 16.3499 9.22063C16.3499 9.21063 16.3499 9.21062 16.3499 9.20062C16.3499 9.20062 16.3499 9.19063 16.3499 9.18063C16.3499 9.18063 16.3499 9.17062 16.3499 9.16062C16.3499 9.16062 16.3499 9.15063 16.3499 9.14063C16.3499 9.13063 16.3499 9.14063 16.3499 9.13063C16.3499 9.13063 16.3499 9.13063 16.3499 9.12063C16.3499 9.11063 16.3499 9.12062 16.3499 9.11062C16.3499 9.10062 16.3499 9.11063 16.3499 9.10063C16.3499 9.10063 16.3499 9.10063 16.3499 9.09063C16.3499 9.08063 16.3499 9.09063 16.3399 9.08063C16.3399 9.08063 16.3399 9.08062 16.3299 9.07062C16.3299 9.07062 16.3299 9.07063 16.3199 9.06063C16.3199 9.06063 16.3199 9.06063 16.3099 9.05063C16.3099 9.05063 16.3099 9.05063 16.2999 9.04063C16.2999 9.04063 16.2999 9.04062 16.2899 9.03062C16.2899 9.03062 16.2899 9.03063 16.2799 9.02063C16.2799 9.02063 16.2799 9.02063 16.2699 9.01063C16.2599 9.00063 16.2699 9.01063 16.2599 9.00063C16.2599 9.00063 16.2599 9.00062 16.2499 8.99062C16.2499 8.99062 16.2499 8.99062 16.2399 8.98062C16.2299 8.97062 16.2399 8.98063 16.2299 8.97063C16.2299 8.97063 16.2299 8.97063 16.2199 8.96063C16.2199 8.96063 16.2199 8.96062 16.2099 8.95062L16.1199 8.70062Z" fill="white"/>
<path d="M3.58984 4.65156L3.60984 4.64156L3.62984 4.62156L3.63984 4.61156L3.65984 4.59156L3.67984 4.57156L3.68984 4.56156L3.70984 4.54156L3.72984 4.52156L3.73984 4.51156L3.75984 4.49156L3.77984 4.47156L3.78984 4.46156L3.80984 4.44156L3.82984 4.42156L3.83984 4.41156L3.85984 4.39156L3.87984 4.37156L3.88984 4.36156L3.90984 4.34156L3.92984 4.32156L3.93984 4.31156L3.95984 4.29156L3.97984 4.27156L3.98984 4.26156L4.00984 4.24156L4.01984 4.22156L4.03984 4.21156L4.05984 4.19156L4.06984 4.18156L4.08984 4.16156L4.10984 4.14156L4.11984 4.13156L4.13984 4.11156L4.15984 4.09156L4.16984 4.08156L4.18984 4.06156L4.20984 4.04156L4.21984 4.03156L4.23984 4.01156L4.25984 3.99156L4.26984 3.98156L4.28984 3.96156L4.30984 3.94156L4.31984 3.93156L4.33984 3.91156L4.35984 3.89156L4.36984 3.88156L4.38984 3.86156L4.40984 3.84156L4.41984 3.83156L4.43984 3.81156L4.44984 3.79156L4.46984 3.78156L4.48984 3.76156L4.49984 3.75156L4.51984 3.73156L4.53984 3.71156L4.54984 3.70156L4.56984 3.68156L4.58984 3.66156L4.59984 3.65156L4.61984 3.63156L4.63984 3.61156L4.64984 3.60156L4.89984 3.84156L5.14984 4.09156L5.38984 4.33156L5.63984 4.58156L5.87984 4.83156L6.12984 5.07156L6.37984 5.32156L6.61984 5.56156L6.86984 5.81156L7.10984 6.06156L7.35984 6.30156L7.60984 6.55156L7.84984 6.80156L8.09984 7.04156L8.33984 7.29156L8.58984 7.53156L8.83984 7.78156L9.07984 8.03156L9.32984 8.27156L9.56984 8.52156L9.81984 8.76156L10.0698 9.01156L10.3098 9.26156L10.5598 9.50156L10.8098 9.75156L11.0498 9.99156L11.2998 10.2416L11.5398 10.4916L11.7898 10.7316L12.0398 10.9816L12.2798 11.2216L12.5298 11.4716L12.7698 11.7216L13.0198 11.9616L13.2698 12.2116L13.5098 12.4516L13.7598 12.7016L13.9998 12.9516L14.2498 13.1916L14.4998 13.4416L14.7398 13.6916L14.9898 13.9316L15.2298 14.1816L15.4798 14.4216L15.7298 14.6716L15.9698 14.9216L16.2198 15.1616L16.4598 15.4116L16.7098 15.6516L16.9598 15.9016L17.1998 16.1516L17.4498 16.3916L17.6998 16.6416L17.9398 16.8816L18.1898 17.1316L18.4298 17.3816L18.6798 17.6216L18.9298 17.8716L19.1698 18.1116L19.4198 18.3616L19.6598 18.6116L19.9098 18.8516L20.1598 19.1016L20.3998 19.3516L20.3898 19.3616L20.3698 19.3816L20.3498 19.3916L20.3398 19.4116L20.3198 19.4316L20.2998 19.4416L20.2898 19.4616L20.2698 19.4816L20.2498 19.4916L20.2398 19.5116L20.2198 19.5316L20.1998 19.5416L20.1898 19.5616L20.1698 19.5816L20.1498 19.5916L20.1398 19.6116L20.1198 19.6316L20.0998 19.6416L20.0898 19.6616L20.0698 19.6816L20.0498 19.6916L20.0398 19.7116L20.0198 19.7316L20.0098 19.7416L19.9898 19.7616L19.9698 19.7816L19.9598 19.7916L19.9398 19.8116L19.9198 19.8216L19.9098 19.8416L19.8898 19.8616L19.8698 19.8716L19.8598 19.8916L19.8398 19.9116L19.8198 19.9216L19.8098 19.9416L19.7898 19.9616L19.7698 19.9716L19.7598 19.9916L19.7398 20.0116L19.7198 20.0216L19.7098 20.0416L19.6898 20.0616L19.6698 20.0716L19.6598 20.0916L19.6398 20.1116L19.6198 20.1216L19.6098 20.1416L19.5898 20.1616L19.5798 20.1716L19.5598 20.1916L19.5398 20.2116L19.5298 20.2216L19.5098 20.2416L19.4898 20.2516L19.4798 20.2716L19.4598 20.2916L19.4398 20.3016L19.4298 20.3216L19.4098 20.3416L19.3898 20.3516L19.3798 20.3716L19.3598 20.3916L19.3398 20.4016L19.0998 20.1616L18.8498 19.9116L18.6098 19.6716L18.3598 19.4216L18.1098 19.1716L17.8698 18.9316L17.6198 18.6816L17.3698 18.4416L17.1298 18.1916L16.8798 17.9416L16.6398 17.7016L16.3898 17.4516L16.1398 17.2016L15.8998 16.9616L15.6498 16.7116L15.4098 16.4716L15.1598 16.2216L14.9098 15.9716L14.6698 15.7316L14.4198 15.4816L14.1798 15.2416L13.9298 14.9916L13.6798 14.7416L13.4398 14.5016L13.1898 14.2516L12.9498 14.0116L12.6998 13.7616L12.4498 13.5116L12.2098 13.2716L11.9598 13.0216L11.7198 12.7816L11.4698 12.5316L11.2198 12.2816L10.9798 12.0416L10.7298 11.7916L10.4798 11.5416L10.2398 11.3016L9.98984 11.0516L9.74984 10.8116L9.49984 10.5616L9.24984 10.3116L9.00984 10.0716L8.75984 9.82156L8.51984 9.58156L8.26984 9.33156L8.01984 9.08156L7.77984 8.84156L7.52984 8.59156L7.28984 8.35156L7.03984 8.10156L6.78984 7.85156L6.54984 7.61156L6.29984 7.36156L6.05984 7.12156L5.80984 6.87156L5.55984 6.62156L5.31984 6.38156L5.06984 6.13156L4.82984 5.89156L4.57984 5.64156L4.32984 5.39156L4.08984 5.15156L3.83984 4.90156L3.58984 4.65156Z" fill="white"/>
</g>
<defs>
<clipPath id="clip0_1088_10392">
<rect width="24" height="24" fill="white"/>
</clipPath>
</defs>
</svg>
