<svg width="24" height="24" viewBox="0 0 24 24" fill="none" xmlns="http://www.w3.org/2000/svg">
<g clip-path="url(#clip0_1088_10379)">
<path d="M1.5 12C1.5 11.91 1.5 11.82 1.5 11.73C1.5 11.64 1.49999 11.55 1.50999 11.46C1.50999 11.37 1.52 11.28 1.53 11.19C1.53 11.1 1.53999 11.01 1.54999 10.92C1.54999 10.83 1.57 10.74 1.58 10.66C1.59 10.57 1.6 10.49 1.62 10.4C1.63 10.31 1.64999 10.23 1.65999 10.14C1.67999 10.05 1.68999 9.97 1.70999 9.88C1.72999 9.79 1.74999 9.71 1.76999 9.62C1.78999 9.54 1.81 9.45 1.83 9.37C1.85 9.29 1.86999 9.2 1.89999 9.12C1.91999 9.04 1.95 8.95 1.97 8.87C1.99 8.79 2.01999 8.71 2.04999 8.62C2.07999 8.54 2.11 8.46 2.14 8.38C2.17 8.3 2.2 8.22 2.23 8.14C2.26 8.06 2.29 7.98 2.33 7.9C2.36 7.82 2.39999 7.74 2.42999 7.67C2.46999 7.59 2.49999 7.52 2.53999 7.44C2.57999 7.36 2.60999 7.29 2.64999 7.21C2.68999 7.13 2.72999 7.06 2.76999 6.99C2.80999 6.92 2.85 6.84 2.89 6.77C2.93 6.7 2.97999 6.62 3.01999 6.55C3.05999 6.48 3.10999 6.41 3.14999 6.34C3.19999 6.27 3.23999 6.2 3.28999 6.13C3.33999 6.06 3.38999 5.99 3.42999 5.92C3.47999 5.85 3.53 5.78 3.58 5.72C3.63 5.65 3.68 5.59 3.73 5.52C3.78 5.45 3.83 5.39 3.89 5.32C3.94 5.26 3.99999 5.19 4.04999 5.13C4.10999 5.07 4.16 5 4.22 4.94C4.28 4.88 4.33 4.82 4.39 4.76C4.45 4.7 4.50999 4.64 4.56999 4.58C4.62999 4.52 4.69 4.46 4.75 4.4C4.81 4.34 4.86999 4.28 4.92999 4.23C4.98999 4.17 5.06 4.12 5.12 4.06C5.18 4 5.25 3.95 5.31 3.9C5.37 3.85 5.43999 3.79 5.50999 3.74C5.57999 3.69 5.63999 3.64 5.70999 3.59C5.77999 3.54 5.84999 3.49 5.90999 3.44C5.97999 3.39 6.05 3.34 6.12 3.3C6.19 3.25 6.26 3.21 6.33 3.16C6.4 3.11 6.46999 3.07 6.53999 3.03C6.60999 2.99 6.67999 2.94 6.75999 2.9C6.83999 2.86 6.91 2.82 6.98 2.78C7.05 2.74 7.13 2.7 7.2 2.66C7.28 2.62 7.34999 2.58 7.42999 2.55C7.50999 2.51 7.57999 2.48 7.65999 2.44C7.73999 2.4 7.82 2.37 7.89 2.34C7.97 2.31 8.04999 2.27 8.12999 2.24C8.20999 2.21 8.29 2.18 8.37 2.15C8.45 2.12 8.53 2.09 8.61 2.06C8.69 2.03 8.77 2.01 8.86 1.98C8.94 1.95 9.02 1.93 9.11 1.91C9.19 1.89 9.28 1.86 9.36 1.84C9.44 1.82 9.53 1.8 9.61 1.78C9.69 1.76 9.78 1.74 9.87 1.72C9.96 1.7 10.04 1.69 10.13 1.67C10.22 1.65 10.3 1.64 10.39 1.63C10.48 1.62 10.56 1.6 10.65 1.59C10.74 1.58 10.83 1.57 10.91 1.56C11 1.56 11.09 1.54 11.18 1.54C11.27 1.54 11.36 1.53 11.45 1.52C11.54 1.51 11.63 1.52 11.72 1.51C11.81 1.5 11.9 1.51 11.99 1.51C12.08 1.51 12.17 1.51 12.26 1.51C12.35 1.51 12.44 1.51 12.53 1.52C12.62 1.52 12.71 1.53 12.8 1.54C12.89 1.54 12.98 1.55 13.07 1.56C13.16 1.56 13.25 1.58 13.33 1.59C13.42 1.6 13.5 1.61 13.59 1.63C13.68 1.64 13.76 1.66 13.85 1.67C13.94 1.69 14.02 1.7 14.11 1.72C14.2 1.74 14.28 1.76 14.37 1.78C14.45 1.8 14.54 1.82 14.62 1.84C14.7 1.86 14.79 1.88 14.87 1.91C14.95 1.93 15.04 1.96 15.12 1.98C15.2 2.01 15.28 2.03 15.37 2.06C15.46 2.09 15.53 2.12 15.61 2.15C15.69 2.18 15.77 2.21 15.85 2.24C15.93 2.27 16.01 2.3 16.09 2.34C16.17 2.37 16.25 2.41 16.32 2.44C16.39 2.47 16.47 2.51 16.55 2.55C16.63 2.59 16.7 2.62 16.78 2.66C16.86 2.7 16.93 2.74 17 2.78C17.07 2.82 17.15 2.86 17.22 2.9C17.29 2.94 17.37 2.99 17.44 3.03C17.51 3.07 17.58 3.12 17.65 3.16C17.72 3.21 17.79 3.25 17.86 3.3C17.93 3.35 18 3.4 18.07 3.44C18.14 3.49 18.21 3.54 18.27 3.59C18.34 3.64 18.4 3.69 18.47 3.74C18.54 3.79 18.6 3.84 18.67 3.9C18.73 3.95 18.8 4.01 18.86 4.06C18.92 4.12 18.99 4.17 19.05 4.23C19.11 4.29 19.17 4.34 19.23 4.4C19.29 4.46 19.35 4.52 19.41 4.58C19.47 4.64 19.53 4.7 19.59 4.76C19.65 4.82 19.71 4.88 19.76 4.94C19.82 5 19.87 5.07 19.93 5.13C19.99 5.19 20.04 5.26 20.09 5.32C20.14 5.38 20.2 5.45 20.25 5.52C20.3 5.59 20.35 5.65 20.4 5.72C20.45 5.79 20.5 5.86 20.55 5.92C20.6 5.99 20.65 6.06 20.69 6.13C20.74 6.2 20.78 6.27 20.83 6.34C20.88 6.41 20.92 6.48 20.96 6.55C21 6.62 21.05 6.69 21.09 6.77C21.13 6.85 21.17 6.92 21.21 6.99C21.25 7.06 21.29 7.14 21.33 7.21C21.37 7.28 21.41 7.36 21.44 7.44C21.48 7.52 21.51 7.59 21.55 7.67C21.59 7.75 21.62 7.83 21.65 7.9C21.68 7.98 21.72 8.06 21.75 8.14C21.78 8.22 21.81 8.3 21.84 8.38C21.87 8.46 21.9 8.54 21.93 8.62C21.96 8.7 21.98 8.78 22.01 8.87C22.04 8.96 22.06 9.03 22.08 9.12C22.1 9.2 22.13 9.29 22.15 9.37C22.17 9.45 22.19 9.54 22.21 9.62C22.23 9.7 22.25 9.79 22.27 9.88C22.29 9.97 22.3 10.05 22.32 10.14C22.34 10.23 22.35 10.31 22.36 10.4C22.37 10.49 22.39 10.57 22.4 10.66C22.41 10.75 22.42 10.84 22.43 10.92C22.43 11.01 22.45 11.1 22.45 11.19C22.45 11.28 22.46 11.37 22.47 11.46C22.47 11.55 22.47 11.64 22.48 11.73C22.49 11.82 22.48 11.91 22.48 12C22.48 12.09 22.48 12.18 22.48 12.27C22.48 12.36 22.48 12.45 22.47 12.54C22.47 12.63 22.46 12.72 22.45 12.81C22.45 12.9 22.44 12.99 22.43 13.08C22.43 13.17 22.41 13.26 22.4 13.34C22.39 13.43 22.38 13.51 22.36 13.6C22.34 13.69 22.33 13.77 22.32 13.86C22.3 13.95 22.29 14.03 22.27 14.12C22.25 14.21 22.23 14.29 22.21 14.38C22.19 14.46 22.17 14.55 22.15 14.63C22.13 14.71 22.11 14.8 22.08 14.88C22.06 14.96 22.03 15.05 22.01 15.13C21.98 15.21 21.96 15.29 21.93 15.38C21.9 15.46 21.87 15.54 21.84 15.62C21.81 15.7 21.78 15.78 21.75 15.86C21.72 15.94 21.69 16.02 21.65 16.1C21.62 16.18 21.58 16.26 21.55 16.33C21.51 16.41 21.48 16.48 21.44 16.56C21.4 16.64 21.37 16.71 21.33 16.79C21.29 16.87 21.25 16.94 21.21 17.01C21.17 17.08 21.13 17.16 21.09 17.23C21.05 17.3 21 17.38 20.96 17.45C20.92 17.52 20.87 17.59 20.83 17.66C20.78 17.73 20.74 17.8 20.69 17.87C20.64 17.94 20.59 18.01 20.55 18.08C20.5 18.15 20.45 18.22 20.4 18.28C20.35 18.35 20.3 18.41 20.25 18.48C20.2 18.55 20.15 18.61 20.09 18.68C20.03 18.75 19.98 18.81 19.93 18.87C19.87 18.93 19.82 19 19.76 19.06C19.7 19.12 19.65 19.18 19.59 19.24C19.53 19.3 19.47 19.36 19.41 19.42C19.35 19.48 19.29 19.54 19.23 19.6C19.17 19.66 19.11 19.72 19.05 19.77C18.99 19.83 18.92 19.88 18.86 19.94C18.8 20 18.73 20.05 18.67 20.1C18.61 20.15 18.54 20.21 18.47 20.26C18.4 20.31 18.34 20.36 18.27 20.41C18.2 20.46 18.13 20.51 18.07 20.56C18 20.61 17.93 20.66 17.86 20.7C17.79 20.75 17.72 20.79 17.65 20.84C17.58 20.89 17.51 20.93 17.44 20.97C17.37 21.01 17.3 21.06 17.22 21.1C17.14 21.14 17.07 21.18 17 21.22C16.93 21.26 16.85 21.3 16.78 21.34C16.7 21.38 16.63 21.42 16.55 21.45C16.47 21.49 16.4 21.52 16.32 21.56C16.24 21.6 16.16 21.63 16.09 21.66C16.01 21.69 15.93 21.73 15.85 21.76C15.77 21.79 15.69 21.82 15.61 21.85C15.53 21.88 15.45 21.91 15.37 21.94C15.29 21.97 15.21 21.99 15.12 22.02C15.04 22.05 14.96 22.07 14.87 22.09C14.79 22.11 14.7 22.14 14.62 22.16C14.54 22.18 14.45 22.2 14.37 22.22C14.29 22.24 14.2 22.26 14.11 22.28C14.02 22.3 13.94 22.31 13.85 22.33C13.76 22.35 13.68 22.36 13.59 22.37C13.5 22.38 13.42 22.4 13.33 22.41C13.24 22.42 13.15 22.43 13.07 22.44C12.98 22.44 12.89 22.46 12.8 22.46C12.71 22.46 12.62 22.47 12.53 22.48C12.44 22.48 12.35 22.48 12.26 22.49C12.17 22.5 12.08 22.49 11.99 22.49C11.9 22.49 11.81 22.49 11.72 22.49C11.63 22.49 11.54 22.49 11.45 22.48C11.36 22.47 11.27 22.47 11.18 22.46C11.09 22.46 11 22.45 10.91 22.44C10.82 22.44 10.73 22.42 10.65 22.41C10.56 22.4 10.48 22.39 10.39 22.37C10.3 22.36 10.22 22.34 10.13 22.33C10.04 22.31 9.96 22.3 9.87 22.28C9.78 22.26 9.7 22.24 9.61 22.22C9.53 22.2 9.44 22.18 9.36 22.16C9.28 22.14 9.19 22.12 9.11 22.09C9.03 22.07 8.94 22.04 8.86 22.02C8.78 21.99 8.7 21.97 8.61 21.94C8.52 21.91 8.45 21.88 8.37 21.85C8.29 21.82 8.20999 21.79 8.12999 21.76C8.04999 21.73 7.97 21.7 7.89 21.66C7.81 21.63 7.72999 21.59 7.65999 21.56C7.57999 21.52 7.50999 21.49 7.42999 21.45C7.34999 21.41 7.28 21.38 7.2 21.34C7.12 21.3 7.05 21.26 6.98 21.22C6.91 21.18 6.82999 21.14 6.75999 21.1C6.68999 21.06 6.60999 21.01 6.53999 20.97C6.46999 20.93 6.4 20.88 6.33 20.84C6.26 20.79 6.19 20.75 6.12 20.7C6.05 20.65 5.97999 20.6 5.90999 20.56C5.83999 20.51 5.76999 20.46 5.70999 20.41C5.63999 20.36 5.57999 20.31 5.50999 20.26C5.43999 20.21 5.38 20.16 5.31 20.1C5.24 20.04 5.18 19.99 5.12 19.94C5.06 19.88 4.98999 19.83 4.92999 19.77C4.86999 19.71 4.81 19.66 4.75 19.6C4.69 19.54 4.62999 19.48 4.56999 19.42C4.50999 19.36 4.45 19.3 4.39 19.24C4.33 19.18 4.27 19.12 4.22 19.06C4.16 19 4.10999 18.93 4.04999 18.87C3.98999 18.81 3.94 18.74 3.89 18.68C3.84 18.62 3.78 18.55 3.73 18.48C3.68 18.41 3.63 18.35 3.58 18.28C3.53 18.21 3.47999 18.14 3.42999 18.08C3.37999 18.01 3.32999 17.94 3.28999 17.87C3.23999 17.8 3.19999 17.73 3.14999 17.66C3.09999 17.59 3.05999 17.52 3.01999 17.45C2.97999 17.38 2.93 17.31 2.89 17.23C2.85 17.15 2.80999 17.08 2.76999 17.01C2.72999 16.94 2.68999 16.86 2.64999 16.79C2.60999 16.72 2.56999 16.64 2.53999 16.56C2.49999 16.48 2.46999 16.41 2.42999 16.33C2.38999 16.25 2.36 16.17 2.33 16.1C2.3 16.02 2.26 15.94 2.23 15.86C2.2 15.78 2.17 15.7 2.14 15.62C2.11 15.54 2.07999 15.46 2.04999 15.38C2.01999 15.3 2 15.22 1.97 15.13C1.94 15.05 1.91999 14.97 1.89999 14.88C1.87999 14.8 1.85 14.71 1.83 14.63C1.81 14.55 1.78999 14.46 1.76999 14.38C1.74999 14.3 1.72999 14.21 1.70999 14.12C1.68999 14.03 1.67999 13.95 1.65999 13.86C1.63999 13.77 1.63 13.69 1.62 13.6C1.61 13.51 1.59 13.43 1.58 13.34C1.57 13.25 1.55999 13.16 1.54999 13.08C1.54999 12.99 1.53 12.9 1.53 12.81C1.53 12.72 1.51999 12.63 1.50999 12.54C1.50999 12.45 1.51 12.36 1.5 12.27C1.49 12.18 1.5 12.09 1.5 12ZM0 12C0 12.1 0 12.21 0 12.31C0 12.41 -5.49294e-06 12.52 0.00999451 12.62C0.00999451 12.72 0.0199988 12.82 0.0299988 12.93C0.0299988 13.03 0.0499976 13.13 0.0599976 13.23C0.0699976 13.33 0.0799963 13.43 0.0899963 13.53C0.0999963 13.63 0.11999 13.73 0.12999 13.83C0.14999 13.93 0.159993 14.03 0.179993 14.13C0.199993 14.23 0.21999 14.33 0.23999 14.42C0.25999 14.52 0.279988 14.61 0.299988 14.71C0.319988 14.81 0.349995 14.9 0.369995 15C0.389995 15.1 0.419997 15.19 0.449997 15.29C0.479997 15.39 0.509999 15.48 0.529999 15.57C0.559999 15.66 0.589995 15.76 0.619995 15.85C0.649995 15.94 0.680001 16.04 0.720001 16.13C0.750001 16.22 0.789992 16.31 0.819992 16.4C0.859992 16.49 0.889993 16.58 0.929993 16.67C0.969993 16.76 1.00999 16.85 1.04999 16.94C1.08999 17.03 1.13 17.12 1.17 17.2C1.21 17.28 1.25999 17.37 1.29999 17.46C1.33999 17.55 1.39 17.63 1.44 17.72C1.49 17.81 1.53 17.89 1.58 17.97C1.63 18.05 1.68 18.14 1.73 18.22C1.78 18.3 1.82999 18.38 1.87999 18.47C1.92999 18.55 1.98999 18.63 2.03999 18.71C2.08999 18.79 2.15 18.87 2.2 18.95C2.26 19.03 2.31 19.11 2.37 19.18C2.43 19.25 2.48999 19.33 2.54999 19.41C2.60999 19.49 2.67 19.56 2.73 19.63C2.79 19.7 2.85 19.78 2.92 19.85C2.99 19.92 3.05 19.99 3.11 20.07C3.17 20.14 3.24 20.21 3.31 20.28C3.38 20.35 3.43999 20.42 3.50999 20.49C3.57999 20.56 3.65 20.62 3.72 20.69C3.79 20.76 3.85999 20.82 3.92999 20.89C3.99999 20.95 4.06999 21.02 4.14999 21.08C4.22999 21.14 4.3 21.2 4.37 21.27C4.44 21.33 4.52 21.39 4.59 21.45C4.66 21.51 4.73999 21.57 4.81999 21.63C4.89999 21.69 4.96999 21.74 5.04999 21.8C5.12999 21.86 5.20999 21.91 5.28999 21.96C5.36999 22.01 5.45 22.07 5.53 22.12C5.61 22.17 5.69 22.22 5.78 22.27C5.86 22.32 5.95 22.37 6.03 22.42C6.11 22.47 6.2 22.52 6.28 22.56C6.37 22.61 6.44999 22.65 6.53999 22.7C6.62999 22.75 6.70999 22.79 6.79999 22.83C6.88999 22.87 6.98 22.91 7.06 22.95C7.15 22.99 7.24 23.03 7.33 23.07C7.42 23.11 7.50999 23.14 7.59999 23.18C7.68999 23.22 7.78 23.25 7.87 23.28C7.96 23.31 8.04999 23.35 8.14999 23.38C8.24999 23.41 8.33999 23.44 8.42999 23.47C8.51999 23.5 8.61999 23.53 8.70999 23.55C8.79999 23.58 8.9 23.6 9 23.63C9.1 23.65 9.18999 23.68 9.28999 23.7C9.38999 23.72 9.48 23.74 9.58 23.76C9.68 23.78 9.78 23.8 9.87 23.82C9.97 23.84 10.07 23.85 10.17 23.87C10.27 23.89 10.37 23.9 10.47 23.91C10.57 23.92 10.67 23.93 10.77 23.94C10.87 23.95 10.97 23.96 11.07 23.97C11.17 23.98 11.27 23.98 11.38 23.99C11.48 23.99 11.58 23.99 11.69 24C11.79 24 11.9 24 12 24C12.1 24 12.21 24 12.31 24C12.41 24 12.52 24 12.62 23.99C12.72 23.99 12.82 23.98 12.93 23.97C13.03 23.97 13.13 23.95 13.23 23.94C13.33 23.93 13.43 23.92 13.53 23.91C13.63 23.9 13.73 23.88 13.83 23.87C13.93 23.85 14.03 23.84 14.13 23.82C14.23 23.8 14.33 23.78 14.42 23.76C14.52 23.74 14.61 23.72 14.71 23.7C14.81 23.68 14.9 23.65 15 23.63C15.1 23.61 15.19 23.58 15.29 23.55C15.38 23.52 15.48 23.49 15.57 23.47C15.66 23.44 15.76 23.41 15.85 23.38C15.94 23.35 16.04 23.32 16.13 23.28C16.22 23.25 16.31 23.21 16.4 23.18C16.49 23.14 16.58 23.11 16.67 23.07C16.76 23.03 16.85 22.99 16.94 22.95C17.03 22.91 17.12 22.87 17.2 22.83C17.29 22.79 17.37 22.74 17.46 22.7C17.55 22.66 17.63 22.61 17.72 22.56C17.81 22.51 17.89 22.47 17.97 22.42C18.05 22.37 18.14 22.32 18.22 22.27C18.3 22.22 18.38 22.17 18.47 22.12C18.56 22.07 18.63 22.01 18.71 21.96C18.79 21.91 18.87 21.85 18.95 21.8C19.03 21.74 19.11 21.69 19.18 21.63C19.25 21.57 19.33 21.51 19.41 21.45C19.49 21.39 19.56 21.33 19.63 21.27C19.7 21.21 19.78 21.15 19.85 21.08C19.92 21.01 19.99 20.95 20.07 20.89C20.14 20.83 20.21 20.76 20.28 20.69C20.35 20.62 20.42 20.56 20.49 20.49C20.56 20.42 20.62 20.35 20.69 20.28C20.76 20.21 20.82 20.14 20.89 20.07C20.95 20 21.02 19.93 21.08 19.85C21.14 19.77 21.2 19.7 21.27 19.63C21.33 19.56 21.39 19.48 21.45 19.41C21.51 19.34 21.57 19.26 21.63 19.18C21.69 19.1 21.74 19.03 21.8 18.95C21.86 18.87 21.91 18.79 21.96 18.71C22.01 18.63 22.07 18.55 22.12 18.47C22.17 18.39 22.22 18.31 22.27 18.22C22.32 18.14 22.37 18.05 22.42 17.97C22.47 17.89 22.52 17.8 22.56 17.72C22.61 17.63 22.65 17.55 22.7 17.46C22.74 17.37 22.79 17.29 22.83 17.2C22.87 17.11 22.91 17.02 22.95 16.94C22.99 16.85 23.03 16.76 23.07 16.67C23.11 16.58 23.14 16.49 23.18 16.4C23.22 16.31 23.25 16.22 23.28 16.13C23.31 16.04 23.35 15.95 23.38 15.85C23.41 15.76 23.44 15.66 23.47 15.57C23.5 15.48 23.53 15.38 23.55 15.29C23.57 15.2 23.6 15.1 23.63 15C23.65 14.9 23.68 14.81 23.7 14.71C23.72 14.61 23.74 14.52 23.76 14.42C23.78 14.32 23.8 14.22 23.82 14.13C23.84 14.03 23.85 13.93 23.87 13.83C23.89 13.73 23.9 13.63 23.91 13.53C23.92 13.43 23.93 13.33 23.94 13.23C23.95 13.13 23.96 13.03 23.97 12.93C23.97 12.83 23.98 12.73 23.99 12.62C23.99 12.52 23.99 12.42 24 12.31C24 12.21 24 12.1 24 12C24 11.9 24 11.79 24 11.69C24 11.59 24 11.48 23.99 11.38C23.99 11.28 23.98 11.18 23.97 11.07C23.96 10.96 23.95 10.87 23.94 10.77C23.93 10.67 23.92 10.57 23.91 10.47C23.9 10.37 23.88 10.27 23.87 10.17C23.85 10.07 23.84 9.97 23.82 9.87C23.8 9.77 23.78 9.67 23.76 9.58C23.74 9.48 23.72 9.39 23.7 9.29C23.68 9.19 23.65 9.1 23.63 9C23.61 8.9 23.58 8.81 23.55 8.71C23.52 8.61 23.49 8.52 23.47 8.43C23.44 8.34 23.41 8.24 23.38 8.15C23.35 8.06 23.32 7.96 23.28 7.87C23.25 7.78 23.21 7.69 23.18 7.6C23.14 7.51 23.11 7.42 23.07 7.33C23.03 7.24 22.99 7.15 22.95 7.06C22.91 6.97 22.87 6.88 22.83 6.8C22.79 6.72 22.74 6.63 22.7 6.54C22.66 6.45 22.61 6.37 22.56 6.28C22.51 6.19 22.47 6.11 22.42 6.03C22.37 5.95 22.32 5.86 22.27 5.78C22.22 5.7 22.17 5.62 22.12 5.53C22.07 5.45 22.01 5.37 21.96 5.29C21.91 5.21 21.85 5.13 21.8 5.05C21.74 4.97 21.69 4.89 21.63 4.82C21.57 4.75 21.51 4.67 21.45 4.59C21.39 4.51 21.33 4.44 21.27 4.37C21.21 4.3 21.15 4.22 21.08 4.15C21.01 4.08 20.95 4.01 20.89 3.93C20.83 3.86 20.76 3.79 20.69 3.72C20.62 3.65 20.56 3.58 20.49 3.51C20.42 3.44 20.35 3.38 20.28 3.31C20.21 3.24 20.14 3.18 20.07 3.11C20 3.05 19.93 2.98 19.85 2.92C19.77 2.86 19.7 2.8 19.63 2.73C19.56 2.66 19.48 2.61 19.41 2.55C19.33 2.49 19.26 2.43 19.18 2.37C19.1 2.31 19.03 2.26 18.95 2.2C18.87 2.14 18.79 2.09 18.71 2.04C18.63 1.99 18.55 1.93 18.47 1.88C18.39 1.83 18.31 1.78 18.22 1.73C18.14 1.68 18.05 1.63 17.97 1.58C17.89 1.53 17.8 1.48 17.72 1.44C17.63 1.39 17.55 1.35 17.46 1.3C17.37 1.26 17.29 1.21 17.2 1.17C17.11 1.13 17.02 1.09 16.94 1.05C16.85 1.01 16.76 0.97 16.67 0.93C16.58 0.89 16.49 0.86 16.4 0.82C16.31 0.78 16.22 0.75 16.13 0.72C16.04 0.69 15.95 0.65 15.85 0.62C15.75 0.59 15.66 0.56 15.57 0.53C15.48 0.5 15.38 0.47 15.29 0.45C15.2 0.43 15.1 0.4 15 0.37C14.9 0.35 14.81 0.32 14.71 0.3C14.61 0.28 14.52 0.26 14.42 0.24C14.32 0.22 14.22 0.2 14.13 0.18C14.03 0.16 13.93 0.15 13.83 0.13C13.73 0.11 13.63 0.1 13.53 0.09C13.43 0.08 13.33 0.07 13.23 0.06C13.13 0.05 13.03 0.04 12.93 0.03C12.83 0.03 12.73 0.02 12.62 0.01C12.52 0.01 12.42 0.01 12.31 0C12.21 0 12.1 0 12 0C11.9 0 11.79 0 11.69 0C11.59 0 11.48 0 11.38 0.01C11.28 0.01 11.18 0.02 11.07 0.03C10.96 0.04 10.87 0.05 10.77 0.06C10.67 0.07 10.57 0.08 10.47 0.09C10.37 0.1 10.27 0.12 10.17 0.13C10.07 0.15 9.97 0.16 9.87 0.18C9.77 0.2 9.67 0.22 9.58 0.24C9.48 0.26 9.38999 0.28 9.28999 0.3C9.18999 0.32 9.1 0.35 9 0.37C8.9 0.39 8.80999 0.42 8.70999 0.45C8.61999 0.48 8.51999 0.51 8.42999 0.53C8.33999 0.56 8.23999 0.59 8.14999 0.62C8.05999 0.65 7.96 0.68 7.87 0.72C7.78 0.75 7.68999 0.79 7.59999 0.82C7.50999 0.86 7.42 0.89 7.33 0.93C7.24 0.97 7.15 1.01 7.06 1.05C6.97 1.09 6.87999 1.13 6.79999 1.17C6.71999 1.21 6.62999 1.26 6.53999 1.3C6.44999 1.34 6.37 1.39 6.28 1.44C6.19 1.49 6.11 1.53 6.03 1.58C5.95 1.63 5.86 1.68 5.78 1.73C5.7 1.78 5.62 1.83 5.53 1.88C5.45 1.93 5.36999 1.98 5.28999 2.04C5.20999 2.1 5.12999 2.15 5.04999 2.2C4.96999 2.26 4.88999 2.31 4.81999 2.37C4.74999 2.43 4.67 2.49 4.59 2.55C4.51 2.61 4.44 2.67 4.37 2.73C4.3 2.79 4.21999 2.85 4.14999 2.92C4.07999 2.99 4.00999 3.05 3.92999 3.11C3.84999 3.17 3.79 3.24 3.72 3.31C3.65 3.38 3.57999 3.44 3.50999 3.51C3.43999 3.58 3.38 3.65 3.31 3.72C3.24 3.79 3.18 3.86 3.11 3.93C3.05 4 2.98 4.07 2.92 4.15C2.86 4.23 2.8 4.3 2.73 4.37C2.67 4.44 2.60999 4.52 2.54999 4.59C2.48999 4.66 2.43 4.74 2.37 4.82C2.31 4.9 2.26 4.97 2.2 5.05C2.14 5.13 2.08999 5.21 2.03999 5.29C1.98999 5.37 1.92999 5.45 1.87999 5.53C1.82999 5.61 1.78 5.69 1.73 5.78C1.68 5.86 1.63 5.95 1.58 6.03C1.53 6.11 1.48 6.2 1.44 6.28C1.39 6.37 1.34999 6.45 1.29999 6.54C1.24999 6.63 1.21 6.71 1.17 6.8C1.13 6.89 1.08999 6.98 1.04999 7.06C1.00999 7.15 0.969993 7.24 0.929993 7.33C0.889993 7.42 0.859992 7.51 0.819992 7.6C0.779992 7.69 0.750001 7.78 0.720001 7.87C0.690001 7.96 0.649995 8.05 0.619995 8.15C0.589995 8.24 0.559999 8.34 0.529999 8.43C0.499999 8.52 0.469997 8.62 0.449997 8.71C0.429997 8.8 0.399995 8.9 0.369995 9C0.349995 9.1 0.319988 9.19 0.299988 9.29C0.279988 9.39 0.25999 9.48 0.23999 9.58C0.21999 9.68 0.199993 9.78 0.179993 9.87C0.159993 9.97 0.14999 10.07 0.12999 10.17C0.10999 10.27 0.0999963 10.37 0.0899963 10.47C0.0799963 10.57 0.0699976 10.67 0.0599976 10.77C0.0499976 10.87 0.0399988 10.97 0.0299988 11.07C0.0199988 11.17 0.0199945 11.27 0.00999451 11.38C0.00999451 11.48 0.01 11.58 0 11.69C0 11.79 0 11.9 0 12Z" fill="white"/>
<path d="M11.9998 15.9909L12.0698 15.8909L12.1298 15.7809L12.1998 15.6809L12.2598 15.5709L12.3298 15.4609L12.3898 15.3609L12.4598 15.2509L12.5198 15.1509L12.5898 15.0409L12.6598 14.9309L12.7198 14.8309L12.7898 14.7209L12.8498 14.6109L12.9198 14.5109L12.9798 14.4009L13.0498 14.3009L13.1098 14.1909L13.1798 14.0809L13.2398 13.9809L13.3098 13.8709L13.3698 13.7709L13.4398 13.6609L13.4998 13.5509L13.5698 13.4509L13.6298 13.3409L13.6998 13.2409L13.7598 13.1309L13.8298 13.0209L13.8998 12.9209L13.9598 12.8109L14.0298 12.7109L14.0898 12.6009L14.1598 12.4909L14.2198 12.3909L14.2898 12.2809L14.3498 12.1809L14.4198 12.0709L14.4798 11.9609L14.5498 11.8609L14.6098 11.7509L14.6798 11.6509L14.7398 11.5409L14.8098 11.4309L14.8698 11.3309L14.9398 11.2209L15.0098 11.1209L15.0698 11.0109L15.1398 10.9009L15.1998 10.8009L15.2698 10.6909L15.3298 10.5809L15.3998 10.4809L15.4598 10.3709L15.5298 10.2709L15.5898 10.1609L15.6598 10.0509L15.7198 9.95094L15.7898 9.84094L15.8498 9.74094L15.9198 9.63094L15.9798 9.52094L16.0498 9.42094L16.1198 9.31094L16.1798 9.21094H16.0498H15.9198H15.7898H15.6598H15.5298H15.3998H15.2698H15.1398H15.0098H14.8698H14.7398H14.6098H14.4798H14.3498H14.2198H14.0898H13.9598H13.8298H13.6998H13.5698H13.4398H13.3098H13.1798H13.0498H12.9198H12.7898H12.6498H12.5198H12.3898H12.2598H12.1298H11.9998H11.8698H11.7398H11.6098H11.4798H11.3498H11.2198H11.0898H10.9598H10.8298H10.6998H10.5698H10.4398H10.2998H10.1698H10.0398H9.90982H9.77983H9.64983H9.51982H9.38983H9.25983H9.12982H8.99983H8.86983H8.73982H8.60983H8.47983H8.34982H8.21983H8.07983H7.94983H7.81982L7.88983 9.31094L7.94983 9.42094L8.01982 9.52094L8.07983 9.63094L8.14983 9.74094L8.21983 9.84094L8.27983 9.95094L8.34982 10.0509L8.40982 10.1609L8.47983 10.2709L8.53983 10.3709L8.60983 10.4809L8.66983 10.5809L8.73982 10.6909L8.79982 10.8009L8.86983 10.9009L8.92982 11.0109L8.99983 11.1209L9.05983 11.2209L9.12982 11.3309L9.18983 11.4309L9.25983 11.5409L9.32983 11.6509L9.38983 11.7509L9.45982 11.8609L9.51982 11.9609L9.58983 12.0709L9.64983 12.1809L9.71983 12.2809L9.77983 12.3909L9.84982 12.4909L9.90982 12.6009L9.97983 12.7109L10.0398 12.8109L10.1098 12.9209L10.1698 13.0209L10.2398 13.1309L10.2998 13.2409L10.3698 13.3409L10.4398 13.4509L10.4998 13.5509L10.5698 13.6609L10.6298 13.7709L10.6998 13.8709L10.7598 13.9809L10.8298 14.0809L10.8898 14.1909L10.9598 14.3009L11.0198 14.4009L11.0898 14.5109L11.1498 14.6109L11.2198 14.7209L11.2798 14.8309L11.3498 14.9309L11.4098 15.0409L11.4798 15.1509L11.5498 15.2509L11.6098 15.3609L11.6798 15.4609L11.7398 15.5709L11.8098 15.6809L11.8698 15.7809L11.9398 15.8909L11.9998 15.9909Z" fill="white"/>
</g>
<defs>
<clipPath id="clip0_1088_10379">
<rect width="24" height="24" fill="white"/>
</clipPath>
</defs>
</svg>
