<svg width="24" height="24" viewBox="0 0 24 24" fill="none" xmlns="http://www.w3.org/2000/svg">
<g clip-path="url(#clip0_1088_10382)">
<path d="M12 1.5C12.09 1.5 12.18 1.5 12.27 1.5C12.36 1.5 12.45 1.5 12.54 1.51C12.63 1.51 12.72 1.52 12.81 1.53C12.9 1.53 12.99 1.54 13.08 1.55C13.17 1.55 13.26 1.57 13.34 1.58C13.43 1.59 13.51 1.6 13.6 1.62C13.69 1.64 13.77 1.65 13.86 1.66C13.95 1.68 14.03 1.69 14.12 1.71C14.21 1.73 14.29 1.75 14.38 1.77C14.46 1.79 14.55 1.81 14.63 1.83C14.71 1.85 14.8 1.87 14.88 1.9C14.96 1.92 15.05 1.95 15.13 1.97C15.21 2 15.29 2.02 15.38 2.05C15.46 2.08 15.54 2.11 15.62 2.14C15.7 2.17 15.78 2.2 15.86 2.23C15.94 2.26 16.02 2.29 16.1 2.33C16.18 2.37 16.26 2.4 16.33 2.43C16.41 2.47 16.48 2.5 16.56 2.54C16.64 2.58 16.71 2.61 16.79 2.65C16.87 2.69 16.94 2.73 17.01 2.77C17.08 2.81 17.16 2.85 17.23 2.89C17.3 2.93 17.38 2.98 17.45 3.02C17.52 3.06 17.59 3.11 17.66 3.15C17.73 3.2 17.8 3.24 17.87 3.29C17.94 3.34 18.01 3.39 18.08 3.43C18.15 3.48 18.22 3.53 18.28 3.58C18.35 3.63 18.41 3.68 18.48 3.73C18.55 3.78 18.61 3.83 18.68 3.89C18.75 3.95 18.81 4 18.87 4.05C18.93 4.11 19 4.16 19.06 4.22C19.12 4.28 19.18 4.33 19.24 4.39C19.3 4.45 19.36 4.51 19.42 4.57C19.48 4.63 19.54 4.69 19.6 4.75C19.66 4.81 19.72 4.87 19.77 4.93C19.83 4.99 19.88 5.06 19.94 5.12C20 5.18 20.05 5.25 20.1 5.31C20.15 5.37 20.21 5.44 20.26 5.51C20.31 5.58 20.36 5.64 20.41 5.71C20.46 5.78 20.51 5.85 20.56 5.91C20.61 5.98 20.66 6.05 20.7 6.12C20.75 6.19 20.79 6.26 20.84 6.33C20.89 6.4 20.93 6.47 20.97 6.54C21.01 6.61 21.06 6.68 21.1 6.76C21.14 6.84 21.18 6.91 21.22 6.98C21.26 7.05 21.3 7.13 21.34 7.2C21.38 7.28 21.42 7.35 21.45 7.43C21.49 7.51 21.52 7.58 21.56 7.66C21.6 7.74 21.63 7.82 21.66 7.89C21.69 7.97 21.73 8.05 21.76 8.13C21.79 8.21 21.82 8.29 21.85 8.37C21.88 8.45 21.91 8.53 21.94 8.61C21.97 8.69 21.99 8.77 22.02 8.86C22.05 8.94 22.07 9.02 22.09 9.11C22.11 9.19 22.14 9.28 22.16 9.36C22.18 9.44 22.2 9.53 22.22 9.61C22.24 9.69 22.26 9.78 22.28 9.87C22.3 9.96 22.31 10.04 22.33 10.13C22.35 10.22 22.36 10.3 22.37 10.39C22.38 10.48 22.4 10.56 22.41 10.65C22.42 10.74 22.43 10.83 22.44 10.91C22.44 11 22.46 11.09 22.46 11.18C22.46 11.27 22.47 11.36 22.48 11.45C22.48 11.54 22.48 11.63 22.49 11.72C22.49 11.81 22.49 11.9 22.49 11.99C22.49 12.08 22.49 12.17 22.49 12.26C22.49 12.35 22.49 12.44 22.48 12.53C22.48 12.62 22.47 12.71 22.46 12.8C22.46 12.89 22.45 12.98 22.44 13.07C22.44 13.16 22.42 13.25 22.41 13.33C22.4 13.42 22.39 13.5 22.37 13.59C22.36 13.68 22.34 13.76 22.33 13.85C22.31 13.94 22.3 14.02 22.28 14.11C22.26 14.2 22.24 14.28 22.22 14.37C22.2 14.45 22.18 14.54 22.16 14.62C22.14 14.7 22.12 14.79 22.09 14.87C22.07 14.95 22.04 15.04 22.02 15.12C21.99 15.2 21.97 15.28 21.94 15.37C21.91 15.46 21.88 15.53 21.85 15.61C21.82 15.69 21.79 15.77 21.76 15.85C21.73 15.93 21.7 16.01 21.66 16.09C21.63 16.17 21.59 16.25 21.56 16.32C21.52 16.4 21.49 16.47 21.45 16.55C21.41 16.63 21.38 16.7 21.34 16.78C21.3 16.86 21.26 16.93 21.22 17C21.18 17.07 21.14 17.15 21.1 17.22C21.06 17.29 21.01 17.37 20.97 17.44C20.93 17.51 20.88 17.58 20.84 17.65C20.79 17.72 20.75 17.79 20.7 17.86C20.65 17.93 20.6 18 20.56 18.07C20.51 18.14 20.46 18.21 20.41 18.27C20.36 18.34 20.31 18.4 20.26 18.47C20.21 18.54 20.16 18.6 20.1 18.67C20.04 18.74 19.99 18.8 19.94 18.86C19.88 18.92 19.83 18.99 19.77 19.05C19.71 19.11 19.66 19.17 19.6 19.23C19.54 19.29 19.48 19.35 19.42 19.41C19.36 19.47 19.3 19.53 19.24 19.59C19.18 19.65 19.12 19.71 19.06 19.76C19 19.82 18.93 19.87 18.87 19.93C18.81 19.99 18.74 20.04 18.68 20.09C18.62 20.14 18.55 20.2 18.48 20.25C18.41 20.3 18.35 20.35 18.28 20.4C18.21 20.45 18.14 20.5 18.08 20.55C18.01 20.6 17.94 20.65 17.87 20.69C17.8 20.73 17.73 20.78 17.66 20.83C17.59 20.88 17.52 20.92 17.45 20.96C17.38 21 17.31 21.05 17.23 21.09C17.16 21.13 17.08 21.17 17.01 21.21C16.94 21.25 16.86 21.29 16.79 21.33C16.72 21.37 16.64 21.41 16.56 21.44C16.48 21.48 16.41 21.51 16.33 21.55C16.25 21.59 16.17 21.62 16.1 21.65C16.02 21.68 15.94 21.72 15.86 21.75C15.78 21.78 15.7 21.81 15.62 21.84C15.54 21.87 15.46 21.9 15.38 21.93C15.3 21.96 15.22 21.98 15.13 22.01C15.05 22.04 14.97 22.06 14.88 22.08C14.8 22.1 14.71 22.13 14.63 22.15C14.55 22.17 14.46 22.19 14.38 22.21C14.3 22.23 14.21 22.25 14.12 22.27C14.03 22.29 13.95 22.3 13.86 22.32C13.77 22.34 13.69 22.35 13.6 22.36C13.51 22.37 13.43 22.39 13.34 22.4C13.25 22.41 13.16 22.42 13.08 22.43C12.99 22.43 12.9 22.45 12.81 22.45C12.72 22.45 12.63 22.46 12.54 22.47C12.45 22.47 12.36 22.47 12.27 22.48C12.18 22.48 12.09 22.48 12 22.48C11.91 22.48 11.82 22.48 11.73 22.48C11.64 22.48 11.55 22.48 11.46 22.47C11.37 22.47 11.28 22.46 11.19 22.45C11.1 22.45 11.01 22.44 10.92 22.43C10.83 22.43 10.74 22.41 10.66 22.4C10.57 22.39 10.49 22.38 10.4 22.36C10.31 22.35 10.23 22.33 10.14 22.32C10.05 22.3 9.97 22.29 9.88 22.27C9.79 22.25 9.71 22.23 9.63 22.21C9.55 22.19 9.46 22.17 9.38 22.15C9.3 22.13 9.21 22.11 9.13 22.08C9.05 22.06 8.96 22.03 8.88 22.01C8.8 21.99 8.72 21.96 8.63 21.93C8.55 21.9 8.47 21.87 8.39 21.84C8.31 21.81 8.23 21.78 8.15 21.75C8.07 21.72 7.99 21.69 7.91 21.65C7.83 21.62 7.75 21.58 7.68 21.55C7.6 21.51 7.53 21.48 7.45 21.44C7.37 21.4 7.3 21.37 7.22 21.33C7.14 21.29 7.07 21.25 7 21.21C6.93 21.17 6.85 21.13 6.78 21.09C6.71 21.05 6.63 21 6.56 20.96C6.49 20.92 6.42 20.87 6.35 20.83C6.28 20.78 6.21 20.74 6.14 20.69C6.07 20.64 6 20.59 5.93 20.55C5.86 20.5 5.79 20.45 5.73 20.4C5.66 20.35 5.6 20.3 5.53 20.25C5.46 20.2 5.4 20.15 5.33 20.09C5.27 20.04 5.2 19.98 5.14 19.93C5.08 19.87 5.01 19.82 4.95 19.76C4.89 19.7 4.83 19.65 4.77 19.59C4.71 19.53 4.65 19.47 4.59 19.41C4.53 19.35 4.47 19.29 4.41 19.23C4.35 19.17 4.29 19.11 4.24 19.05C4.18 18.99 4.13 18.92 4.07 18.86C4.01 18.8 3.96 18.73 3.91 18.67C3.86 18.61 3.8 18.54 3.75 18.47C3.7 18.4 3.65 18.34 3.6 18.27C3.55 18.2 3.5 18.13 3.45 18.07C3.4 18 3.35 17.93 3.31 17.86C3.26 17.79 3.22 17.72 3.17 17.65C3.12 17.58 3.08 17.51 3.04 17.44C3 17.37 2.95 17.3 2.91 17.22C2.87 17.14 2.83 17.07 2.79 17C2.75 16.93 2.71 16.85 2.67 16.78C2.63 16.7 2.59 16.63 2.56 16.55C2.52 16.47 2.49 16.4 2.45 16.32C2.41 16.24 2.38 16.16 2.35 16.09C2.32 16.01 2.28 15.93 2.25 15.85C2.22 15.77 2.19 15.69 2.16 15.61C2.13 15.53 2.1 15.45 2.07 15.37C2.04 15.29 2.02 15.21 1.99 15.12C1.96 15.04 1.94 14.96 1.92 14.87C1.9 14.79 1.87 14.7 1.85 14.62C1.83 14.54 1.81 14.45 1.79 14.37C1.77 14.29 1.75 14.2 1.73 14.11C1.71 14.02 1.7 13.94 1.68 13.85C1.66 13.76 1.65 13.68 1.64 13.59C1.63 13.5 1.61 13.42 1.6 13.33C1.59 13.24 1.58 13.15 1.57 13.07C1.57 12.98 1.55 12.89 1.55 12.8C1.55 12.71 1.54 12.62 1.53 12.53C1.53 12.44 1.53 12.35 1.52 12.26C1.52 12.17 1.52 12.08 1.52 11.99C1.52 11.9 1.52 11.81 1.52 11.72C1.52 11.63 1.52 11.54 1.53 11.45C1.53 11.36 1.54 11.27 1.55 11.18C1.55 11.09 1.56 11 1.57 10.91C1.57 10.82 1.59 10.73 1.6 10.65C1.61 10.56 1.62 10.48 1.64 10.39C1.65 10.3 1.67 10.22 1.68 10.13C1.7 10.04 1.71 9.96 1.73 9.87C1.75 9.78 1.77 9.7 1.79 9.61C1.81 9.53 1.83 9.44 1.85 9.36C1.87 9.28 1.89 9.19 1.92 9.11C1.94 9.03 1.97 8.94 1.99 8.86C2.02 8.78 2.04 8.7 2.07 8.61C2.1 8.53 2.13 8.45 2.16 8.37C2.19 8.29 2.22 8.21 2.25 8.13C2.28 8.05 2.31 7.97 2.35 7.89C2.38 7.81 2.42 7.73 2.45 7.66C2.49 7.58 2.52 7.51 2.56 7.43C2.6 7.35 2.63 7.28 2.67 7.2C2.71 7.12 2.75 7.05 2.79 6.98C2.83 6.91 2.87 6.83 2.91 6.76C2.95 6.69 3 6.61 3.04 6.54C3.08 6.47 3.13 6.4 3.17 6.33C3.22 6.26 3.26 6.19 3.31 6.12C3.36 6.05 3.41 5.98 3.45 5.91C3.5 5.84 3.55 5.77 3.6 5.71C3.65 5.64 3.7 5.58 3.75 5.51C3.8 5.44 3.85 5.38 3.91 5.31C3.97 5.24 4.02 5.18 4.07 5.12C4.13 5.06 4.18 4.99 4.24 4.93C4.3 4.87 4.35 4.81 4.41 4.75C4.47 4.69 4.53 4.63 4.59 4.57C4.65 4.51 4.71 4.45 4.77 4.39C4.83 4.33 4.89 4.27 4.95 4.22C5.01 4.16 5.08 4.11 5.14 4.05C5.2 3.99 5.27 3.94 5.33 3.89C5.39 3.84 5.46 3.78 5.53 3.73C5.6 3.68 5.66 3.63 5.73 3.58C5.8 3.53 5.87 3.48 5.93 3.43C6 3.38 6.07 3.33 6.14 3.29C6.21 3.24 6.28 3.2 6.35 3.15C6.42 3.1 6.49 3.06 6.56 3.02C6.63 2.98 6.7 2.93 6.78 2.89C6.85 2.85 6.93 2.81 7 2.77C7.07 2.73 7.15 2.69 7.22 2.65C7.29 2.61 7.37 2.57 7.45 2.54C7.53 2.5 7.6 2.47 7.68 2.43C7.76 2.39 7.84 2.36 7.91 2.33C7.99 2.3 8.07 2.26 8.15 2.23C8.23 2.2 8.31 2.17 8.39 2.14C8.47 2.11 8.55 2.08 8.63 2.05C8.71 2.02 8.79 2 8.88 1.97C8.97 1.94 9.04 1.92 9.13 1.9C9.21 1.88 9.3 1.85 9.38 1.83C9.46 1.81 9.55 1.79 9.63 1.77C9.71 1.75 9.8 1.73 9.88 1.71C9.97 1.69 10.05 1.68 10.14 1.66C10.23 1.64 10.31 1.63 10.4 1.62C10.49 1.61 10.57 1.59 10.66 1.58C10.75 1.57 10.84 1.56 10.92 1.55C11.01 1.55 11.1 1.53 11.19 1.53C11.28 1.53 11.37 1.52 11.46 1.51C11.55 1.51 11.64 1.51 11.73 1.5C11.82 1.5 11.91 1.5 12 1.5ZM12 0C11.9 0 11.79 0 11.69 0C11.59 0 11.48 0 11.38 0.01C11.28 0.01 11.18 0.02 11.07 0.03C10.96 0.04 10.87 0.05 10.77 0.06C10.67 0.07 10.57 0.08 10.47 0.09C10.37 0.1 10.27 0.12 10.17 0.13C10.07 0.15 9.97 0.16 9.87 0.18C9.77 0.2 9.67 0.22 9.58 0.24C9.48 0.26 9.39 0.28 9.29 0.3C9.19 0.32 9.1 0.35 9 0.37C8.9 0.39 8.81 0.42 8.71 0.45C8.62 0.48 8.52 0.51 8.43 0.53C8.34 0.56 8.24 0.59 8.15 0.62C8.06 0.65 7.96 0.68 7.87 0.72C7.78 0.75 7.69 0.79 7.6 0.82C7.51 0.86 7.42 0.89 7.33 0.93C7.24 0.97 7.15 1.01 7.06 1.05C6.97 1.09 6.88 1.13 6.8 1.17C6.71 1.21 6.63 1.26 6.54 1.3C6.45 1.34 6.37 1.39 6.28 1.44C6.19 1.49 6.11 1.53 6.03 1.58C5.95 1.63 5.86 1.68 5.78 1.73C5.7 1.78 5.62 1.83 5.53 1.88C5.45 1.93 5.37 1.99 5.29 2.04C5.21 2.09 5.13 2.15 5.05 2.2C4.97 2.26 4.89 2.31 4.82 2.37C4.74 2.43 4.67 2.49 4.59 2.55C4.51 2.61 4.44 2.67 4.37 2.73C4.3 2.79 4.22 2.85 4.15 2.92C4.08 2.99 4.01 3.05 3.93 3.11C3.86 3.17 3.79 3.24 3.72 3.31C3.65 3.38 3.58 3.44 3.51 3.51C3.44 3.58 3.38 3.65 3.31 3.72C3.24 3.79 3.18 3.86 3.11 3.93C3.05 4 2.98 4.07 2.92 4.15C2.86 4.23 2.8 4.3 2.73 4.37C2.67 4.44 2.61 4.52 2.55 4.59C2.49 4.67 2.43 4.74 2.37 4.82C2.31 4.9 2.26 4.97 2.2 5.05C2.14 5.13 2.09 5.21 2.04 5.29C1.99 5.37 1.93 5.45 1.88 5.53C1.83 5.61 1.78 5.69 1.73 5.78C1.68 5.87 1.63 5.95 1.58 6.03C1.53 6.11 1.48 6.2 1.44 6.28C1.39 6.37 1.35 6.45 1.3 6.54C1.26 6.63 1.21 6.71 1.17 6.8C1.13 6.89 1.09 6.98 1.05 7.06C1.01 7.15 0.97 7.24 0.93 7.33C0.89 7.42 0.86 7.51 0.82 7.6C0.78 7.69 0.75 7.78 0.72 7.87C0.69 7.96 0.65 8.05 0.62 8.15C0.59 8.24 0.56 8.34 0.53 8.43C0.5 8.52 0.47 8.62 0.45 8.71C0.43 8.8 0.4 8.9 0.37 9C0.35 9.1 0.32 9.19 0.3 9.29C0.28 9.39 0.26 9.48 0.24 9.58C0.22 9.68 0.2 9.78 0.18 9.87C0.16 9.97 0.15 10.07 0.13 10.17C0.11 10.27 0.1 10.37 0.09 10.47C0.08 10.57 0.07 10.67 0.06 10.77C0.05 10.87 0.04 10.97 0.03 11.07C0.03 11.17 0.02 11.27 0.01 11.38C0.01 11.48 0.01 11.58 0 11.69C0 11.79 0 11.9 0 12C0 12.1 0 12.21 0 12.31C0 12.41 0 12.52 0.01 12.62C0.01 12.72 0.02 12.82 0.03 12.93C0.04 13.04 0.05 13.13 0.06 13.23C0.07 13.33 0.08 13.43 0.09 13.53C0.1 13.63 0.12 13.73 0.13 13.83C0.15 13.93 0.16 14.03 0.18 14.13C0.2 14.23 0.22 14.33 0.24 14.42C0.26 14.52 0.28 14.61 0.3 14.71C0.32 14.81 0.35 14.9 0.37 15C0.39 15.1 0.42 15.19 0.45 15.29C0.48 15.38 0.51 15.48 0.53 15.57C0.56 15.66 0.59 15.76 0.62 15.85C0.65 15.94 0.68 16.04 0.72 16.13C0.75 16.22 0.79 16.31 0.82 16.4C0.86 16.49 0.89 16.58 0.93 16.67C0.97 16.76 1.01 16.85 1.05 16.94C1.09 17.03 1.13 17.12 1.17 17.2C1.21 17.29 1.26 17.37 1.3 17.46C1.34 17.55 1.39 17.63 1.44 17.72C1.49 17.81 1.53 17.89 1.58 17.97C1.63 18.05 1.68 18.14 1.73 18.22C1.78 18.3 1.83 18.38 1.88 18.47C1.93 18.55 1.98 18.63 2.04 18.71C2.09 18.79 2.15 18.87 2.2 18.95C2.26 19.03 2.31 19.11 2.37 19.18C2.43 19.25 2.49 19.33 2.55 19.41C2.61 19.49 2.67 19.56 2.73 19.63C2.79 19.7 2.85 19.78 2.92 19.85C2.98 19.92 3.05 19.99 3.11 20.07C3.17 20.14 3.24 20.21 3.31 20.28C3.38 20.35 3.44 20.42 3.51 20.49C3.58 20.56 3.65 20.62 3.72 20.69C3.79 20.76 3.86 20.82 3.93 20.89C4 20.95 4.07 21.02 4.15 21.08C4.22 21.14 4.3 21.2 4.37 21.27C4.44 21.33 4.52 21.39 4.59 21.45C4.66 21.51 4.74 21.57 4.82 21.63C4.9 21.69 4.97 21.74 5.05 21.8C5.13 21.86 5.21 21.91 5.29 21.96C5.37 22.01 5.45 22.07 5.53 22.12C5.61 22.17 5.69 22.22 5.78 22.27C5.86 22.32 5.95 22.37 6.03 22.42C6.11 22.47 6.2 22.52 6.28 22.56C6.37 22.61 6.45 22.65 6.54 22.7C6.63 22.75 6.71 22.79 6.8 22.83C6.89 22.87 6.98 22.91 7.06 22.95C7.15 22.99 7.24 23.03 7.33 23.07C7.42 23.11 7.51 23.14 7.6 23.18C7.69 23.22 7.78 23.25 7.87 23.28C7.96 23.31 8.05 23.35 8.15 23.38C8.24 23.41 8.34 23.44 8.43 23.47C8.52 23.5 8.62 23.53 8.71 23.55C8.8 23.57 8.9 23.6 9 23.63C9.1 23.65 9.19 23.68 9.29 23.7C9.39 23.72 9.48 23.74 9.58 23.76C9.68 23.78 9.78 23.8 9.87 23.82C9.97 23.84 10.07 23.85 10.17 23.87C10.27 23.89 10.37 23.9 10.47 23.91C10.57 23.92 10.67 23.93 10.77 23.94C10.87 23.95 10.97 23.96 11.07 23.97C11.17 23.98 11.27 23.98 11.38 23.99C11.48 23.99 11.58 23.99 11.69 24C11.79 24 11.9 24 12 24C12.1 24 12.21 24 12.31 24C12.41 24 12.52 24 12.62 23.99C12.72 23.99 12.82 23.98 12.93 23.97C13.03 23.97 13.13 23.95 13.23 23.94C13.33 23.93 13.43 23.92 13.53 23.91C13.63 23.9 13.73 23.88 13.83 23.87C13.93 23.85 14.03 23.84 14.13 23.82C14.23 23.8 14.33 23.78 14.42 23.76C14.52 23.74 14.61 23.72 14.71 23.7C14.81 23.68 14.9 23.65 15 23.63C15.1 23.61 15.19 23.58 15.29 23.55C15.39 23.52 15.48 23.49 15.57 23.47C15.66 23.44 15.76 23.41 15.85 23.38C15.94 23.35 16.04 23.32 16.13 23.28C16.22 23.25 16.31 23.21 16.4 23.18C16.49 23.14 16.58 23.11 16.67 23.07C16.76 23.03 16.85 22.99 16.94 22.95C17.03 22.91 17.12 22.87 17.2 22.83C17.29 22.79 17.37 22.74 17.46 22.7C17.55 22.66 17.63 22.61 17.72 22.56C17.81 22.51 17.89 22.47 17.97 22.42C18.05 22.37 18.14 22.32 18.22 22.27C18.3 22.22 18.38 22.17 18.47 22.12C18.55 22.07 18.63 22.01 18.71 21.96C18.79 21.91 18.87 21.85 18.95 21.8C19.03 21.74 19.11 21.69 19.18 21.63C19.25 21.57 19.33 21.51 19.41 21.45C19.49 21.39 19.56 21.33 19.63 21.27C19.7 21.21 19.78 21.15 19.85 21.08C19.92 21.02 19.99 20.95 20.07 20.89C20.14 20.83 20.21 20.76 20.28 20.69C20.35 20.62 20.42 20.56 20.49 20.49C20.56 20.42 20.62 20.35 20.69 20.28C20.76 20.21 20.82 20.14 20.89 20.07C20.95 20 21.02 19.93 21.08 19.85C21.14 19.78 21.2 19.7 21.27 19.63C21.33 19.56 21.39 19.48 21.45 19.41C21.51 19.34 21.57 19.26 21.63 19.18C21.69 19.1 21.74 19.03 21.8 18.95C21.86 18.87 21.91 18.79 21.96 18.71C22.01 18.63 22.07 18.55 22.12 18.47C22.17 18.39 22.22 18.31 22.27 18.22C22.32 18.14 22.37 18.05 22.42 17.97C22.47 17.89 22.52 17.8 22.56 17.72C22.61 17.63 22.65 17.55 22.7 17.46C22.75 17.37 22.79 17.29 22.83 17.2C22.87 17.11 22.91 17.02 22.95 16.94C22.99 16.85 23.03 16.76 23.07 16.67C23.11 16.58 23.14 16.49 23.18 16.4C23.22 16.31 23.25 16.22 23.28 16.13C23.31 16.04 23.35 15.95 23.38 15.85C23.41 15.75 23.44 15.66 23.47 15.57C23.5 15.48 23.53 15.38 23.55 15.29C23.58 15.2 23.6 15.1 23.63 15C23.65 14.9 23.68 14.81 23.7 14.71C23.72 14.61 23.74 14.52 23.76 14.42C23.78 14.32 23.8 14.22 23.82 14.13C23.84 14.03 23.85 13.93 23.87 13.83C23.89 13.73 23.9 13.63 23.91 13.53C23.92 13.43 23.93 13.33 23.94 13.23C23.95 13.13 23.96 13.03 23.97 12.93C23.98 12.83 23.98 12.73 23.99 12.62C23.99 12.52 23.99 12.42 24 12.31C24 12.21 24 12.1 24 12C24 11.9 24 11.79 24 11.69C24 11.59 24 11.48 23.99 11.38C23.99 11.28 23.98 11.18 23.97 11.07C23.97 10.97 23.95 10.87 23.94 10.77C23.93 10.67 23.92 10.57 23.91 10.47C23.9 10.37 23.88 10.27 23.87 10.17C23.85 10.07 23.84 9.97 23.82 9.87C23.8 9.77 23.78 9.67 23.76 9.58C23.74 9.48 23.72 9.39 23.7 9.29C23.68 9.19 23.65 9.1 23.63 9C23.61 8.9 23.58 8.81 23.55 8.71C23.52 8.62 23.49 8.52 23.47 8.43C23.44 8.34 23.41 8.24 23.38 8.15C23.35 8.06 23.32 7.96 23.28 7.87C23.25 7.78 23.21 7.69 23.18 7.6C23.14 7.51 23.11 7.42 23.07 7.33C23.03 7.24 22.99 7.15 22.95 7.06C22.91 6.97 22.87 6.88 22.83 6.8C22.79 6.71 22.74 6.63 22.7 6.54C22.66 6.45 22.61 6.37 22.56 6.28C22.51 6.19 22.47 6.11 22.42 6.03C22.37 5.95 22.32 5.86 22.27 5.78C22.22 5.7 22.17 5.62 22.12 5.53C22.07 5.45 22.01 5.37 21.96 5.29C21.91 5.21 21.85 5.13 21.8 5.05C21.74 4.97 21.69 4.89 21.63 4.82C21.57 4.75 21.51 4.67 21.45 4.59C21.39 4.51 21.33 4.44 21.27 4.37C21.21 4.3 21.15 4.22 21.08 4.15C21.01 4.08 20.95 4.01 20.89 3.93C20.83 3.86 20.76 3.79 20.69 3.72C20.62 3.65 20.56 3.58 20.49 3.51C20.42 3.44 20.35 3.38 20.28 3.31C20.21 3.24 20.14 3.18 20.07 3.11C20 3.05 19.93 2.98 19.85 2.92C19.77 2.86 19.7 2.8 19.63 2.73C19.56 2.67 19.48 2.61 19.41 2.55C19.34 2.49 19.26 2.43 19.18 2.37C19.1 2.31 19.03 2.26 18.95 2.2C18.87 2.14 18.79 2.09 18.71 2.04C18.63 1.99 18.55 1.93 18.47 1.88C18.39 1.83 18.31 1.78 18.22 1.73C18.14 1.68 18.05 1.63 17.97 1.58C17.89 1.53 17.8 1.48 17.72 1.44C17.63 1.39 17.55 1.35 17.46 1.3C17.37 1.26 17.29 1.21 17.2 1.17C17.11 1.13 17.02 1.09 16.94 1.05C16.85 1.01 16.76 0.97 16.67 0.93C16.58 0.89 16.49 0.86 16.4 0.82C16.31 0.78 16.22 0.75 16.13 0.72C16.04 0.69 15.95 0.65 15.85 0.62C15.76 0.59 15.66 0.56 15.57 0.53C15.48 0.5 15.38 0.47 15.29 0.45C15.2 0.42 15.1 0.4 15 0.37C14.9 0.35 14.81 0.32 14.71 0.3C14.61 0.28 14.52 0.26 14.42 0.24C14.32 0.22 14.22 0.2 14.13 0.18C14.03 0.16 13.93 0.15 13.83 0.13C13.73 0.11 13.63 0.1 13.53 0.09C13.43 0.08 13.33 0.07 13.23 0.06C13.13 0.05 13.03 0.04 12.93 0.03C12.83 0.03 12.73 0.02 12.62 0.01C12.52 0.01 12.42 0.01 12.31 0C12.21 0 12.1 0 12 0Z" fill="white"/>
<path d="M8.94002 16.6516H8.92002H8.90002H8.87002H8.85002H8.83002H8.81002H8.78002H8.76002H8.74002H8.72002H8.70002H8.67002H8.65002H8.63002H8.61002H8.58002H8.56002H8.54002H8.52002H8.50002H8.47002H8.45002H8.43002H8.41002H8.38002H8.36002H8.34002H8.32002H8.30002H8.27002H8.25002H8.23002H8.21002H8.18002H8.16002H8.14002H8.12002H8.10002H8.07002H8.05002H8.03002H8.01002H7.98002H7.96002H7.94002H7.92002H7.90002H7.87002H7.85002H7.83002H7.81002H7.78002H7.76002H7.74002H7.72002H7.70002H7.67002H7.65002H7.63002H7.61002H7.58002H7.56002H7.54002H7.52002V16.5016V16.3616V16.2116V16.0716V15.9216V15.7816V15.6316V15.4916V15.3416V15.2016V15.0516V14.9116V14.7616V14.6116V14.4716V14.3216V14.1816V14.0316V13.8916V13.7416V13.6016V13.4516V13.3116V13.1616V13.0216V12.8716V12.7316V12.5816V12.4416V12.2916V12.1516V12.0016V11.8516V11.7116V11.5616V11.4216V11.2716V11.1316V10.9816V10.8416V10.6916V10.5516V10.4016V10.2616V10.1116V9.97156V9.82156V9.68156V9.53156V9.39156V9.24156V9.09156V8.95156V8.80156V8.66156V8.51156V8.37156V8.22156V8.08156V7.93156V7.79156V7.64156V7.50156V7.35156H7.54002H7.56002H7.58002H7.61002H7.63002H7.65002H7.67002H7.70002H7.72002H7.74002H7.76002H7.78002H7.81002H7.83002H7.85002H7.87002H7.90002H7.92002H7.94002H7.96002H7.98002H8.01002H8.03002H8.05002H8.07002H8.10002H8.12002H8.14002H8.16002H8.18002H8.21002H8.23002H8.25002H8.27002H8.30002H8.32002H8.34002H8.36002H8.38002H8.41002H8.43002H8.45002H8.47002H8.50002H8.52002H8.54002H8.56002H8.58002H8.61002H8.63002H8.65002H8.67002H8.70002H8.72002H8.74002H8.76002H8.78002H8.81002H8.83002H8.85002H8.87002H8.90002H8.92002H8.94002V7.50156V7.64156V7.79156V7.93156V8.08156V8.22156V8.37156V8.51156V8.66156V8.80156V8.95156V9.09156V9.24156V9.39156V9.53156V9.68156V9.82156V9.97156V10.1116V10.2616V10.4016V10.5516V10.6916V10.8416V10.9816V11.1316V11.2716V11.4216V11.5616V11.7116V11.8516V12.0016V12.1516V12.2916V12.4416V12.5816V12.7316V12.8716V13.0216V13.1616V13.3116V13.4516V13.6016V13.7416V13.8916V14.0316V14.1816V14.3216V14.4716V14.6116V14.7616V14.9116V15.0516V15.2016V15.3416V15.4916V15.6316V15.7816V15.9216V16.0716V16.2116V16.3616V16.5016V16.6516Z" fill="white"/>
<path d="M16.4801 16.6516H16.4601H16.4401H16.4101H16.3901H16.3701H16.3501H16.3301H16.3001H16.2801H16.2601H16.2401H16.2101H16.1901H16.1701H16.1501H16.1301H16.1001H16.0801H16.0601H16.0401H16.0101H15.9901H15.9701H15.9501H15.9201H15.9001H15.8801H15.8601H15.8401H15.8101H15.7901H15.7701H15.7501H15.7201H15.7001H15.6801H15.6601H15.6401H15.6101H15.5901H15.5701H15.5501H15.5201H15.5001H15.4801H15.4601H15.4401H15.4101H15.3901H15.3701H15.3501H15.3201H15.3001H15.2801H15.2601H15.2401H15.2101H15.1901H15.1701H15.1501H15.1201H15.1001H15.0801H15.0601V16.5016V16.3616V16.2116V16.0716V15.9216V15.7816V15.6316V15.4916V15.3416V15.2016V15.0516V14.9116V14.7616V14.6116V14.4716V14.3216V14.1816V14.0316V13.8916V13.7416V13.6016V13.4516V13.3116V13.1616V13.0216V12.8716V12.7316V12.5816V12.4416V12.2916V12.1516V12.0016V11.8516V11.7116V11.5616V11.4216V11.2716V11.1316V10.9816V10.8416V10.6916V10.5516V10.4016V10.2616V10.1116V9.97156V9.82156V9.68156V9.53156V9.39156V9.24156V9.09156V8.95156V8.80156V8.66156V8.51156V8.37156V8.22156V8.08156V7.93156V7.79156V7.64156V7.50156V7.35156H15.0801H15.1001H15.1201H15.1501H15.1701H15.1901H15.2101H15.2401H15.2601H15.2801H15.3001H15.3201H15.3501H15.3701H15.3901H15.4101H15.4401H15.4601H15.4801H15.5001H15.5201H15.5501H15.5701H15.5901H15.6101H15.6401H15.6601H15.6801H15.7001H15.7201H15.7501H15.7701H15.7901H15.8101H15.8401H15.8601H15.8801H15.9001H15.9201H15.9501H15.9701H15.9901H16.0101H16.0401H16.0601H16.0801H16.1001H16.1301H16.1501H16.1701H16.1901H16.2101H16.2401H16.2601H16.2801H16.3001H16.3301H16.3501H16.3701H16.3901H16.4101H16.4401H16.4601H16.4801V7.50156V7.64156V7.79156V7.93156V8.08156V8.22156V8.37156V8.51156V8.66156V8.80156V8.95156V9.09156V9.24156V9.39156V9.53156V9.68156V9.82156V9.97156V10.1116V10.2616V10.4016V10.5516V10.6916V10.8416V10.9816V11.1316V11.2716V11.4216V11.5616V11.7116V11.8516V12.0016V12.1516V12.2916V12.4416V12.5816V12.7316V12.8716V13.0216V13.1616V13.3116V13.4516V13.6016V13.7416V13.8916V14.0316V14.1816V14.3216V14.4716V14.6116V14.7616V14.9116V15.0516V15.2016V15.3416V15.4916V15.6316V15.7816V15.9216V16.0716V16.2116V16.3616V16.5016V16.6516Z" fill="white"/>
<path d="M12.71 16.6516H12.69H12.67H12.64H12.62H12.6H12.58H12.56H12.53H12.51H12.49H12.47H12.44H12.42H12.4H12.38H12.35H12.33H12.31H12.29H12.27H12.24H12.22H12.2H12.18H12.15H12.13H12.11H12.09H12.07H12.04H12.02H12H11.98H11.95H11.93H11.91H11.89H11.87H11.84H11.82H11.8H11.78H11.75H11.73H11.71H11.69H11.67H11.64H11.62H11.6H11.58H11.55H11.53H11.51H11.49H11.47H11.44H11.42H11.4H11.38H11.35H11.33H11.31H11.29V16.5016V16.3616V16.2116V16.0716V15.9216V15.7816V15.6316V15.4916V15.3416V15.2016V15.0516V14.9116V14.7616V14.6116V14.4716V14.3216V14.1816V14.0316V13.8916V13.7416V13.6016V13.4516V13.3116V13.1616V13.0216V12.8716V12.7316V12.5816V12.4416V12.2916V12.1516V12.0016V11.8516V11.7116V11.5616V11.4216V11.2716V11.1316V10.9816V10.8416V10.6916V10.5516V10.4016V10.2616V10.1116V9.97156V9.82156V9.68156V9.53156V9.39156V9.24156V9.09156V8.95156V8.80156V8.66156V8.51156V8.37156V8.22156V8.08156V7.93156V7.79156V7.64156V7.50156V7.35156H11.31H11.33H11.35H11.38H11.4H11.42H11.44H11.47H11.49H11.51H11.53H11.55H11.58H11.6H11.62H11.64H11.67H11.69H11.71H11.73H11.75H11.78H11.8H11.82H11.84H11.87H11.89H11.91H11.93H11.95H11.98H12H12.02H12.04H12.07H12.09H12.11H12.13H12.15H12.18H12.2H12.22H12.24H12.27H12.29H12.31H12.33H12.35H12.38H12.4H12.42H12.44H12.47H12.49H12.51H12.53H12.56H12.58H12.6H12.62H12.64H12.67H12.69H12.71V7.50156V7.64156V7.79156V7.93156V8.08156V8.22156V8.37156V8.51156V8.66156V8.80156V8.95156V9.09156V9.24156V9.39156V9.53156V9.68156V9.82156V9.97156V10.1116V10.2616V10.4016V10.5516V10.6916V10.8416V10.9816V11.1316V11.2716V11.4216V11.5616V11.7116V11.8516V12.0016V12.1516V12.2916V12.4416V12.5816V12.7316V12.8716V13.0216V13.1616V13.3116V13.4516V13.6016V13.7416V13.8916V14.0316V14.1816V14.3216V14.4716V14.6116V14.7616V14.9116V15.0516V15.2016V15.3416V15.4916V15.6316V15.7816V15.9216V16.0716V16.2116V16.3616V16.5016V16.6516Z" fill="white"/>
<path d="M10.0102 13.4422H9.9502H9.9002H9.8402H9.7902H9.7302H9.6702H9.6202H9.5602H9.5102H9.4502H9.4002H9.3402H9.2802H9.2302H9.1702H9.1202H9.0602H9.0102H8.9502H8.9002H8.8402H8.7802H8.7302H8.6702H8.6202H8.5602H8.5102H8.4502H8.4002H8.3402H8.2802H8.2302H8.1702H8.1202H8.0602H8.0102H7.9502H7.9002H7.8402H7.7802H7.7302H7.6702H7.6202H7.5602H7.5102H7.4502H7.4002H7.3402H7.2802H7.2302H7.1702H7.1202H7.0602H7.0102H6.9502H6.8902H6.8402H6.7802H6.7302H6.6702H6.6202H6.5602H6.5102H6.4502V13.4222V13.4022V13.3722V13.3522V13.3322V13.3122V13.2822V13.2622V13.2422V13.2222V13.1922V13.1722V13.1522V13.1222V13.1022V13.0822V13.0622V13.0322V13.0122V12.9922V12.9722V12.9422V12.9222V12.9022V12.8822V12.8522V12.8322V12.8122V12.7822V12.7622V12.7422V12.7222V12.6922V12.6722V12.6522V12.6322V12.6022V12.5822V12.5622V12.5322V12.5122V12.4922V12.4722V12.4422V12.4222V12.4022V12.3822V12.3522V12.3322V12.3122V12.2822V12.2622V12.2422V12.2222V12.1922V12.1722V12.1522V12.1322V12.1022V12.0822V12.0622V12.0322V12.0122V11.9922H6.5102H6.5602H6.6202H6.6702H6.7302H6.7802H6.8402H6.8902H6.9502H7.0102H7.0602H7.1202H7.1702H7.2302H7.2802H7.3402H7.4002H7.4502H7.5102H7.5602H7.6202H7.6702H7.7302H7.7802H7.8402H7.9002H7.9502H8.0102H8.0602H8.1202H8.1702H8.2302H8.2802H8.3402H8.4002H8.4502H8.5102H8.5602H8.6202H8.6702H8.7302H8.7802H8.8402H8.9002H8.9502H9.0102H9.0602H9.1202H9.1702H9.2302H9.2802H9.3402H9.4002H9.4502H9.5102H9.5602H9.6202H9.6702H9.7302H9.7902H9.8402H9.9002H9.9502H10.0102V12.0122V12.0322V12.0622V12.0822V12.1022V12.1322V12.1522V12.1722V12.1922V12.2222V12.2422V12.2622V12.2822V12.3122V12.3322V12.3522V12.3822V12.4022V12.4222V12.4422V12.4722V12.4922V12.5122V12.5322V12.5622V12.5822V12.6022V12.6322V12.6522V12.6722V12.6922V12.7222V12.7422V12.7622V12.7822V12.8122V12.8322V12.8522V12.8822V12.9022V12.9222V12.9422V12.9722V12.9922V13.0122V13.0322V13.0622V13.0822V13.1022V13.1222V13.1522V13.1722V13.1922V13.2222V13.2422V13.2622V13.2822V13.3122V13.3322V13.3522V13.3722V13.4022V13.4222V13.4422Z" fill="white"/>
<path d="M17.5502 14.9014H17.4902H17.4402H17.3802H17.3302H17.2702H17.2102H17.1602H17.1002H17.0502H16.9902H16.9402H16.8802H16.8302H16.7702H16.7102H16.6602H16.6002H16.5502H16.4902H16.4402H16.3802H16.3302H16.2702H16.2102H16.1602H16.1002H16.0502H15.9902H15.9402H15.8802H15.8302H15.7702H15.7102H15.6602H15.6002H15.5502H15.4902H15.4402H15.3802H15.3202H15.2702H15.2102H15.1602H15.1002H15.0502H14.9902H14.9402H14.8802H14.8202H14.7702H14.7102H14.6602H14.6002H14.5502H14.4902H14.4402H14.3802H14.3202H14.2702H14.2102H14.1602H14.1002H14.0502H13.9902V14.8714V14.8514V14.8314V14.8114V14.7814V14.7614V14.7414V14.7114V14.6914V14.6714V14.6514V14.6214V14.6014V14.5814V14.5614V14.5314V14.5114V14.4914V14.4714V14.4414V14.4214V14.4014V14.3714V14.3514V14.3314V14.3114V14.2814V14.2614V14.2414V14.2214V14.1914V14.1714V14.1514V14.1214V14.1014V14.0814V14.0614V14.0314V14.0114V13.9914V13.9714V13.9414V13.9214V13.9014V13.8714V13.8514V13.8314V13.8114V13.7814V13.7614V13.7414V13.7214V13.6914V13.6714V13.6514V13.6214V13.6014V13.5814V13.5614V13.5314V13.5114V13.4914V13.4714V13.4414H14.0502H14.1002H14.1602H14.2102H14.2702H14.3202H14.3802H14.4402H14.4902H14.5502H14.6002H14.6602H14.7102H14.7702H14.8202H14.8802H14.9402H14.9902H15.0502H15.1002H15.1602H15.2102H15.2702H15.3202H15.3802H15.4402H15.4902H15.5502H15.6002H15.6602H15.7102H15.7702H15.8302H15.8802H15.9402H15.9902H16.0502H16.1002H16.1602H16.2102H16.2702H16.3302H16.3802H16.4402H16.4902H16.5502H16.6002H16.6602H16.7102H16.7702H16.8302H16.8802H16.9402H16.9902H17.0502H17.1002H17.1602H17.2102H17.2702H17.3302H17.3802H17.4402H17.4902H17.5502V13.4714V13.4914V13.5114V13.5314V13.5614V13.5814V13.6014V13.6214V13.6514V13.6714V13.6914V13.7214V13.7414V13.7614V13.7814V13.8114V13.8314V13.8514V13.8714V13.9014V13.9214V13.9414V13.9714V13.9914V14.0114V14.0314V14.0614V14.0814V14.1014V14.1214V14.1514V14.1714V14.1914V14.2214V14.2414V14.2614V14.2814V14.3114V14.3314V14.3514V14.3714V14.4014V14.4214V14.4414V14.4714V14.4914V14.5114V14.5314V14.5614V14.5814V14.6014V14.6214V14.6514V14.6714V14.6914V14.7114V14.7414V14.7614V14.7814V14.8114V14.8314V14.8514V14.8714V14.9014Z" fill="white"/>
<path d="M13.7802 10.8719H13.7202H13.6702H13.6102H13.5602H13.5002H13.4402H13.3902H13.3302H13.2802H13.2202H13.1702H13.1102H13.0602H13.0002H12.9402H12.8902H12.8302H12.7802H12.7202H12.6702H12.6102H12.5602H12.5002H12.4402H12.3902H12.3302H12.2802H12.2202H12.1702H12.1102H12.0502H12.0002H11.9402H11.8902H11.8302H11.7802H11.7202H11.6702H11.6102H11.5502H11.5002H11.4402H11.3902H11.3302H11.2802H11.2202H11.1702H11.1102H11.0502H11.0002H10.9402H10.8902H10.8302H10.7802H10.7202H10.6702H10.6102H10.5502H10.5002H10.4402H10.3902H10.3302H10.2802H10.2202V10.8519V10.8219V10.8019V10.7819V10.7619V10.7319V10.7119V10.6919V10.6719V10.6419V10.6219V10.6019V10.5719V10.5519V10.5319V10.5119V10.4819V10.4619V10.4419V10.4219V10.3919V10.3719V10.3519V10.3219V10.3019V10.2819V10.2619V10.2319V10.2119V10.1919V10.1719V10.1419V10.1219V10.1019V10.0719V10.0519V10.0319V10.0119V9.98187V9.96187V9.94187V9.92188V9.89188V9.87187V9.85188V9.82187V9.80188V9.78187V9.76188V9.73187V9.71187V9.69187V9.67188V9.64188V9.62187V9.60188V9.57187V9.55188V9.53187V9.51188V9.48187V9.46187V9.44187V9.42188H10.2802H10.3302H10.3902H10.4402H10.5002H10.5502H10.6102H10.6702H10.7202H10.7802H10.8302H10.8902H10.9402H11.0002H11.0502H11.1102H11.1702H11.2202H11.2802H11.3302H11.3902H11.4402H11.5002H11.5502H11.6102H11.6702H11.7202H11.7802H11.8302H11.8902H11.9402H12.0002H12.0502H12.1102H12.1702H12.2202H12.2802H12.3302H12.3902H12.4402H12.5002H12.5602H12.6102H12.6702H12.7202H12.7802H12.8302H12.8902H12.9402H13.0002H13.0602H13.1102H13.1702H13.2202H13.2802H13.3302H13.3902H13.4402H13.5002H13.5602H13.6102H13.6702H13.7202H13.7802V9.44187V9.46187V9.48187V9.51188V9.53187V9.55188V9.57187V9.60188V9.62187V9.64188V9.67188V9.69187V9.71187V9.73187V9.76188V9.78187V9.80188V9.82187V9.85188V9.87187V9.89188V9.92188V9.94187V9.96187V9.98187V10.0119V10.0319V10.0519V10.0719V10.1019V10.1219V10.1419V10.1719V10.1919V10.2119V10.2319V10.2619V10.2819V10.3019V10.3219V10.3519V10.3719V10.3919V10.4219V10.4419V10.4619V10.4819V10.5119V10.5319V10.5519V10.5719V10.6019V10.6219V10.6419V10.6719V10.6919V10.7119V10.7319V10.7619V10.7819V10.8019V10.8219V10.8519V10.8719Z" fill="white"/>
</g>
<defs>
<clipPath id="clip0_1088_10382">
<rect width="24" height="24" fill="white"/>
</clipPath>
</defs>
</svg>
