<svg width="24" height="24" viewBox="0 0 24 24" fill="none" xmlns="http://www.w3.org/2000/svg">
<g clip-path="url(#clip0_1088_10376)">
<path d="M22.51 12C22.51 12.09 22.51 12.18 22.51 12.27C22.51 12.36 22.51 12.45 22.5 12.54C22.5 12.63 22.49 12.72 22.48 12.81C22.48 12.9 22.47 12.99 22.46 13.08C22.46 13.17 22.44 13.26 22.43 13.34C22.42 13.43 22.41 13.51 22.39 13.6C22.38 13.69 22.36 13.77 22.35 13.86C22.33 13.95 22.32 14.03 22.3 14.12C22.28 14.21 22.26 14.29 22.24 14.38C22.22 14.46 22.2 14.55 22.18 14.63C22.16 14.71 22.14 14.8 22.11 14.88C22.09 14.96 22.06 15.05 22.04 15.13C22.02 15.21 21.99 15.29 21.96 15.38C21.93 15.46 21.9 15.54 21.87 15.62C21.84 15.7 21.81 15.78 21.78 15.86C21.75 15.94 21.72 16.02 21.68 16.1C21.65 16.18 21.61 16.26 21.58 16.33C21.54 16.41 21.51 16.48 21.47 16.56C21.43 16.64 21.4 16.71 21.36 16.79C21.32 16.87 21.28 16.94 21.24 17.01C21.2 17.08 21.16 17.16 21.12 17.23C21.08 17.3 21.03 17.38 20.99 17.45C20.95 17.52 20.9 17.59 20.86 17.66C20.81 17.73 20.77 17.8 20.72 17.87C20.67 17.94 20.62 18.01 20.58 18.08C20.53 18.15 20.48 18.22 20.43 18.28C20.38 18.35 20.33 18.41 20.28 18.48C20.23 18.55 20.18 18.61 20.12 18.68C20.07 18.74 20.01 18.81 19.96 18.87C19.9 18.93 19.85 19 19.79 19.06C19.73 19.12 19.68 19.18 19.62 19.24C19.56 19.3 19.5 19.36 19.44 19.42C19.38 19.48 19.32 19.54 19.26 19.6C19.2 19.66 19.14 19.72 19.08 19.77C19.02 19.83 18.95 19.88 18.89 19.94C18.83 20 18.76 20.05 18.7 20.1C18.64 20.15 18.57 20.21 18.5 20.26C18.43 20.31 18.37 20.36 18.3 20.41C18.23 20.46 18.16 20.51 18.1 20.56C18.03 20.61 17.96 20.66 17.89 20.7C17.82 20.75 17.75 20.79 17.68 20.84C17.61 20.89 17.54 20.93 17.47 20.97C17.4 21.01 17.33 21.06 17.25 21.1C17.17 21.14 17.1 21.18 17.03 21.22C16.96 21.26 16.88 21.3 16.81 21.34C16.73 21.38 16.66 21.42 16.58 21.45C16.5 21.49 16.43 21.52 16.35 21.56C16.27 21.6 16.19 21.63 16.12 21.66C16.04 21.69 15.96 21.73 15.88 21.76C15.8 21.79 15.72 21.82 15.64 21.85C15.56 21.88 15.48 21.91 15.4 21.94C15.32 21.97 15.24 21.99 15.15 22.02C15.07 22.05 14.99 22.07 14.9 22.09C14.82 22.11 14.73 22.14 14.65 22.16C14.57 22.18 14.48 22.2 14.4 22.22C14.32 22.24 14.23 22.26 14.14 22.28C14.05 22.3 13.97 22.31 13.88 22.33C13.79 22.35 13.71 22.36 13.62 22.37C13.53 22.38 13.45 22.4 13.36 22.41C13.27 22.42 13.18 22.43 13.1 22.44C13.01 22.44 12.92 22.46 12.83 22.46C12.74 22.46 12.65 22.47 12.56 22.48C12.47 22.49 12.38 22.48 12.29 22.49C12.2 22.5 12.11 22.49 12.02 22.49C11.93 22.49 11.84 22.49 11.75 22.49C11.66 22.49 11.57 22.49 11.48 22.48C11.39 22.48 11.3 22.47 11.21 22.46C11.12 22.46 11.03 22.45 10.94 22.44C10.85 22.44 10.76 22.42 10.68 22.41C10.59 22.4 10.51 22.39 10.42 22.37C10.33 22.36 10.25 22.34 10.16 22.33C10.07 22.31 9.99001 22.3 9.90001 22.28C9.81001 22.26 9.73001 22.24 9.64001 22.22C9.56001 22.2 9.47001 22.18 9.39001 22.16C9.31001 22.14 9.22001 22.12 9.14001 22.09C9.06001 22.07 8.97001 22.04 8.89001 22.02C8.81001 21.99 8.73001 21.97 8.64001 21.94C8.55001 21.91 8.48001 21.88 8.40001 21.85C8.32001 21.82 8.24 21.79 8.16 21.76C8.08 21.73 8.00001 21.7 7.92001 21.66C7.84001 21.63 7.76 21.59 7.69 21.56C7.62 21.53 7.54001 21.49 7.46001 21.45C7.38001 21.41 7.31001 21.38 7.23001 21.34C7.15001 21.3 7.08001 21.26 7.01001 21.22C6.94001 21.18 6.86001 21.14 6.79001 21.1C6.72001 21.06 6.64001 21.01 6.57001 20.97C6.50001 20.93 6.43 20.88 6.36 20.84C6.29 20.79 6.22001 20.75 6.15001 20.7C6.08001 20.65 6.01 20.6 5.94 20.56C5.87 20.51 5.80001 20.46 5.74001 20.41C5.67001 20.36 5.61001 20.31 5.54001 20.26C5.47001 20.21 5.41001 20.16 5.34001 20.1C5.28001 20.05 5.21001 19.99 5.15001 19.94C5.09001 19.88 5.02001 19.83 4.96001 19.77C4.90001 19.71 4.84001 19.66 4.78001 19.6C4.72001 19.54 4.66001 19.48 4.60001 19.42C4.54001 19.36 4.48001 19.3 4.42001 19.24C4.36001 19.18 4.3 19.12 4.25 19.06C4.19 19 4.14 18.93 4.08 18.87C4.02 18.81 3.97001 18.74 3.92001 18.68C3.87001 18.62 3.81001 18.55 3.76001 18.48C3.71001 18.41 3.66 18.35 3.61 18.28C3.56 18.21 3.51001 18.14 3.46001 18.08C3.41001 18.01 3.36001 17.94 3.32001 17.87C3.27001 17.8 3.23001 17.73 3.18001 17.66C3.13001 17.59 3.09 17.52 3.05 17.45C3.01 17.38 2.96001 17.31 2.92001 17.23C2.88001 17.15 2.84 17.08 2.8 17.01C2.76 16.94 2.72001 16.86 2.68001 16.79C2.64001 16.72 2.60001 16.64 2.57001 16.56C2.53001 16.48 2.50001 16.41 2.46001 16.33C2.42001 16.25 2.39 16.17 2.36 16.1C2.33 16.02 2.29001 15.94 2.26001 15.86C2.23001 15.78 2.20001 15.7 2.17001 15.62C2.14001 15.54 2.11 15.46 2.08 15.38C2.05 15.3 2.03 15.22 2 15.13C1.97 15.04 1.95001 14.97 1.93001 14.88C1.91001 14.8 1.88 14.71 1.86 14.63C1.84 14.55 1.82 14.46 1.8 14.38C1.78 14.3 1.76001 14.21 1.74001 14.12C1.72001 14.03 1.71 13.95 1.69 13.86C1.67 13.77 1.66001 13.69 1.65001 13.6C1.64001 13.51 1.62 13.43 1.61 13.34C1.6 13.25 1.59 13.16 1.58 13.08C1.58 12.99 1.56001 12.9 1.56001 12.81C1.56001 12.72 1.55001 12.63 1.54001 12.54C1.54001 12.45 1.54001 12.36 1.53001 12.27C1.52001 12.18 1.53001 12.09 1.53001 12C1.53001 11.91 1.53001 11.82 1.53001 11.73C1.53001 11.64 1.53001 11.55 1.54001 11.46C1.54001 11.37 1.55001 11.28 1.56001 11.19C1.56001 11.1 1.57 11.01 1.58 10.92C1.58 10.83 1.6 10.74 1.61 10.66C1.62 10.57 1.63001 10.49 1.65001 10.4C1.67001 10.31 1.68 10.23 1.69 10.14C1.71 10.05 1.72001 9.97 1.74001 9.88C1.76001 9.79 1.78 9.71 1.8 9.62C1.82 9.54 1.84 9.45 1.86 9.37C1.88 9.29 1.90001 9.2 1.93001 9.12C1.95001 9.04 1.98 8.95 2 8.87C2.03 8.79 2.05 8.71 2.08 8.62C2.11 8.54 2.14001 8.46 2.17001 8.38C2.20001 8.3 2.23001 8.22 2.26001 8.14C2.29001 8.06 2.32 7.98 2.36 7.9C2.39 7.82 2.43001 7.74 2.46001 7.67C2.50001 7.59 2.53001 7.52 2.57001 7.44C2.61001 7.36 2.64001 7.29 2.68001 7.21C2.72001 7.13 2.76 7.06 2.8 6.99C2.84 6.92 2.88001 6.84 2.92001 6.77C2.96001 6.7 3.01 6.62 3.05 6.55C3.09 6.48 3.14001 6.41 3.18001 6.34C3.23001 6.27 3.27001 6.2 3.32001 6.13C3.37001 6.06 3.42001 5.99 3.46001 5.92C3.51001 5.85 3.56 5.78 3.61 5.72C3.66 5.65 3.71001 5.59 3.76001 5.52C3.81001 5.45 3.86001 5.39 3.92001 5.32C3.98001 5.25 4.03 5.19 4.08 5.13C4.14 5.07 4.19 5 4.25 4.94C4.31 4.88 4.36001 4.82 4.42001 4.76C4.48001 4.7 4.54001 4.64 4.60001 4.58C4.66001 4.52 4.72001 4.46 4.78001 4.4C4.84001 4.34 4.90001 4.28 4.96001 4.23C5.02001 4.17 5.09001 4.12 5.15001 4.06C5.21001 4 5.28001 3.95 5.34001 3.9C5.40001 3.85 5.47001 3.79 5.54001 3.74C5.61001 3.69 5.67001 3.64 5.74001 3.59C5.81001 3.54 5.88 3.49 5.94 3.44C6.01 3.39 6.08001 3.34 6.15001 3.3C6.22001 3.25 6.29 3.21 6.36 3.16C6.43 3.11 6.50001 3.07 6.57001 3.03C6.64001 2.99 6.71001 2.94 6.79001 2.9C6.87001 2.86 6.94001 2.82 7.01001 2.78C7.08001 2.74 7.16001 2.7 7.23001 2.66C7.31001 2.62 7.38001 2.58 7.46001 2.55C7.54001 2.51 7.61 2.48 7.69 2.44C7.77 2.4 7.85001 2.37 7.92001 2.34C8.00001 2.31 8.08 2.27 8.16 2.24C8.24 2.21 8.32001 2.18 8.40001 2.15C8.48001 2.12 8.56001 2.09 8.64001 2.06C8.72001 2.03 8.80001 2.01 8.89001 1.98C8.97001 1.95 9.05001 1.93 9.14001 1.91C9.22001 1.89 9.31001 1.86 9.39001 1.84C9.47001 1.82 9.56001 1.8 9.64001 1.78C9.72001 1.76 9.81001 1.74 9.90001 1.72C9.99001 1.7 10.07 1.69 10.16 1.67C10.25 1.65 10.33 1.64 10.42 1.63C10.51 1.62 10.59 1.6 10.68 1.59C10.77 1.58 10.86 1.57 10.94 1.56C11.03 1.56 11.12 1.54 11.21 1.54C11.3 1.54 11.39 1.53 11.48 1.52C11.57 1.52 11.66 1.52 11.75 1.51C11.84 1.5 11.93 1.51 12.02 1.51C12.11 1.51 12.2 1.51 12.29 1.51C12.38 1.51 12.47 1.51 12.56 1.52C12.65 1.53 12.74 1.53 12.83 1.54C12.92 1.54 13.01 1.55 13.1 1.56C13.19 1.56 13.28 1.58 13.36 1.59C13.45 1.6 13.53 1.61 13.62 1.63C13.71 1.64 13.79 1.66 13.88 1.67C13.97 1.69 14.05 1.7 14.14 1.72C14.23 1.74 14.31 1.76 14.4 1.78C14.48 1.8 14.57 1.82 14.65 1.84C14.73 1.86 14.82 1.88 14.9 1.91C14.98 1.93 15.07 1.96 15.15 1.98C15.23 2.01 15.31 2.03 15.4 2.06C15.49 2.09 15.56 2.12 15.64 2.15C15.72 2.18 15.8 2.21 15.88 2.24C15.96 2.27 16.04 2.3 16.12 2.34C16.2 2.37 16.28 2.41 16.35 2.44C16.43 2.48 16.5 2.51 16.58 2.55C16.66 2.59 16.73 2.62 16.81 2.66C16.89 2.7 16.96 2.74 17.03 2.78C17.1 2.82 17.18 2.86 17.25 2.9C17.32 2.94 17.4 2.99 17.47 3.03C17.54 3.07 17.61 3.12 17.68 3.16C17.75 3.21 17.82 3.25 17.89 3.3C17.96 3.35 18.03 3.4 18.1 3.44C18.17 3.49 18.24 3.54 18.3 3.59C18.37 3.64 18.43 3.69 18.5 3.74C18.57 3.79 18.63 3.84 18.7 3.9C18.77 3.96 18.83 4.01 18.89 4.06C18.95 4.12 19.02 4.17 19.08 4.23C19.14 4.29 19.2 4.34 19.26 4.4C19.32 4.46 19.38 4.52 19.44 4.58C19.5 4.64 19.56 4.7 19.62 4.76C19.68 4.82 19.74 4.88 19.79 4.94C19.85 5 19.9 5.07 19.96 5.13C20.02 5.19 20.07 5.26 20.12 5.32C20.17 5.38 20.23 5.45 20.28 5.52C20.33 5.59 20.38 5.65 20.43 5.72C20.48 5.79 20.53 5.86 20.58 5.92C20.63 5.99 20.68 6.06 20.72 6.13C20.77 6.2 20.81 6.27 20.86 6.34C20.91 6.41 20.95 6.48 20.99 6.55C21.03 6.62 21.08 6.69 21.12 6.77C21.16 6.85 21.2 6.92 21.24 6.99C21.28 7.06 21.32 7.14 21.36 7.21C21.4 7.28 21.44 7.36 21.47 7.44C21.51 7.52 21.54 7.59 21.58 7.67C21.62 7.75 21.65 7.83 21.68 7.9C21.71 7.98 21.75 8.06 21.78 8.14C21.81 8.22 21.84 8.3 21.87 8.38C21.9 8.46 21.93 8.54 21.96 8.62C21.99 8.7 22.01 8.78 22.04 8.87C22.07 8.95 22.09 9.03 22.11 9.12C22.13 9.2 22.16 9.29 22.18 9.37C22.2 9.45 22.22 9.54 22.24 9.62C22.26 9.7 22.28 9.79 22.3 9.88C22.32 9.97 22.33 10.05 22.35 10.14C22.37 10.23 22.38 10.31 22.39 10.4C22.4 10.49 22.42 10.57 22.43 10.66C22.44 10.75 22.45 10.84 22.46 10.92C22.46 11.01 22.48 11.1 22.48 11.19C22.48 11.28 22.49 11.37 22.5 11.46C22.5 11.55 22.5 11.64 22.51 11.73C22.52 11.82 22.51 11.91 22.51 12ZM24 12C24 11.9 24 11.79 24 11.69C24 11.59 24 11.48 23.99 11.38C23.99 11.28 23.98 11.18 23.97 11.07C23.97 10.97 23.95 10.87 23.94 10.77C23.93 10.67 23.92 10.57 23.91 10.47C23.9 10.37 23.88 10.27 23.87 10.17C23.85 10.07 23.84 9.97 23.82 9.87C23.8 9.77 23.78 9.67 23.76 9.58C23.74 9.48 23.72 9.39 23.7 9.29C23.68 9.19 23.65 9.1 23.63 9C23.61 8.9 23.58 8.81 23.55 8.71C23.52 8.61 23.49 8.52 23.47 8.43C23.44 8.34 23.41 8.24 23.38 8.15C23.35 8.06 23.32 7.96 23.28 7.87C23.25 7.78 23.21 7.69 23.18 7.6C23.14 7.51 23.11 7.42 23.07 7.33C23.03 7.24 22.99 7.15 22.95 7.06C22.91 6.97 22.87 6.88 22.83 6.8C22.79 6.72 22.74 6.63 22.7 6.54C22.66 6.45 22.61 6.37 22.56 6.28C22.51 6.19 22.47 6.11 22.42 6.03C22.37 5.95 22.32 5.86 22.27 5.78C22.22 5.7 22.17 5.62 22.12 5.53C22.07 5.45 22.01 5.37 21.96 5.29C21.91 5.21 21.85 5.13 21.8 5.05C21.74 4.97 21.69 4.89 21.63 4.82C21.57 4.75 21.51 4.67 21.45 4.59C21.39 4.51 21.33 4.44 21.27 4.37C21.21 4.3 21.15 4.22 21.08 4.15C21.01 4.08 20.95 4.01 20.89 3.93C20.83 3.86 20.76 3.79 20.69 3.72C20.62 3.65 20.56 3.58 20.49 3.51C20.42 3.44 20.35 3.38 20.28 3.31C20.21 3.24 20.14 3.18 20.07 3.11C20 3.05 19.93 2.98 19.85 2.92C19.77 2.86 19.7 2.8 19.63 2.73C19.56 2.67 19.48 2.61 19.41 2.55C19.34 2.49 19.26 2.43 19.18 2.37C19.1 2.31 19.03 2.26 18.95 2.2C18.87 2.14 18.79 2.09 18.71 2.04C18.63 1.99 18.55 1.93 18.47 1.88C18.39 1.83 18.31 1.78 18.22 1.73C18.14 1.68 18.05 1.63 17.97 1.58C17.89 1.53 17.8 1.48 17.72 1.44C17.63 1.39 17.55 1.35 17.46 1.3C17.37 1.25 17.29 1.21 17.2 1.17C17.11 1.13 17.02 1.09 16.94 1.05C16.85 1.01 16.76 0.97 16.67 0.93C16.58 0.89 16.49 0.86 16.4 0.82C16.31 0.78 16.22 0.75 16.13 0.72C16.04 0.69 15.95 0.65 15.85 0.62C15.75 0.59 15.66 0.56 15.57 0.53C15.48 0.5 15.38 0.47 15.29 0.45C15.2 0.42 15.1 0.4 15 0.37C14.9 0.35 14.81 0.32 14.71 0.3C14.61 0.28 14.52 0.26 14.42 0.24C14.32 0.22 14.22 0.2 14.13 0.18C14.03 0.16 13.93 0.15 13.83 0.13C13.73 0.11 13.63 0.1 13.53 0.09C13.43 0.08 13.33 0.07 13.23 0.06C13.13 0.05 13.03 0.04 12.93 0.03C12.83 0.02 12.73 0.02 12.62 0.01C12.52 0.01 12.42 0.01 12.31 0C12.21 0 12.1 0 12 0C11.9 0 11.79 0 11.69 0C11.59 0 11.48 0 11.38 0.01C11.28 0.01 11.18 0.02 11.07 0.03C10.97 0.03 10.87 0.05 10.77 0.06C10.67 0.07 10.57 0.08 10.47 0.09C10.37 0.1 10.27 0.12 10.17 0.13C10.07 0.15 9.97001 0.16 9.87001 0.18C9.77001 0.2 9.67 0.22 9.58 0.24C9.48 0.26 9.39001 0.28 9.29001 0.3C9.19001 0.32 9.1 0.35 9 0.37C8.9 0.39 8.81001 0.42 8.71001 0.45C8.62001 0.48 8.52001 0.51 8.43001 0.53C8.34001 0.56 8.24001 0.59 8.15001 0.62C8.06001 0.65 7.96001 0.68 7.87001 0.72C7.78001 0.75 7.69001 0.79 7.60001 0.82C7.51001 0.86 7.42 0.89 7.33 0.93C7.24 0.97 7.15001 1.01 7.06001 1.05C6.97001 1.09 6.88 1.13 6.8 1.17C6.71 1.21 6.63001 1.26 6.54001 1.3C6.45001 1.34 6.37001 1.39 6.28001 1.44C6.19001 1.49 6.11001 1.53 6.03001 1.58C5.95001 1.63 5.86001 1.68 5.78001 1.73C5.70001 1.78 5.62001 1.83 5.53001 1.88C5.44001 1.93 5.37001 1.99 5.29001 2.04C5.21001 2.09 5.13 2.15 5.05 2.2C4.97 2.26 4.89001 2.31 4.82001 2.37C4.75001 2.43 4.67001 2.49 4.59001 2.55C4.51001 2.61 4.44001 2.67 4.37001 2.73C4.30001 2.79 4.22001 2.85 4.15001 2.92C4.08001 2.99 4.01001 3.05 3.93001 3.11C3.86001 3.17 3.79 3.24 3.72 3.31C3.65 3.38 3.58001 3.44 3.51001 3.51C3.44001 3.58 3.38001 3.65 3.31001 3.72C3.24001 3.79 3.18 3.86 3.11 3.93C3.05 4 2.98001 4.07 2.92001 4.15C2.86001 4.23 2.80001 4.3 2.73001 4.37C2.67001 4.44 2.61 4.52 2.55 4.59C2.49 4.66 2.43001 4.74 2.37001 4.82C2.31001 4.9 2.26001 4.97 2.20001 5.05C2.14001 5.13 2.09001 5.21 2.04001 5.29C1.99001 5.37 1.93 5.45 1.88 5.53C1.83 5.61 1.78001 5.69 1.73001 5.78C1.68001 5.86 1.63 5.95 1.58 6.03C1.53 6.11 1.48 6.2 1.44 6.28C1.39 6.37 1.35 6.45 1.3 6.54C1.26 6.63 1.21001 6.71 1.17001 6.8C1.13001 6.89 1.09 6.98 1.05 7.06C1.01 7.15 0.970008 7.24 0.930008 7.33C0.890008 7.42 0.860007 7.51 0.820007 7.6C0.780007 7.69 0.750001 7.78 0.720001 7.87C0.690001 7.96 0.65001 8.05 0.62001 8.15C0.59001 8.24 0.560014 8.34 0.530014 8.43C0.500014 8.52 0.470012 8.62 0.450012 8.71C0.430012 8.8 0.40001 8.9 0.37001 9C0.35001 9.1 0.320003 9.19 0.300003 9.29C0.280003 9.39 0.260005 9.48 0.240005 9.58C0.220005 9.68 0.200008 9.78 0.180008 9.87C0.160008 9.97 0.150005 10.07 0.130005 10.17C0.110005 10.27 0.100012 10.37 0.0900116 10.47C0.0800116 10.57 0.0700128 10.67 0.0600128 10.77C0.0500128 10.87 0.040014 10.97 0.030014 11.07C0.030014 11.17 0.0200098 11.27 0.0100098 11.38C0.0100098 11.48 0.01 11.58 0 11.69C0 11.79 0 11.9 0 12C0 12.1 0 12.21 0 12.31C0 12.41 9.76585e-06 12.52 0.0100098 12.62C0.0100098 12.72 0.020014 12.82 0.030014 12.93C0.040014 13.04 0.0500128 13.13 0.0600128 13.23C0.0700128 13.33 0.0800116 13.43 0.0900116 13.53C0.100012 13.63 0.120005 13.73 0.130005 13.83C0.150005 13.93 0.160008 14.03 0.180008 14.13C0.200008 14.23 0.220005 14.33 0.240005 14.42C0.260005 14.52 0.280003 14.61 0.300003 14.71C0.320003 14.81 0.35001 14.9 0.37001 15C0.39001 15.1 0.420012 15.19 0.450012 15.29C0.480012 15.39 0.510014 15.48 0.530014 15.57C0.560014 15.66 0.59001 15.76 0.62001 15.85C0.65001 15.94 0.680001 16.04 0.720001 16.13C0.750001 16.22 0.790007 16.31 0.820007 16.4C0.860007 16.49 0.890008 16.58 0.930008 16.67C0.970008 16.76 1.01 16.85 1.05 16.94C1.09 17.03 1.13001 17.12 1.17001 17.2C1.21001 17.28 1.26 17.37 1.3 17.46C1.34 17.55 1.39 17.63 1.44 17.72C1.49 17.81 1.53 17.89 1.58 17.97C1.63 18.05 1.68001 18.14 1.73001 18.22C1.78001 18.3 1.83 18.38 1.88 18.47C1.93 18.55 1.99001 18.63 2.04001 18.71C2.09001 18.79 2.15001 18.87 2.20001 18.95C2.26001 19.03 2.31001 19.11 2.37001 19.18C2.43001 19.25 2.49 19.33 2.55 19.41C2.61 19.49 2.67001 19.56 2.73001 19.63C2.79001 19.7 2.85001 19.78 2.92001 19.85C2.99001 19.92 3.05 19.99 3.11 20.07C3.17 20.14 3.24001 20.21 3.31001 20.28C3.38001 20.35 3.44001 20.42 3.51001 20.49C3.58001 20.56 3.65 20.62 3.72 20.69C3.79 20.76 3.86001 20.82 3.93001 20.89C4.00001 20.95 4.07001 21.02 4.15001 21.08C4.23001 21.14 4.30001 21.2 4.37001 21.27C4.44001 21.34 4.52001 21.39 4.59001 21.45C4.67001 21.51 4.74001 21.57 4.82001 21.63C4.90001 21.69 4.97 21.74 5.05 21.8C5.13 21.86 5.21001 21.91 5.29001 21.96C5.37001 22.01 5.45001 22.07 5.53001 22.12C5.61001 22.17 5.69001 22.22 5.78001 22.27C5.86001 22.32 5.95001 22.37 6.03001 22.42C6.11001 22.47 6.20001 22.52 6.28001 22.56C6.37001 22.61 6.45001 22.65 6.54001 22.7C6.63001 22.74 6.71 22.79 6.8 22.83C6.89 22.87 6.98001 22.91 7.06001 22.95C7.15001 22.99 7.24 23.03 7.33 23.07C7.42 23.11 7.51001 23.14 7.60001 23.18C7.69001 23.22 7.78001 23.25 7.87001 23.28C7.96001 23.31 8.05001 23.35 8.15001 23.38C8.25001 23.41 8.34001 23.44 8.43001 23.47C8.52001 23.5 8.62001 23.53 8.71001 23.55C8.80001 23.57 8.9 23.6 9 23.63C9.1 23.65 9.19001 23.68 9.29001 23.7C9.39001 23.72 9.48 23.74 9.58 23.76C9.68 23.78 9.78001 23.8 9.87001 23.82C9.97001 23.84 10.07 23.85 10.17 23.87C10.27 23.89 10.37 23.9 10.47 23.91C10.57 23.92 10.67 23.93 10.77 23.94C10.87 23.95 10.97 23.96 11.07 23.97C11.17 23.97 11.27 23.98 11.38 23.99C11.48 23.99 11.58 23.99 11.69 24C11.79 24 11.9 24 12 24C12.1 24 12.21 24 12.31 24C12.41 24 12.52 24 12.62 23.99C12.72 23.99 12.82 23.98 12.93 23.97C13.04 23.96 13.13 23.95 13.23 23.94C13.33 23.93 13.43 23.92 13.53 23.91C13.63 23.9 13.73 23.88 13.83 23.87C13.93 23.85 14.03 23.84 14.13 23.82C14.23 23.8 14.33 23.78 14.42 23.76C14.52 23.74 14.61 23.72 14.71 23.7C14.81 23.68 14.9 23.65 15 23.63C15.1 23.61 15.19 23.58 15.29 23.55C15.38 23.52 15.48 23.49 15.57 23.47C15.66 23.44 15.76 23.41 15.85 23.38C15.94 23.35 16.04 23.32 16.13 23.28C16.22 23.25 16.31 23.21 16.4 23.18C16.49 23.14 16.58 23.11 16.67 23.07C16.76 23.03 16.85 22.99 16.94 22.95C17.03 22.91 17.12 22.87 17.2 22.83C17.28 22.79 17.37 22.74 17.46 22.7C17.55 22.66 17.63 22.61 17.72 22.56C17.81 22.51 17.89 22.47 17.97 22.42C18.05 22.37 18.14 22.32 18.22 22.27C18.3 22.22 18.38 22.17 18.47 22.12C18.55 22.07 18.63 22.02 18.71 21.96C18.79 21.9 18.87 21.85 18.95 21.8C19.03 21.74 19.11 21.69 19.18 21.63C19.25 21.57 19.33 21.51 19.41 21.45C19.49 21.39 19.56 21.33 19.63 21.27C19.7 21.21 19.78 21.15 19.85 21.08C19.92 21.01 19.99 20.95 20.07 20.89C20.15 20.83 20.21 20.76 20.28 20.69C20.35 20.62 20.42 20.56 20.49 20.49C20.56 20.42 20.62 20.35 20.69 20.28C20.76 20.21 20.82 20.14 20.89 20.07C20.95 20 21.02 19.93 21.08 19.85C21.14 19.77 21.2 19.7 21.27 19.63C21.33 19.56 21.39 19.48 21.45 19.41C21.51 19.34 21.57 19.26 21.63 19.18C21.69 19.1 21.74 19.03 21.8 18.95C21.86 18.87 21.91 18.79 21.96 18.71C22.01 18.63 22.07 18.55 22.12 18.47C22.17 18.39 22.22 18.31 22.27 18.22C22.32 18.14 22.37 18.05 22.42 17.97C22.47 17.89 22.52 17.8 22.56 17.72C22.61 17.63 22.65 17.55 22.7 17.46C22.75 17.37 22.79 17.29 22.83 17.2C22.87 17.11 22.91 17.02 22.95 16.94C22.99 16.85 23.03 16.76 23.07 16.67C23.11 16.58 23.14 16.49 23.18 16.4C23.22 16.31 23.25 16.22 23.28 16.13C23.31 16.04 23.35 15.95 23.38 15.85C23.41 15.76 23.44 15.66 23.47 15.57C23.5 15.48 23.53 15.38 23.55 15.29C23.57 15.2 23.6 15.1 23.63 15C23.65 14.9 23.68 14.81 23.7 14.71C23.72 14.61 23.74 14.52 23.76 14.42C23.78 14.32 23.8 14.22 23.82 14.13C23.84 14.03 23.85 13.93 23.87 13.83C23.89 13.73 23.9 13.63 23.91 13.53C23.92 13.43 23.93 13.33 23.94 13.23C23.95 13.13 23.96 13.03 23.97 12.93C23.98 12.83 23.98 12.73 23.99 12.62C23.99 12.52 23.99 12.42 24 12.31C24 12.21 24 12.1 24 12Z" fill="white"/>
<path d="M11.9998 8.01172L11.9398 8.11172L11.8698 8.22172L11.8098 8.32172L11.7398 8.43172L11.6798 8.54172L11.6098 8.64172L11.5498 8.75172L11.4798 8.85172L11.4098 8.96172L11.3498 9.07172L11.2798 9.17172L11.2198 9.28172L11.1498 9.38172L11.0898 9.49172L11.0198 9.60172L10.9598 9.70172L10.8898 9.81172L10.8298 9.92172L10.7598 10.0217L10.6998 10.1317L10.6298 10.2317L10.5698 10.3417L10.4998 10.4517L10.4398 10.5517L10.3698 10.6617L10.2998 10.7617L10.2398 10.8717L10.1698 10.9817L10.1098 11.0817L10.0398 11.1917L9.97983 11.2917L9.90982 11.4017L9.84982 11.5117L9.77983 11.6117L9.71982 11.7217L9.64983 11.8217L9.58983 11.9317L9.51982 12.0417L9.45982 12.1417L9.38983 12.2517L9.32982 12.3517L9.25983 12.4617L9.18982 12.5717L9.12982 12.6717L9.05983 12.7817L8.99982 12.8817L8.92982 12.9917L8.86983 13.1017L8.79982 13.2017L8.73982 13.3117L8.66983 13.4117L8.60982 13.5217L8.53983 13.6317L8.47983 13.7317L8.40982 13.8417L8.34982 13.9517L8.27983 14.0517L8.21982 14.1617L8.14983 14.2617L8.07982 14.3717L8.01982 14.4817L7.94983 14.5817L7.88983 14.6917L7.81982 14.7917H7.94983H8.07982H8.21982H8.34982H8.47983H8.60982H8.73982H8.86983H8.99982H9.12982H9.25983H9.38983H9.51982H9.64983H9.77983H9.90982H10.0398H10.1698H10.2998H10.4398H10.5698H10.6998H10.8298H10.9598H11.0898H11.2198H11.3498H11.4798H11.6098H11.7398H11.8698H11.9998H12.1298H12.2598H12.3898H12.5198H12.6598H12.7898H12.9198H13.0498H13.1798H13.3098H13.4398H13.5698H13.6998H13.8298H13.9598H14.0898H14.2198H14.3498H14.4798H14.6098H14.7398H14.8798H15.0098H15.1398H15.2698H15.3998H15.5298H15.6598H15.7898H15.9198H16.0498H16.1798L16.1198 14.6917L16.0498 14.5817L15.9898 14.4817L15.9198 14.3717L15.8498 14.2617L15.7898 14.1617L15.7198 14.0517L15.6598 13.9517L15.5898 13.8417L15.5298 13.7317L15.4598 13.6317L15.3998 13.5217L15.3298 13.4117L15.2698 13.3117L15.1998 13.2017L15.1398 13.1017L15.0698 12.9917L15.0098 12.8817L14.9398 12.7817L14.8798 12.6717L14.8098 12.5717L14.7398 12.4617L14.6798 12.3517L14.6098 12.2517L14.5498 12.1417L14.4798 12.0417L14.4198 11.9317L14.3498 11.8217L14.2898 11.7217L14.2198 11.6117L14.1598 11.5117L14.0898 11.4017L14.0298 11.2917L13.9598 11.1917L13.8998 11.0817L13.8298 10.9817L13.7698 10.8717L13.6998 10.7617L13.6298 10.6617L13.5698 10.5517L13.4998 10.4517L13.4398 10.3417L13.3698 10.2317L13.3098 10.1317L13.2398 10.0217L13.1798 9.92172L13.1098 9.81172L13.0498 9.70172L12.9798 9.60172L12.9198 9.49172L12.8498 9.38172L12.7898 9.28172L12.7198 9.17172L12.6598 9.07172L12.5898 8.96172L12.5198 8.85172L12.4598 8.75172L12.3898 8.64172L12.3298 8.54172L12.2598 8.43172L12.1998 8.32172L12.1298 8.22172L12.0698 8.11172L11.9998 8.01172Z" fill="white"/>
</g>
<defs>
<clipPath id="clip0_1088_10376">
<rect width="24" height="24" fill="white"/>
</clipPath>
</defs>
</svg>
