<svg width="23" height="23" viewBox="0 0 23 23" fill="none" xmlns="http://www.w3.org/2000/svg">
<g clip-path="url(#clip0_1088_10356)">
<path d="M11.34 1.41C11.43 1.41 11.51 1.41 11.6 1.41C11.69 1.41 11.77 1.41 11.85 1.41C11.93 1.41 12.02 1.41 12.1 1.43C12.18 1.43 12.27 1.44 12.35 1.45C12.43 1.45 12.52 1.47 12.6 1.48C12.68 1.49 12.77 1.5 12.85 1.51C12.93 1.52 13.01 1.54 13.1 1.55C13.18 1.56 13.26 1.58 13.34 1.6C13.42 1.62 13.5 1.63 13.58 1.65C13.66 1.67 13.74 1.69 13.82 1.71C13.9 1.73 13.98 1.75 14.06 1.77C14.14 1.79 14.22 1.82 14.29 1.84C14.36 1.86 14.44 1.89 14.52 1.92C14.6 1.95 14.67 1.97 14.75 2C14.83 2.03 14.9 2.06 14.98 2.09C15.06 2.12 15.13 2.15 15.2 2.18C15.27 2.21 15.35 2.24 15.42 2.28C15.49 2.31 15.57 2.35 15.64 2.38C15.71 2.41 15.78 2.45 15.86 2.49C15.94 2.53 16 2.56 16.07 2.6C16.14 2.64 16.21 2.68 16.28 2.72C16.35 2.76 16.42 2.8 16.49 2.84C16.56 2.88 16.63 2.92 16.69 2.97C16.76 3.01 16.82 3.06 16.89 3.1C16.96 3.14 17.02 3.19 17.09 3.24C17.15 3.29 17.22 3.33 17.28 3.38C17.34 3.43 17.41 3.48 17.47 3.53C17.53 3.58 17.59 3.63 17.66 3.68C17.72 3.73 17.78 3.78 17.84 3.83C17.9 3.88 17.96 3.93 18.02 3.99C18.08 4.04 18.14 4.1 18.19 4.15C18.25 4.2 18.3 4.26 18.36 4.32C18.42 4.38 18.47 4.43 18.53 4.49C18.58 4.55 18.64 4.61 18.69 4.66C18.74 4.72 18.8 4.78 18.85 4.84C18.9 4.9 18.95 4.96 19 5.02C19.05 5.08 19.1 5.14 19.15 5.21C19.2 5.27 19.25 5.34 19.3 5.4C19.35 5.46 19.39 5.53 19.44 5.59C19.49 5.65 19.53 5.72 19.58 5.79C19.62 5.86 19.67 5.92 19.71 5.99C19.75 6.06 19.8 6.12 19.84 6.19C19.88 6.26 19.92 6.33 19.96 6.4C20 6.47 20.04 6.54 20.08 6.61C20.12 6.68 20.16 6.75 20.19 6.82C20.23 6.89 20.26 6.96 20.3 7.04C20.33 7.11 20.37 7.19 20.4 7.26C20.43 7.33 20.47 7.41 20.5 7.48C20.53 7.55 20.56 7.63 20.59 7.7C20.62 7.78 20.65 7.85 20.68 7.93C20.71 8.01 20.73 8.08 20.76 8.16C20.79 8.24 20.81 8.31 20.84 8.39C20.86 8.47 20.89 8.55 20.91 8.62C20.93 8.7 20.95 8.78 20.97 8.86C20.99 8.94 21.01 9.02 21.03 9.1C21.05 9.18 21.07 9.26 21.08 9.34C21.1 9.42 21.11 9.5 21.13 9.58C21.14 9.66 21.16 9.74 21.17 9.83C21.18 9.91 21.19 9.99 21.2 10.08C21.21 10.16 21.22 10.25 21.23 10.33C21.23 10.41 21.25 10.5 21.25 10.58C21.25 10.66 21.26 10.75 21.27 10.83C21.28 10.91 21.27 11 21.27 11.08C21.27 11.16 21.27 11.25 21.27 11.34C21.27 11.43 21.27 11.51 21.27 11.6C21.27 11.69 21.27 11.77 21.27 11.85C21.27 11.93 21.27 12.02 21.25 12.1C21.25 12.18 21.24 12.27 21.23 12.35C21.23 12.43 21.21 12.52 21.2 12.6C21.19 12.68 21.18 12.77 21.17 12.85C21.16 12.93 21.14 13.01 21.13 13.1C21.12 13.18 21.1 13.26 21.08 13.34C21.06 13.42 21.05 13.5 21.03 13.58C21.01 13.66 20.99 13.74 20.97 13.82C20.95 13.9 20.93 13.98 20.91 14.06C20.89 14.14 20.86 14.22 20.84 14.29C20.82 14.37 20.79 14.44 20.76 14.52C20.73 14.6 20.71 14.67 20.68 14.75C20.65 14.83 20.62 14.9 20.59 14.98C20.56 15.06 20.53 15.13 20.5 15.2C20.47 15.27 20.44 15.35 20.4 15.42C20.36 15.49 20.33 15.57 20.3 15.64C20.27 15.71 20.23 15.78 20.19 15.86C20.15 15.93 20.12 16 20.08 16.07C20.04 16.14 20 16.21 19.96 16.28C19.92 16.35 19.88 16.42 19.84 16.49C19.8 16.56 19.76 16.63 19.71 16.69C19.67 16.76 19.62 16.82 19.58 16.89C19.54 16.96 19.49 17.02 19.44 17.09C19.39 17.15 19.35 17.22 19.3 17.28C19.25 17.34 19.2 17.41 19.15 17.47C19.1 17.53 19.05 17.59 19 17.66C18.95 17.72 18.9 17.78 18.85 17.84C18.8 17.9 18.75 17.96 18.69 18.02C18.64 18.08 18.58 18.14 18.53 18.19C18.48 18.25 18.42 18.3 18.36 18.36C18.3 18.42 18.25 18.47 18.19 18.53C18.13 18.58 18.07 18.64 18.02 18.69C17.96 18.74 17.9 18.8 17.84 18.85C17.78 18.9 17.72 18.95 17.66 19C17.6 19.05 17.54 19.1 17.47 19.15C17.41 19.2 17.34 19.25 17.28 19.3C17.22 19.35 17.15 19.39 17.09 19.44C17.03 19.49 16.96 19.53 16.89 19.58C16.82 19.62 16.76 19.67 16.69 19.71C16.62 19.75 16.56 19.8 16.49 19.84C16.42 19.88 16.35 19.92 16.28 19.96C16.21 20 16.14 20.04 16.07 20.08C16 20.12 15.93 20.16 15.86 20.19C15.79 20.22 15.72 20.26 15.64 20.3C15.57 20.33 15.49 20.37 15.42 20.4C15.35 20.43 15.27 20.47 15.2 20.5C15.13 20.53 15.05 20.56 14.98 20.59C14.9 20.62 14.83 20.65 14.75 20.68C14.67 20.71 14.6 20.73 14.52 20.76C14.44 20.79 14.37 20.81 14.29 20.84C14.21 20.87 14.13 20.89 14.06 20.91C13.98 20.93 13.9 20.95 13.82 20.97C13.74 20.99 13.66 21.01 13.58 21.03C13.5 21.05 13.42 21.07 13.34 21.08C13.26 21.1 13.18 21.11 13.1 21.13C13.02 21.14 12.94 21.16 12.85 21.17C12.77 21.18 12.69 21.19 12.6 21.2C12.52 21.21 12.43 21.22 12.35 21.23C12.27 21.23 12.18 21.25 12.1 21.25C12.02 21.25 11.93 21.26 11.85 21.27C11.77 21.27 11.68 21.27 11.6 21.27C11.52 21.27 11.43 21.27 11.34 21.27C11.25 21.27 11.17 21.27 11.08 21.27C10.99 21.27 10.91 21.27 10.83 21.27C10.75 21.27 10.66 21.27 10.58 21.25C10.5 21.25 10.41 21.24 10.33 21.23C10.25 21.23 10.16 21.21 10.08 21.2C10 21.19 9.91 21.18 9.83 21.17C9.75 21.16 9.67 21.14 9.58 21.13C9.5 21.12 9.42 21.1 9.34 21.08C9.26 21.06 9.18 21.05 9.1 21.03C9.02 21.01 8.94 20.99 8.86 20.97C8.78 20.95 8.7 20.93 8.62 20.91C8.54 20.89 8.46 20.86 8.39 20.84C8.31 20.82 8.24 20.79 8.16 20.76C8.08 20.73 8.01 20.71 7.93 20.68C7.85 20.65 7.78 20.62 7.7 20.59C7.62 20.56 7.55 20.53 7.48 20.5C7.41 20.47 7.33 20.44 7.26 20.4C7.19 20.37 7.11 20.33 7.04 20.3C6.97 20.27 6.9 20.23 6.82 20.19C6.74 20.15 6.68 20.12 6.61 20.08C6.54 20.04 6.47 20 6.4 19.96C6.33 19.92 6.26 19.88 6.19 19.84C6.12 19.8 6.05 19.76 5.99 19.71C5.92 19.67 5.86 19.62 5.79 19.58C5.72 19.54 5.66 19.49 5.59 19.44C5.53 19.39 5.46 19.35 5.4 19.3C5.34 19.25 5.27 19.2 5.21 19.15C5.15 19.1 5.09 19.05 5.02 19C4.95 18.95 4.9 18.9 4.84 18.85C4.78 18.8 4.72 18.75 4.66 18.69C4.6 18.64 4.54 18.58 4.49 18.53C4.43 18.48 4.38 18.42 4.32 18.36C4.26 18.3 4.21 18.25 4.15 18.19C4.1 18.13 4.04 18.07 3.99 18.02C3.94 17.96 3.88 17.9 3.83 17.84C3.78 17.78 3.73 17.72 3.68 17.66C3.63 17.6 3.58 17.54 3.53 17.47C3.48 17.41 3.43 17.34 3.38 17.28C3.33 17.22 3.29 17.15 3.24 17.09C3.19 17.03 3.15 16.96 3.1 16.89C3.06 16.82 3.01 16.76 2.97 16.69C2.93 16.62 2.88 16.56 2.84 16.49C2.8 16.42 2.76 16.35 2.72 16.28C2.68 16.21 2.64 16.14 2.6 16.07C2.56 16 2.52 15.93 2.49 15.86C2.45 15.79 2.42 15.72 2.38 15.64C2.35 15.57 2.31 15.49 2.28 15.42C2.25 15.35 2.21 15.27 2.18 15.2C2.15 15.13 2.12 15.05 2.09 14.98C2.06 14.91 2.03 14.83 2 14.75C1.97 14.67 1.95 14.6 1.92 14.52C1.89 14.44 1.87 14.37 1.84 14.29C1.82 14.21 1.79 14.13 1.77 14.06C1.75 13.98 1.73 13.9 1.71 13.82C1.69 13.74 1.67 13.66 1.65 13.58C1.63 13.5 1.61 13.42 1.6 13.34C1.58 13.26 1.57 13.18 1.55 13.1C1.54 13.02 1.52 12.94 1.51 12.85C1.5 12.77 1.49 12.69 1.48 12.6C1.47 12.52 1.46 12.43 1.45 12.35C1.45 12.27 1.43 12.18 1.43 12.1C1.43 12.02 1.42 11.93 1.41 11.85C1.41 11.77 1.41 11.68 1.41 11.6C1.41 11.52 1.41 11.43 1.41 11.34C1.41 11.25 1.41 11.17 1.41 11.08C1.41 10.99 1.41 10.91 1.41 10.83C1.41 10.75 1.41 10.66 1.43 10.58C1.43 10.5 1.44 10.41 1.45 10.33C1.45 10.25 1.47 10.16 1.48 10.08C1.49 10 1.5 9.91 1.51 9.83C1.52 9.75 1.54 9.67 1.55 9.58C1.56 9.5 1.58 9.42 1.6 9.34C1.62 9.26 1.63 9.18 1.65 9.1C1.67 9.02 1.69 8.94 1.71 8.86C1.73 8.78 1.75 8.7 1.77 8.62C1.79 8.54 1.82 8.46 1.84 8.39C1.86 8.31 1.89 8.24 1.92 8.16C1.95 8.08 1.97 8.01 2 7.93C2.03 7.85 2.06 7.78 2.09 7.7C2.12 7.62 2.15 7.55 2.18 7.48C2.21 7.41 2.24 7.33 2.28 7.26C2.31 7.19 2.35 7.11 2.38 7.04C2.41 6.97 2.45 6.9 2.49 6.82C2.53 6.75 2.56 6.68 2.6 6.61C2.64 6.54 2.68 6.47 2.72 6.4C2.76 6.33 2.8 6.26 2.84 6.19C2.88 6.12 2.92 6.05 2.97 5.99C3.01 5.92 3.06 5.86 3.1 5.79C3.14 5.72 3.19 5.66 3.24 5.59C3.29 5.53 3.33 5.46 3.38 5.4C3.43 5.34 3.48 5.27 3.53 5.21C3.58 5.15 3.63 5.09 3.68 5.02C3.73 4.95 3.78 4.9 3.83 4.84C3.88 4.78 3.93 4.72 3.99 4.66C4.04 4.6 4.1 4.54 4.15 4.49C4.2 4.43 4.26 4.38 4.32 4.32C4.38 4.26 4.43 4.21 4.49 4.15C4.55 4.1 4.61 4.04 4.66 3.99C4.72 3.94 4.78 3.88 4.84 3.83C4.9 3.78 4.96 3.73 5.02 3.68C5.08 3.63 5.14 3.58 5.21 3.53C5.27 3.48 5.34 3.43 5.4 3.38C5.46 3.33 5.53 3.29 5.59 3.24C5.65 3.19 5.72 3.15 5.79 3.1C5.86 3.06 5.92 3.01 5.99 2.97C6.06 2.93 6.12 2.88 6.19 2.84C6.26 2.8 6.33 2.76 6.4 2.72C6.47 2.68 6.54 2.64 6.61 2.6C6.68 2.56 6.75 2.52 6.82 2.49C6.89 2.46 6.96 2.42 7.04 2.38C7.11 2.35 7.19 2.31 7.26 2.28C7.33 2.25 7.41 2.21 7.48 2.18C7.55 2.15 7.63 2.12 7.7 2.09C7.78 2.06 7.85 2.03 7.93 2C8.01 1.97 8.08 1.95 8.16 1.92C8.24 1.89 8.31 1.87 8.39 1.84C8.47 1.82 8.55 1.79 8.62 1.77C8.7 1.75 8.78 1.73 8.86 1.71C8.94 1.69 9.02 1.67 9.1 1.65C9.18 1.63 9.26 1.61 9.34 1.6C9.42 1.58 9.5 1.57 9.58 1.55C9.66 1.54 9.74 1.52 9.83 1.51C9.92 1.5 9.99 1.49 10.08 1.48C10.16 1.47 10.25 1.46 10.33 1.45C10.41 1.45 10.5 1.43 10.58 1.43C10.66 1.43 10.75 1.42 10.83 1.41C10.91 1.41 11 1.41 11.08 1.41C11.16 1.41 11.25 1.41 11.34 1.41ZM11.34 0C11.24 0 11.14 0 11.05 0C10.95 0 10.86 0 10.76 0.01C10.66 0.01 10.57 0.02 10.47 0.03C10.37 0.03 10.28 0.05 10.18 0.06C10.08 0.07 9.99 0.08 9.9 0.09C9.81 0.1 9.71 0.12 9.62 0.13C9.53 0.14 9.43 0.16 9.34 0.18C9.25 0.2 9.15 0.21 9.06 0.23C8.97 0.25 8.88 0.27 8.78 0.29C8.68 0.31 8.6 0.33 8.51 0.36C8.42 0.38 8.33 0.41 8.24 0.43C8.15 0.45 8.06 0.48 7.97 0.51C7.88 0.54 7.79 0.57 7.71 0.6C7.62 0.63 7.53 0.66 7.45 0.69C7.36 0.72 7.28 0.75 7.19 0.79C7.1 0.82 7.02 0.86 6.93 0.89C6.85 0.93 6.76 0.96 6.68 1C6.6 1.04 6.51 1.08 6.43 1.12C6.35 1.16 6.27 1.2 6.18 1.24C6.1 1.28 6.02 1.32 5.94 1.37C5.86 1.41 5.78 1.46 5.7 1.5C5.62 1.55 5.54 1.59 5.46 1.64C5.38 1.69 5.3 1.74 5.23 1.78C5.15 1.83 5.08 1.88 5 1.93C4.92 1.98 4.85 2.03 4.78 2.09C4.71 2.14 4.63 2.2 4.56 2.25C4.49 2.3 4.42 2.36 4.34 2.42C4.26 2.48 4.2 2.53 4.13 2.59C4.06 2.65 3.99 2.71 3.92 2.77C3.85 2.83 3.78 2.89 3.72 2.95C3.65 3.01 3.59 3.07 3.52 3.14C3.45 3.2 3.39 3.27 3.33 3.33C3.27 3.39 3.2 3.46 3.14 3.52C3.08 3.59 3.02 3.65 2.95 3.72C2.89 3.79 2.83 3.85 2.77 3.92C2.71 3.99 2.65 4.06 2.59 4.13C2.53 4.2 2.48 4.27 2.42 4.34C2.36 4.41 2.31 4.48 2.25 4.56C2.19 4.64 2.14 4.71 2.09 4.78C2.04 4.85 1.99 4.93 1.93 5C1.88 5.08 1.83 5.15 1.78 5.23C1.73 5.31 1.68 5.38 1.64 5.46C1.59 5.54 1.55 5.62 1.5 5.7C1.45 5.78 1.41 5.86 1.37 5.94C1.33 6.02 1.28 6.1 1.24 6.18C1.2 6.26 1.16 6.34 1.12 6.43C1.08 6.52 1.04 6.6 1 6.68C0.96 6.76 0.93 6.85 0.89 6.93C0.85 7.01 0.82 7.1 0.79 7.19C0.76 7.28 0.72 7.36 0.69 7.45C0.66 7.54 0.63 7.62 0.6 7.71C0.57 7.8 0.54 7.89 0.51 7.97C0.48 8.06 0.46 8.15 0.43 8.24C0.4 8.33 0.38 8.42 0.36 8.51C0.34 8.6 0.31 8.69 0.29 8.78C0.27 8.87 0.25 8.96 0.23 9.06C0.21 9.15 0.19 9.24 0.18 9.34C0.16 9.43 0.15 9.53 0.13 9.62C0.11 9.71 0.1 9.81 0.09 9.9C0.08 9.99 0.07 10.09 0.06 10.18C0.05 10.27 0.04 10.37 0.03 10.47C0.02 10.57 0.02 10.66 0.01 10.76C0.01 10.86 0.01 10.95 0 11.05C0 11.15 0 11.24 0 11.34C0 11.44 0 11.54 0 11.63C0 11.73 0 11.82 0.01 11.92C0.01 12.02 0.02 12.11 0.03 12.21C0.03 12.31 0.05 12.4 0.06 12.5C0.07 12.6 0.08 12.69 0.09 12.78C0.1 12.87 0.12 12.97 0.13 13.06C0.14 13.15 0.16 13.25 0.18 13.34C0.2 13.43 0.21 13.53 0.23 13.62C0.25 13.71 0.27 13.8 0.29 13.9C0.31 13.99 0.33 14.08 0.36 14.17C0.38 14.26 0.41 14.35 0.43 14.44C0.46 14.53 0.48 14.62 0.51 14.71C0.54 14.8 0.57 14.89 0.6 14.97C0.63 15.05 0.66 15.15 0.69 15.23C0.72 15.32 0.75 15.4 0.79 15.49C0.82 15.58 0.86 15.66 0.89 15.75C0.93 15.83 0.96 15.92 1 16C1.04 16.08 1.08 16.17 1.12 16.25C1.16 16.33 1.2 16.41 1.24 16.5C1.28 16.58 1.32 16.66 1.37 16.74C1.41 16.82 1.46 16.9 1.5 16.98C1.55 17.06 1.59 17.14 1.64 17.22C1.69 17.3 1.74 17.38 1.78 17.45C1.82 17.52 1.88 17.6 1.93 17.68C1.98 17.76 2.03 17.83 2.09 17.9C2.14 17.97 2.2 18.05 2.25 18.12C2.3 18.19 2.36 18.26 2.42 18.34C2.48 18.42 2.53 18.48 2.59 18.55C2.65 18.62 2.71 18.69 2.77 18.76C2.83 18.83 2.89 18.9 2.95 18.96C3.01 19.03 3.07 19.09 3.14 19.16C3.21 19.23 3.27 19.29 3.33 19.35C3.39 19.41 3.46 19.48 3.52 19.54C3.58 19.6 3.65 19.66 3.72 19.73C3.79 19.79 3.85 19.85 3.92 19.91C3.99 19.97 4.06 20.03 4.13 20.09C4.2 20.15 4.27 20.2 4.34 20.26C4.41 20.32 4.48 20.37 4.56 20.43C4.64 20.49 4.71 20.54 4.78 20.59C4.85 20.64 4.93 20.69 5 20.75C5.08 20.8 5.15 20.85 5.23 20.9C5.31 20.95 5.38 21 5.46 21.04C5.54 21.09 5.62 21.13 5.7 21.18C5.78 21.23 5.86 21.27 5.94 21.31C6.02 21.35 6.1 21.4 6.18 21.44C6.26 21.48 6.34 21.52 6.43 21.56C6.52 21.6 6.6 21.64 6.68 21.68C6.76 21.72 6.85 21.75 6.93 21.79C7.01 21.83 7.1 21.86 7.19 21.89C7.28 21.92 7.36 21.96 7.45 21.99C7.54 22.02 7.62 22.05 7.71 22.08C7.8 22.11 7.89 22.14 7.97 22.17C8.06 22.2 8.15 22.22 8.24 22.25C8.33 22.28 8.42 22.3 8.51 22.32C8.6 22.34 8.69 22.37 8.78 22.39C8.87 22.41 8.96 22.43 9.06 22.45C9.15 22.47 9.24 22.49 9.34 22.5C9.43 22.52 9.53 22.53 9.62 22.55C9.71 22.56 9.81 22.58 9.9 22.59C9.99 22.6 10.09 22.61 10.18 22.62C10.27 22.63 10.37 22.64 10.47 22.65C10.57 22.65 10.66 22.66 10.76 22.67C10.86 22.67 10.95 22.67 11.05 22.68C11.15 22.68 11.24 22.68 11.34 22.68C11.44 22.68 11.54 22.68 11.63 22.68C11.73 22.68 11.82 22.68 11.92 22.67C12.02 22.67 12.11 22.66 12.21 22.65C12.31 22.64 12.4 22.63 12.5 22.62C12.6 22.61 12.69 22.6 12.78 22.59C12.87 22.58 12.97 22.56 13.06 22.55C13.15 22.54 13.25 22.52 13.34 22.5C13.43 22.48 13.53 22.47 13.62 22.45C13.71 22.43 13.8 22.41 13.9 22.39C14 22.37 14.08 22.35 14.17 22.32C14.26 22.3 14.35 22.27 14.44 22.25C14.53 22.23 14.62 22.2 14.71 22.17C14.8 22.14 14.89 22.11 14.97 22.08C15.06 22.05 15.15 22.02 15.23 21.99C15.32 21.96 15.4 21.93 15.49 21.89C15.58 21.86 15.66 21.82 15.75 21.79C15.83 21.75 15.92 21.72 16 21.68C16.08 21.64 16.17 21.6 16.25 21.56C16.33 21.52 16.41 21.48 16.5 21.44C16.59 21.4 16.66 21.36 16.74 21.31C16.82 21.27 16.9 21.22 16.98 21.18C17.06 21.13 17.14 21.09 17.22 21.04C17.3 20.99 17.38 20.94 17.45 20.9C17.53 20.85 17.6 20.8 17.68 20.75C17.76 20.7 17.83 20.65 17.9 20.59C17.97 20.54 18.05 20.48 18.12 20.43C18.19 20.38 18.26 20.32 18.34 20.26C18.42 20.2 18.48 20.15 18.55 20.09C18.62 20.03 18.69 19.97 18.76 19.91C18.83 19.85 18.9 19.79 18.96 19.73C19.03 19.67 19.09 19.61 19.16 19.54C19.23 19.47 19.29 19.41 19.35 19.35C19.41 19.29 19.48 19.22 19.54 19.16C19.6 19.09 19.66 19.03 19.73 18.96C19.79 18.89 19.85 18.83 19.91 18.76C19.97 18.69 20.03 18.62 20.09 18.55C20.15 18.48 20.2 18.41 20.26 18.34C20.32 18.27 20.37 18.2 20.43 18.12C20.49 18.04 20.54 17.97 20.59 17.9C20.64 17.83 20.69 17.75 20.75 17.68C20.8 17.6 20.85 17.53 20.9 17.45C20.95 17.37 21 17.3 21.04 17.22C21.09 17.14 21.13 17.06 21.18 16.98C21.23 16.9 21.27 16.82 21.31 16.74C21.35 16.66 21.4 16.58 21.44 16.5C21.48 16.42 21.52 16.34 21.56 16.25C21.6 16.17 21.64 16.08 21.68 16C21.72 15.92 21.75 15.83 21.79 15.75C21.83 15.67 21.86 15.58 21.89 15.49C21.92 15.4 21.96 15.32 21.99 15.23C22.02 15.14 22.05 15.06 22.08 14.97C22.11 14.88 22.14 14.79 22.17 14.71C22.2 14.62 22.22 14.53 22.25 14.44C22.28 14.35 22.3 14.26 22.32 14.17C22.34 14.08 22.37 13.99 22.39 13.9C22.41 13.81 22.43 13.72 22.45 13.62C22.47 13.53 22.49 13.44 22.5 13.34C22.52 13.25 22.53 13.15 22.55 13.06C22.56 12.97 22.58 12.87 22.59 12.78C22.6 12.69 22.61 12.59 22.62 12.5C22.63 12.41 22.64 12.31 22.65 12.21C22.65 12.11 22.66 12.02 22.67 11.92C22.67 11.82 22.67 11.73 22.68 11.63C22.68 11.53 22.68 11.44 22.68 11.34C22.68 11.24 22.68 11.14 22.68 11.05C22.68 10.95 22.68 10.86 22.67 10.76C22.67 10.66 22.66 10.57 22.65 10.47C22.64 10.37 22.63 10.28 22.62 10.18C22.61 10.08 22.6 9.99 22.59 9.9C22.58 9.81 22.56 9.71 22.55 9.62C22.54 9.53 22.52 9.43 22.5 9.34C22.48 9.25 22.47 9.15 22.45 9.06C22.43 8.97 22.41 8.88 22.39 8.78C22.37 8.69 22.35 8.6 22.32 8.51C22.3 8.42 22.27 8.33 22.25 8.24C22.22 8.15 22.2 8.06 22.17 7.97C22.14 7.88 22.11 7.79 22.08 7.71C22.05 7.63 22.02 7.53 21.99 7.45C21.96 7.36 21.93 7.28 21.89 7.19C21.86 7.1 21.82 7.02 21.79 6.93C21.75 6.85 21.72 6.76 21.68 6.68C21.64 6.6 21.6 6.51 21.56 6.43C21.52 6.35 21.48 6.27 21.44 6.18C21.4 6.09 21.36 6.02 21.31 5.94C21.27 5.86 21.22 5.78 21.18 5.7C21.13 5.62 21.09 5.54 21.04 5.46C20.99 5.38 20.94 5.3 20.9 5.23C20.85 5.15 20.8 5.08 20.75 5C20.7 4.92 20.65 4.85 20.59 4.78C20.54 4.71 20.48 4.63 20.43 4.56C20.38 4.49 20.32 4.42 20.26 4.34C20.2 4.27 20.15 4.2 20.09 4.13C20.03 4.06 19.97 3.99 19.91 3.92C19.85 3.85 19.79 3.78 19.73 3.72C19.67 3.66 19.61 3.59 19.54 3.52C19.48 3.45 19.41 3.39 19.35 3.33C19.29 3.27 19.22 3.2 19.16 3.14C19.09 3.08 19.03 3.02 18.96 2.95C18.89 2.89 18.83 2.83 18.76 2.77C18.69 2.71 18.62 2.65 18.55 2.59C18.48 2.53 18.41 2.48 18.34 2.42C18.27 2.36 18.2 2.31 18.12 2.25C18.04 2.19 17.97 2.14 17.9 2.09C17.83 2.04 17.75 1.99 17.68 1.93C17.6 1.88 17.53 1.83 17.45 1.78C17.37 1.73 17.3 1.68 17.22 1.64C17.14 1.59 17.06 1.55 16.98 1.5C16.9 1.45 16.82 1.41 16.74 1.37C16.66 1.33 16.58 1.28 16.5 1.24C16.42 1.2 16.34 1.16 16.25 1.12C16.16 1.08 16.08 1.04 16 1C15.92 0.96 15.83 0.93 15.75 0.89C15.67 0.85 15.58 0.82 15.49 0.79C15.4 0.76 15.32 0.72 15.23 0.69C15.14 0.66 15.06 0.63 14.97 0.6C14.88 0.57 14.79 0.54 14.71 0.51C14.62 0.48 14.53 0.46 14.44 0.43C14.35 0.4 14.26 0.38 14.17 0.36C14.08 0.34 13.99 0.31 13.9 0.29C13.81 0.27 13.72 0.25 13.62 0.23C13.53 0.21 13.44 0.19 13.34 0.18C13.25 0.16 13.15 0.15 13.06 0.13C12.97 0.12 12.87 0.1 12.78 0.09C12.69 0.08 12.59 0.07 12.5 0.06C12.41 0.05 12.31 0.04 12.21 0.03C12.11 0.02 12.02 0.02 11.92 0.01C11.82 0.01 11.73 0.01 11.63 0C11.53 0 11.44 0 11.34 0Z" fill="white"/>
<path d="M7.56006 11.3406L7.67006 11.4006L7.77006 11.4606L7.87006 11.5206L7.97006 11.5906L8.07006 11.6506L8.17006 11.7106L8.27006 11.7706L8.37006 11.8306L8.47006 11.8906L8.57006 11.9606L8.67006 12.0206L8.77006 12.0806L8.87006 12.1406L8.97006 12.2006L9.07006 12.2606L9.17006 12.3306L9.27006 12.3906L9.37006 12.4506L9.47006 12.5106L9.57006 12.5706L9.67006 12.6306L9.77006 12.7006L9.87006 12.7606L9.97006 12.8206L10.0701 12.8806L10.1701 12.9406L10.2701 13.0006L10.3701 13.0706L10.4701 13.1306L10.5701 13.1906L10.6701 13.2506L10.7701 13.3106L10.8701 13.3706L10.9701 13.4406L11.0701 13.5006L11.1701 13.5606L11.2701 13.6206L11.3701 13.6806L11.4701 13.7406L11.5701 13.8106L11.6701 13.8706L11.7701 13.9306L11.8701 13.9906L11.9701 14.0506L12.0701 14.1106L12.1701 14.1806L12.2701 14.2406L12.3701 14.3006L12.4801 14.3606L12.5801 14.4206L12.6801 14.4806L12.7801 14.5506L12.8801 14.6106L12.9801 14.6706L13.0801 14.7306L13.1801 14.7906L13.2801 14.8606L13.3801 14.9206L13.4801 14.9806L13.5801 15.0406L13.6801 15.1006L13.7801 15.1606L13.8801 15.2306L13.9801 15.2906V15.1606V15.0406V14.9206V14.7906V14.6706V14.5506V14.4206V14.3006V14.1806V14.0506V13.9306V13.8106V13.6806V13.5606V13.4406V13.3106V13.1906V13.0706V12.9406V12.8206V12.7006V12.5706V12.4506V12.3306V12.2006V12.0806V11.9606V11.8306V11.7106V11.5906V11.4606V11.3406V11.2206V11.0906V10.9706V10.8506V10.7206V10.6006V10.4706V10.3506V10.2306V10.1006V9.98062V9.86062V9.73062V9.61062V9.49062V9.36062V9.24062V9.12063V8.99062V8.87063V8.75063V8.62063V8.50063V8.38063V8.25063V8.13063V8.01063V7.88063V7.76063V7.64062V7.51063V7.39062L13.8801 7.45062L13.7801 7.51063L13.6801 7.58063L13.5801 7.64062L13.4801 7.70062L13.3801 7.76063L13.2801 7.82063L13.1801 7.88063L13.0801 7.95062L12.9801 8.01063L12.8801 8.07062L12.7801 8.13063L12.6801 8.19062L12.5801 8.25063L12.4801 8.32062L12.3701 8.38063L12.2701 8.44062L12.1701 8.50063L12.0701 8.56063L11.9701 8.62063L11.8701 8.69062L11.7701 8.75063L11.6701 8.81063L11.5701 8.87063L11.4701 8.93063L11.3701 8.99062L11.2701 9.06063L11.1701 9.12063L11.0701 9.18063L10.9701 9.24062L10.8701 9.30063L10.7701 9.36062L10.6701 9.43063L10.5701 9.49062L10.4701 9.55063L10.3701 9.61062L10.2701 9.67063L10.1701 9.73062L10.0701 9.80063L9.97006 9.86062L9.87006 9.92063L9.77006 9.98062L9.67006 10.0406L9.57006 10.1006L9.47006 10.1706L9.37006 10.2306L9.27006 10.2906L9.17006 10.3506L9.07006 10.4106L8.97006 10.4706L8.87006 10.5406L8.77006 10.6006L8.67006 10.6606L8.57006 10.7206L8.47006 10.7806L8.37006 10.8506L8.27006 10.9106L8.17006 10.9706L8.07006 11.0306L7.97006 11.0906L7.87006 11.1506L7.77006 11.2206L7.67006 11.2806L7.56006 11.3406Z" fill="white"/>
</g>
<defs>
<clipPath id="clip0_1088_10356">
<rect width="22.68" height="22.68" fill="white"/>
</clipPath>
</defs>
</svg>
