<svg width="23" height="23" viewBox="0 0 23 23" fill="none" xmlns="http://www.w3.org/2000/svg">
<g clip-path="url(#clip0_1088_10360)">
<path d="M11.34 21.26C11.25 21.26 11.17 21.26 11.08 21.26C10.99 21.26 10.91 21.26 10.83 21.26C10.75 21.26 10.66 21.26 10.58 21.24C10.5 21.24 10.41 21.23 10.33 21.22C10.25 21.22 10.16 21.2 10.08 21.19C10 21.18 9.91 21.17 9.83 21.16C9.75 21.15 9.67 21.13 9.58 21.12C9.5 21.11 9.42 21.09 9.34 21.07C9.26 21.05 9.18 21.04 9.1 21.02C9.02 21 8.94 20.98 8.86 20.96C8.78 20.94 8.7 20.92 8.62 20.9C8.54 20.88 8.46 20.85 8.39 20.83C8.32 20.81 8.24 20.78 8.16 20.75C8.08 20.72 8.01 20.7 7.93 20.67C7.85 20.64 7.78 20.61 7.7 20.58C7.62 20.55 7.55 20.52 7.48 20.49C7.41 20.46 7.33 20.43 7.26 20.39C7.19 20.36 7.11 20.32 7.04 20.29C6.97 20.26 6.9 20.22 6.82 20.18C6.74 20.14 6.68 20.11 6.61 20.07C6.54 20.03 6.47 19.99 6.4 19.95C6.33 19.91 6.26 19.87 6.19 19.83C6.12 19.79 6.05 19.75 5.99 19.7C5.92 19.66 5.86 19.61 5.79 19.57C5.72 19.53 5.66 19.48 5.59 19.43C5.53 19.38 5.46 19.34 5.4 19.29C5.34 19.24 5.27 19.19 5.21 19.14C5.15 19.09 5.09 19.04 5.02 18.99C4.96 18.94 4.9 18.89 4.84 18.84C4.78 18.79 4.72 18.74 4.66 18.68C4.6 18.63 4.54 18.57 4.49 18.52C4.43 18.47 4.38 18.41 4.32 18.35C4.26 18.29 4.21 18.24 4.15 18.18C4.1 18.12 4.04 18.06 3.99 18.01C3.94 17.95 3.88 17.89 3.83 17.83C3.78 17.77 3.73 17.71 3.68 17.65C3.63 17.59 3.58 17.53 3.53 17.46C3.48 17.4 3.43 17.33 3.38 17.27C3.33 17.21 3.29 17.14 3.24 17.08C3.19 17.02 3.15 16.95 3.1 16.88C3.06 16.81 3.01 16.75 2.97 16.68C2.93 16.61 2.88 16.55 2.84 16.48C2.8 16.41 2.76 16.34 2.72 16.27C2.68 16.2 2.64 16.13 2.6 16.06C2.56 15.99 2.52 15.92 2.49 15.85C2.45 15.78 2.42 15.71 2.38 15.63C2.35 15.56 2.31 15.48 2.28 15.41C2.25 15.34 2.21 15.26 2.18 15.19C2.15 15.12 2.12 15.04 2.09 14.97C2.06 14.89 2.03 14.82 2 14.74C1.97 14.66 1.95 14.59 1.92 14.51C1.89 14.43 1.87 14.36 1.84 14.28C1.82 14.2 1.79 14.12 1.77 14.05C1.75 13.97 1.73 13.89 1.71 13.81C1.69 13.73 1.67 13.65 1.65 13.57C1.63 13.49 1.61 13.41 1.6 13.33C1.58 13.25 1.57 13.17 1.55 13.09C1.54 13.01 1.52 12.93 1.51 12.84C1.5 12.76 1.49 12.68 1.48 12.59C1.47 12.51 1.46 12.42 1.45 12.34C1.45 12.26 1.43 12.17 1.43 12.09C1.43 12.01 1.42 11.92 1.41 11.84C1.4 11.76 1.41 11.67 1.41 11.59C1.41 11.51 1.41 11.42 1.41 11.33C1.41 11.24 1.41 11.16 1.41 11.07C1.41 10.98 1.41 10.9 1.41 10.82C1.41 10.74 1.41 10.65 1.43 10.57C1.43 10.49 1.44 10.4 1.45 10.32C1.45 10.24 1.47 10.15 1.48 10.07C1.49 9.99 1.5 9.9 1.51 9.82C1.52 9.74 1.54 9.66 1.55 9.57C1.56 9.49 1.58 9.41 1.6 9.33C1.62 9.25 1.63 9.17 1.65 9.09C1.67 9.01 1.69 8.93 1.71 8.85C1.73 8.77 1.75 8.69 1.77 8.61C1.79 8.53 1.82 8.45 1.84 8.38C1.86 8.3 1.89 8.23 1.92 8.15C1.95 8.07 1.97 8 2 7.92C2.03 7.84 2.06 7.77 2.09 7.69C2.12 7.61 2.15 7.54 2.18 7.47C2.21 7.4 2.24 7.32 2.28 7.25C2.32 7.18 2.35 7.1 2.38 7.03C2.41 6.96 2.45 6.89 2.49 6.81C2.53 6.74 2.56 6.67 2.6 6.6C2.64 6.53 2.68 6.46 2.72 6.39C2.76 6.32 2.8 6.25 2.84 6.18C2.88 6.11 2.92 6.04 2.97 5.98C3.01 5.91 3.06 5.85 3.1 5.78C3.14 5.71 3.19 5.65 3.24 5.58C3.29 5.52 3.33 5.45 3.38 5.39C3.43 5.33 3.48 5.26 3.53 5.2C3.58 5.14 3.63 5.08 3.68 5.01C3.73 4.95 3.78 4.89 3.83 4.83C3.88 4.77 3.93 4.71 3.99 4.65C4.04 4.59 4.1 4.53 4.15 4.48C4.2 4.42 4.26 4.37 4.32 4.31C4.38 4.25 4.43 4.2 4.49 4.14C4.55 4.09 4.61 4.03 4.66 3.98C4.72 3.93 4.78 3.87 4.84 3.82C4.9 3.77 4.96 3.72 5.02 3.67C5.08 3.62 5.14 3.57 5.21 3.52C5.27 3.47 5.34 3.42 5.4 3.37C5.46 3.32 5.53 3.28 5.59 3.23C5.65 3.18 5.72 3.14 5.79 3.09C5.86 3.05 5.92 3 5.99 2.96C6.06 2.92 6.12 2.87 6.19 2.83C6.26 2.79 6.33 2.75 6.4 2.71C6.47 2.67 6.54 2.63 6.61 2.59C6.68 2.55 6.75 2.51 6.82 2.48C6.89 2.45 6.96 2.41 7.04 2.37C7.11 2.34 7.19 2.3 7.26 2.27C7.33 2.24 7.41 2.2 7.48 2.17C7.55 2.14 7.63 2.11 7.7 2.08C7.78 2.05 7.85 2.02 7.93 1.99C8.01 1.96 8.08 1.94 8.16 1.91C8.24 1.88 8.31 1.86 8.39 1.83C8.47 1.8 8.55 1.78 8.62 1.76C8.7 1.74 8.78 1.72 8.86 1.7C8.94 1.68 9.02 1.66 9.1 1.64C9.18 1.62 9.26 1.6 9.34 1.59C9.42 1.57 9.5 1.56 9.58 1.54C9.66 1.53 9.74 1.51 9.83 1.5C9.91 1.49 9.99 1.48 10.08 1.47C10.16 1.46 10.25 1.45 10.33 1.44C10.41 1.44 10.5 1.42 10.58 1.42C10.66 1.42 10.75 1.41 10.83 1.4C10.91 1.4 11 1.4 11.08 1.4C11.16 1.4 11.25 1.4 11.34 1.4C11.43 1.4 11.51 1.4 11.6 1.4C11.69 1.4 11.77 1.4 11.85 1.4C11.93 1.4 12.02 1.4 12.1 1.42C12.18 1.42 12.27 1.43 12.35 1.44C12.43 1.44 12.52 1.46 12.6 1.47C12.68 1.48 12.77 1.49 12.85 1.5C12.93 1.51 13.01 1.53 13.1 1.54C13.18 1.55 13.26 1.57 13.34 1.59C13.42 1.61 13.5 1.62 13.58 1.64C13.66 1.66 13.74 1.68 13.82 1.7C13.9 1.72 13.98 1.74 14.06 1.76C14.14 1.78 14.22 1.81 14.29 1.83C14.37 1.85 14.44 1.88 14.52 1.91C14.6 1.94 14.67 1.96 14.75 1.99C14.83 2.02 14.9 2.05 14.98 2.08C15.06 2.11 15.13 2.14 15.2 2.17C15.27 2.2 15.35 2.23 15.42 2.27C15.49 2.3 15.57 2.34 15.64 2.37C15.71 2.4 15.78 2.44 15.86 2.48C15.94 2.52 16 2.55 16.07 2.59C16.14 2.63 16.21 2.67 16.28 2.71C16.35 2.75 16.42 2.79 16.49 2.83C16.56 2.87 16.63 2.91 16.69 2.96C16.76 3 16.82 3.05 16.89 3.09C16.96 3.13 17.02 3.18 17.09 3.23C17.15 3.28 17.22 3.32 17.28 3.37C17.34 3.42 17.41 3.47 17.47 3.52C17.53 3.57 17.59 3.62 17.66 3.67C17.73 3.72 17.78 3.77 17.84 3.82C17.9 3.87 17.96 3.92 18.02 3.98C18.08 4.03 18.14 4.09 18.19 4.14C18.25 4.19 18.3 4.25 18.36 4.31C18.42 4.37 18.47 4.42 18.53 4.48C18.58 4.54 18.64 4.6 18.69 4.65C18.74 4.71 18.8 4.77 18.85 4.83C18.9 4.89 18.95 4.95 19 5.01C19.05 5.07 19.1 5.13 19.15 5.2C19.2 5.26 19.25 5.33 19.3 5.39C19.35 5.45 19.39 5.52 19.44 5.58C19.49 5.64 19.53 5.71 19.58 5.78C19.62 5.85 19.67 5.91 19.71 5.98C19.75 6.05 19.8 6.11 19.84 6.18C19.88 6.25 19.92 6.32 19.96 6.39C20 6.46 20.04 6.53 20.08 6.6C20.12 6.67 20.16 6.74 20.19 6.81C20.23 6.88 20.26 6.95 20.3 7.03C20.33 7.1 20.37 7.18 20.4 7.25C20.43 7.32 20.47 7.4 20.5 7.47C20.53 7.54 20.56 7.62 20.59 7.69C20.62 7.76 20.65 7.84 20.68 7.92C20.71 8 20.73 8.07 20.76 8.15C20.79 8.23 20.81 8.3 20.84 8.38C20.86 8.46 20.89 8.54 20.91 8.61C20.93 8.69 20.95 8.77 20.97 8.85C20.99 8.93 21.01 9.01 21.03 9.09C21.05 9.17 21.07 9.25 21.08 9.33C21.1 9.41 21.11 9.49 21.13 9.57C21.14 9.65 21.16 9.73 21.17 9.82C21.18 9.9 21.19 9.98 21.2 10.07C21.21 10.15 21.22 10.24 21.23 10.32C21.23 10.4 21.25 10.49 21.25 10.57C21.25 10.65 21.26 10.74 21.27 10.82C21.27 10.9 21.27 10.99 21.27 11.07C21.27 11.15 21.27 11.24 21.27 11.33C21.27 11.42 21.27 11.5 21.27 11.59C21.27 11.68 21.27 11.76 21.27 11.84C21.27 11.92 21.27 12.01 21.25 12.09C21.25 12.17 21.24 12.26 21.23 12.34C21.23 12.42 21.21 12.51 21.2 12.59C21.19 12.67 21.18 12.76 21.17 12.84C21.16 12.92 21.14 13 21.13 13.09C21.12 13.17 21.1 13.25 21.08 13.33C21.06 13.41 21.05 13.49 21.03 13.57C21.01 13.65 20.99 13.73 20.97 13.81C20.95 13.89 20.93 13.97 20.91 14.05C20.89 14.13 20.86 14.21 20.84 14.28C20.82 14.36 20.79 14.43 20.76 14.51C20.73 14.59 20.71 14.66 20.68 14.74C20.65 14.82 20.62 14.89 20.59 14.97C20.56 15.05 20.53 15.12 20.5 15.19C20.47 15.26 20.44 15.34 20.4 15.41C20.37 15.48 20.33 15.56 20.3 15.63C20.27 15.7 20.23 15.77 20.19 15.85C20.15 15.92 20.12 15.99 20.08 16.06C20.04 16.13 20 16.2 19.96 16.27C19.92 16.34 19.88 16.41 19.84 16.48C19.8 16.55 19.76 16.62 19.71 16.68C19.67 16.75 19.62 16.81 19.58 16.88C19.54 16.95 19.49 17.01 19.44 17.08C19.39 17.14 19.35 17.21 19.3 17.27C19.25 17.33 19.2 17.4 19.15 17.46C19.1 17.52 19.05 17.58 19 17.65C18.95 17.72 18.9 17.77 18.85 17.83C18.8 17.89 18.75 17.95 18.69 18.01C18.64 18.07 18.58 18.13 18.53 18.18C18.48 18.24 18.42 18.29 18.36 18.35C18.3 18.41 18.25 18.46 18.19 18.52C18.13 18.57 18.07 18.63 18.02 18.68C17.96 18.73 17.9 18.79 17.84 18.84C17.78 18.89 17.72 18.94 17.66 18.99C17.6 19.04 17.54 19.09 17.47 19.14C17.41 19.19 17.34 19.24 17.28 19.29C17.22 19.34 17.15 19.38 17.09 19.43C17.03 19.48 16.96 19.52 16.89 19.57C16.82 19.61 16.76 19.66 16.69 19.7C16.62 19.74 16.56 19.79 16.49 19.83C16.42 19.87 16.35 19.91 16.28 19.95C16.21 19.99 16.14 20.03 16.07 20.07C16 20.11 15.93 20.15 15.86 20.18C15.79 20.21 15.72 20.25 15.64 20.29C15.57 20.32 15.49 20.36 15.42 20.39C15.35 20.42 15.27 20.46 15.2 20.49C15.13 20.52 15.05 20.55 14.98 20.58C14.9 20.61 14.83 20.64 14.75 20.67C14.67 20.7 14.6 20.72 14.52 20.75C14.44 20.78 14.37 20.8 14.29 20.83C14.21 20.85 14.13 20.88 14.06 20.9C13.98 20.92 13.9 20.94 13.82 20.96C13.74 20.98 13.66 21 13.58 21.02C13.5 21.04 13.42 21.06 13.34 21.07C13.26 21.09 13.18 21.1 13.1 21.12C13.02 21.13 12.94 21.15 12.85 21.16C12.76 21.17 12.69 21.18 12.6 21.19C12.52 21.2 12.43 21.21 12.35 21.22C12.27 21.22 12.18 21.24 12.1 21.24C12.02 21.24 11.93 21.25 11.85 21.26C11.77 21.26 11.68 21.26 11.6 21.26C11.52 21.26 11.43 21.26 11.34 21.26ZM11.34 22.68C11.44 22.68 11.54 22.68 11.63 22.68C11.73 22.68 11.82 22.68 11.92 22.67C12.02 22.67 12.11 22.66 12.21 22.65C12.31 22.65 12.4 22.63 12.5 22.62C12.6 22.61 12.69 22.6 12.78 22.59C12.87 22.58 12.97 22.56 13.06 22.55C13.15 22.54 13.25 22.52 13.34 22.5C13.43 22.48 13.53 22.47 13.62 22.45C13.71 22.43 13.8 22.41 13.9 22.39C14 22.37 14.08 22.35 14.17 22.32C14.26 22.3 14.35 22.27 14.44 22.25C14.53 22.23 14.62 22.2 14.71 22.17C14.8 22.14 14.89 22.11 14.97 22.08C15.06 22.05 15.15 22.02 15.23 21.99C15.32 21.96 15.4 21.93 15.49 21.89C15.58 21.86 15.66 21.82 15.75 21.79C15.83 21.75 15.92 21.72 16 21.68C16.08 21.64 16.17 21.6 16.25 21.56C16.33 21.52 16.41 21.48 16.5 21.44C16.58 21.4 16.66 21.36 16.74 21.31C16.82 21.27 16.9 21.22 16.98 21.18C17.06 21.13 17.14 21.09 17.22 21.04C17.3 20.99 17.38 20.94 17.45 20.9C17.53 20.85 17.6 20.8 17.68 20.75C17.76 20.7 17.83 20.65 17.9 20.59C17.97 20.54 18.05 20.48 18.12 20.43C18.19 20.38 18.26 20.32 18.34 20.26C18.42 20.2 18.48 20.15 18.55 20.09C18.62 20.03 18.69 19.97 18.76 19.91C18.83 19.85 18.9 19.79 18.96 19.73C19.03 19.67 19.09 19.61 19.16 19.54C19.23 19.48 19.29 19.41 19.35 19.35C19.41 19.29 19.48 19.22 19.54 19.16C19.6 19.09 19.66 19.03 19.73 18.96C19.79 18.89 19.85 18.83 19.91 18.76C19.97 18.69 20.03 18.62 20.09 18.55C20.15 18.48 20.2 18.41 20.26 18.34C20.32 18.27 20.37 18.2 20.43 18.12C20.49 18.04 20.54 17.97 20.59 17.9C20.64 17.83 20.69 17.75 20.75 17.68C20.8 17.6 20.85 17.53 20.9 17.45C20.95 17.37 21 17.3 21.04 17.22C21.09 17.14 21.13 17.06 21.18 16.98C21.23 16.9 21.27 16.82 21.31 16.74C21.35 16.66 21.4 16.58 21.44 16.5C21.48 16.42 21.52 16.34 21.56 16.25C21.6 16.16 21.64 16.08 21.68 16C21.72 15.92 21.75 15.83 21.79 15.75C21.83 15.67 21.86 15.58 21.89 15.49C21.92 15.4 21.96 15.32 21.99 15.23C22.02 15.14 22.05 15.06 22.08 14.97C22.11 14.88 22.14 14.79 22.17 14.71C22.2 14.62 22.22 14.53 22.25 14.44C22.28 14.35 22.3 14.26 22.32 14.17C22.34 14.08 22.37 13.99 22.39 13.9C22.41 13.81 22.43 13.72 22.45 13.62C22.47 13.53 22.49 13.44 22.5 13.34C22.52 13.25 22.53 13.15 22.55 13.06C22.57 12.97 22.58 12.87 22.59 12.78C22.6 12.69 22.61 12.59 22.62 12.5C22.63 12.41 22.64 12.31 22.65 12.21C22.66 12.11 22.66 12.02 22.67 11.92C22.67 11.82 22.67 11.73 22.68 11.63C22.68 11.53 22.68 11.44 22.68 11.34C22.68 11.24 22.68 11.14 22.68 11.05C22.68 10.95 22.68 10.86 22.67 10.76C22.67 10.66 22.66 10.57 22.65 10.47C22.65 10.37 22.63 10.28 22.62 10.18C22.61 10.08 22.6 9.99 22.59 9.9C22.58 9.81 22.56 9.71 22.55 9.62C22.54 9.53 22.52 9.43 22.5 9.34C22.48 9.25 22.47 9.15 22.45 9.06C22.43 8.97 22.41 8.88 22.39 8.78C22.37 8.69 22.35 8.6 22.32 8.51C22.3 8.42 22.27 8.33 22.25 8.24C22.22 8.15 22.2 8.06 22.17 7.97C22.14 7.88 22.11 7.79 22.08 7.71C22.05 7.63 22.02 7.53 21.99 7.45C21.96 7.36 21.93 7.28 21.89 7.19C21.86 7.1 21.82 7.02 21.79 6.93C21.75 6.85 21.72 6.76 21.68 6.68C21.64 6.6 21.6 6.51 21.56 6.43C21.52 6.35 21.48 6.27 21.44 6.18C21.4 6.1 21.36 6.02 21.31 5.94C21.27 5.86 21.22 5.78 21.18 5.7C21.13 5.62 21.09 5.54 21.04 5.46C20.99 5.38 20.94 5.3 20.9 5.23C20.86 5.16 20.8 5.08 20.75 5C20.7 4.92 20.65 4.85 20.59 4.78C20.54 4.71 20.48 4.63 20.43 4.56C20.38 4.49 20.32 4.42 20.26 4.34C20.2 4.26 20.15 4.2 20.09 4.13C20.03 4.06 19.97 3.99 19.91 3.92C19.85 3.85 19.79 3.78 19.73 3.72C19.67 3.65 19.61 3.59 19.54 3.52C19.47 3.45 19.41 3.39 19.35 3.33C19.29 3.27 19.22 3.2 19.16 3.14C19.1 3.08 19.03 3.02 18.96 2.95C18.89 2.89 18.83 2.83 18.76 2.77C18.69 2.71 18.62 2.65 18.55 2.59C18.48 2.53 18.41 2.48 18.34 2.42C18.27 2.36 18.2 2.31 18.12 2.25C18.04 2.19 17.97 2.14 17.9 2.09C17.83 2.04 17.75 1.99 17.68 1.93C17.6 1.88 17.53 1.83 17.45 1.78C17.37 1.73 17.3 1.68 17.22 1.64C17.14 1.59 17.06 1.55 16.98 1.5C16.9 1.45 16.82 1.41 16.74 1.37C16.66 1.33 16.58 1.28 16.5 1.24C16.42 1.2 16.34 1.16 16.25 1.12C16.16 1.08 16.08 1.04 16 1C15.92 0.96 15.83 0.93 15.75 0.89C15.67 0.85 15.58 0.82 15.49 0.79C15.4 0.76 15.32 0.72 15.23 0.69C15.14 0.66 15.06 0.63 14.97 0.6C14.88 0.57 14.79 0.54 14.71 0.51C14.62 0.48 14.53 0.46 14.44 0.43C14.35 0.4 14.26 0.38 14.17 0.36C14.08 0.34 13.99 0.31 13.9 0.29C13.81 0.27 13.72 0.25 13.62 0.23C13.53 0.21 13.44 0.19 13.34 0.18C13.25 0.16 13.15 0.15 13.06 0.13C12.97 0.12 12.87 0.1 12.78 0.09C12.69 0.08 12.59 0.07 12.5 0.06C12.41 0.05 12.31 0.04 12.21 0.03C12.11 0.03 12.02 0.02 11.92 0.01C11.82 0.01 11.73 0.01 11.63 0C11.53 0 11.44 0 11.34 0C11.24 0 11.14 0 11.05 0C10.95 0 10.86 0 10.76 0.01C10.66 0.01 10.57 0.02 10.47 0.03C10.37 0.04 10.28 0.05 10.18 0.06C10.08 0.07 9.99 0.08 9.9 0.09C9.81 0.1 9.71 0.12 9.62 0.13C9.53 0.14 9.43 0.16 9.34 0.18C9.25 0.2 9.15 0.21 9.06 0.23C8.97 0.25 8.88 0.27 8.78 0.29C8.68 0.31 8.6 0.33 8.51 0.36C8.42 0.38 8.33 0.41 8.24 0.43C8.15 0.45 8.06 0.48 7.97 0.51C7.88 0.54 7.79 0.57 7.71 0.6C7.62 0.63 7.53 0.66 7.45 0.69C7.36 0.72 7.28 0.75 7.19 0.79C7.1 0.82 7.02 0.86 6.93 0.89C6.85 0.93 6.76 0.96 6.68 1C6.6 1.04 6.51 1.08 6.43 1.12C6.35 1.16 6.27 1.2 6.18 1.24C6.09 1.28 6.02 1.32 5.94 1.37C5.86 1.41 5.78 1.46 5.7 1.5C5.62 1.55 5.54 1.59 5.46 1.64C5.38 1.69 5.3 1.74 5.23 1.78C5.15 1.83 5.08 1.88 5 1.93C4.92 1.98 4.85 2.03 4.78 2.09C4.71 2.14 4.63 2.2 4.56 2.25C4.49 2.3 4.42 2.36 4.34 2.42C4.26 2.48 4.2 2.53 4.13 2.59C4.06 2.65 3.99 2.71 3.92 2.77C3.85 2.83 3.78 2.89 3.72 2.95C3.65 3.01 3.59 3.07 3.52 3.14C3.45 3.21 3.39 3.27 3.33 3.33C3.27 3.39 3.2 3.46 3.14 3.52C3.08 3.59 3.02 3.65 2.95 3.72C2.89 3.79 2.83 3.85 2.77 3.92C2.71 3.99 2.65 4.06 2.59 4.13C2.53 4.2 2.48 4.27 2.42 4.34C2.36 4.41 2.31 4.48 2.25 4.56C2.19 4.64 2.14 4.71 2.09 4.78C2.04 4.85 1.99 4.93 1.93 5C1.88 5.08 1.83 5.15 1.78 5.23C1.73 5.31 1.68 5.38 1.64 5.46C1.59 5.54 1.55 5.62 1.5 5.7C1.45 5.78 1.41 5.86 1.37 5.94C1.33 6.02 1.28 6.1 1.24 6.18C1.2 6.26 1.16 6.34 1.12 6.43C1.08 6.51 1.04 6.6 1 6.68C0.96 6.76 0.93 6.85 0.89 6.93C0.85 7.01 0.82 7.1 0.79 7.19C0.76 7.28 0.72 7.36 0.69 7.45C0.66 7.54 0.63 7.62 0.6 7.71C0.57 7.8 0.54 7.89 0.51 7.97C0.48 8.06 0.46 8.15 0.43 8.24C0.4 8.33 0.38 8.42 0.36 8.51C0.34 8.6 0.31 8.69 0.29 8.78C0.27 8.87 0.25 8.96 0.23 9.06C0.21 9.15 0.19 9.24 0.18 9.34C0.16 9.43 0.15 9.53 0.13 9.62C0.12 9.71 0.1 9.81 0.09 9.9C0.08 9.99 0.07 10.09 0.06 10.18C0.05 10.27 0.04 10.37 0.03 10.47C0.03 10.57 0.02 10.66 0.01 10.76C0.01 10.86 0.01 10.95 0 11.05C0 11.15 0 11.24 0 11.34C0 11.44 0 11.54 0 11.63C0 11.73 0 11.82 0.01 11.92C0.01 12.02 0.02 12.11 0.03 12.21C0.04 12.31 0.05 12.4 0.06 12.5C0.07 12.6 0.08 12.69 0.09 12.78C0.1 12.87 0.12 12.97 0.13 13.06C0.14 13.15 0.16 13.25 0.18 13.34C0.2 13.43 0.21 13.53 0.23 13.62C0.25 13.71 0.27 13.8 0.29 13.9C0.31 13.99 0.33 14.08 0.36 14.17C0.38 14.26 0.41 14.35 0.43 14.44C0.46 14.53 0.48 14.62 0.51 14.71C0.54 14.8 0.57 14.89 0.6 14.97C0.63 15.05 0.66 15.15 0.69 15.23C0.72 15.32 0.75 15.4 0.79 15.49C0.82 15.58 0.86 15.66 0.89 15.75C0.93 15.83 0.96 15.92 1 16C1.04 16.08 1.08 16.17 1.12 16.25C1.16 16.33 1.2 16.41 1.24 16.5C1.28 16.59 1.32 16.66 1.37 16.74C1.41 16.82 1.46 16.9 1.5 16.98C1.55 17.06 1.59 17.14 1.64 17.22C1.69 17.3 1.74 17.38 1.78 17.45C1.83 17.53 1.88 17.6 1.93 17.68C1.98 17.76 2.03 17.83 2.09 17.9C2.14 17.97 2.2 18.05 2.25 18.12C2.3 18.19 2.36 18.26 2.42 18.34C2.48 18.41 2.53 18.48 2.59 18.55C2.65 18.62 2.71 18.69 2.77 18.76C2.83 18.83 2.89 18.9 2.95 18.96C3.01 19.02 3.07 19.09 3.14 19.16C3.2 19.23 3.27 19.29 3.33 19.35C3.39 19.41 3.46 19.48 3.52 19.54C3.59 19.6 3.65 19.66 3.72 19.73C3.79 19.79 3.85 19.85 3.92 19.91C3.99 19.97 4.06 20.03 4.13 20.09C4.2 20.15 4.27 20.2 4.34 20.26C4.41 20.32 4.48 20.37 4.56 20.43C4.64 20.49 4.71 20.54 4.78 20.59C4.85 20.64 4.93 20.69 5 20.75C5.08 20.8 5.15 20.85 5.23 20.9C5.31 20.95 5.38 21 5.46 21.04C5.54 21.09 5.62 21.13 5.7 21.18C5.78 21.23 5.86 21.27 5.94 21.31C6.02 21.35 6.1 21.4 6.18 21.44C6.26 21.48 6.34 21.52 6.43 21.56C6.52 21.6 6.6 21.64 6.68 21.68C6.76 21.72 6.85 21.75 6.93 21.79C7.01 21.83 7.1 21.86 7.19 21.89C7.28 21.92 7.36 21.96 7.45 21.99C7.54 22.02 7.62 22.05 7.71 22.08C7.8 22.11 7.89 22.14 7.97 22.17C8.06 22.2 8.15 22.22 8.24 22.25C8.33 22.28 8.42 22.3 8.51 22.32C8.6 22.34 8.69 22.37 8.78 22.39C8.87 22.41 8.96 22.43 9.06 22.45C9.15 22.47 9.24 22.49 9.34 22.5C9.43 22.52 9.53 22.53 9.62 22.55C9.71 22.56 9.81 22.58 9.9 22.59C9.99 22.6 10.09 22.61 10.18 22.62C10.27 22.63 10.37 22.64 10.47 22.65C10.57 22.66 10.66 22.66 10.76 22.67C10.86 22.67 10.95 22.67 11.05 22.68C11.15 22.68 11.24 22.68 11.34 22.68Z" fill="white"/>
<path d="M15.1102 11.3406L15.0102 11.2806L14.9102 11.2206L14.8102 11.1506L14.7102 11.0906L14.6102 11.0306L14.5102 10.9706L14.4102 10.9106L14.3102 10.8406L14.2102 10.7806L14.1102 10.7206L14.0102 10.6606L13.9102 10.6006L13.8102 10.5406L13.7102 10.4706L13.6102 10.4106L13.5102 10.3506L13.4102 10.2906L13.3102 10.2306L13.2102 10.1706L13.1102 10.1006L13.0102 10.0406L12.9102 9.98062L12.8102 9.92063L12.7102 9.86062L12.6102 9.80063L12.5102 9.73062L12.4102 9.67063L12.3102 9.61062L12.2102 9.55063L12.1102 9.49062L12.0102 9.43063L11.9102 9.36062L11.8102 9.30063L11.7102 9.24062L11.6002 9.18063L11.5002 9.12063L11.4002 9.06063L11.3002 8.99062L11.2002 8.93063L11.1002 8.87063L11.0002 8.81063L10.9002 8.75063L10.8002 8.69062L10.7002 8.62063L10.6002 8.56063L10.5002 8.50063L10.4002 8.44062L10.3002 8.38063L10.2002 8.32062L10.1002 8.25063L10.0002 8.19062L9.9002 8.13063L9.8002 8.07062L9.7002 8.01063L9.6002 7.95062L9.5002 7.88063L9.4002 7.82063L9.3002 7.76063L9.2002 7.70062L9.1002 7.64062L9.0002 7.58063L8.9002 7.51063L8.8002 7.45062L8.7002 7.39062V7.51063V7.64062V7.76063V7.88063V8.01063V8.13063V8.25063V8.38063V8.50063V8.62063V8.75063V8.87063V8.99062V9.12063V9.24062V9.36062V9.49062V9.61062V9.73062V9.86062V9.98062V10.1006V10.2306V10.3506V10.4706V10.6006V10.7206V10.8506V10.9706V11.0906V11.2206V11.3406V11.4606V11.5906V11.7106V11.8306V11.9606V12.0806V12.2006V12.3306V12.4506V12.5706V12.7006V12.8206V12.9406V13.0706V13.1906V13.3106V13.4406V13.5606V13.6806V13.8106V13.9306V14.0506V14.1806V14.3006V14.4206V14.5506V14.6706V14.7906V14.9206V15.0406V15.1606V15.2906L8.8002 15.2306L8.9002 15.1606L9.0002 15.1006L9.1002 15.0406L9.2002 14.9806L9.3002 14.9206L9.4002 14.8606L9.5002 14.7906L9.6002 14.7306L9.7002 14.6706L9.8002 14.6106L9.9002 14.5506L10.0002 14.4806L10.1002 14.4206L10.2002 14.3606L10.3002 14.3006L10.4002 14.2406L10.5002 14.1806L10.6002 14.1106L10.7002 14.0506L10.8002 13.9906L10.9002 13.9306L11.0002 13.8706L11.1002 13.8106L11.2002 13.7406L11.3002 13.6806L11.4002 13.6206L11.5002 13.5606L11.6002 13.5006L11.7102 13.4406L11.8102 13.3706L11.9102 13.3106L12.0102 13.2506L12.1102 13.1906L12.2102 13.1306L12.3102 13.0706L12.4102 13.0006L12.5102 12.9406L12.6102 12.8806L12.7102 12.8206L12.8102 12.7606L12.9102 12.7006L13.0102 12.6306L13.1102 12.5706L13.2102 12.5106L13.3102 12.4506L13.4102 12.3906L13.5102 12.3306L13.6102 12.2606L13.7102 12.2006L13.8102 12.1406L13.9102 12.0806L14.0102 12.0206L14.1102 11.9606L14.2102 11.8906L14.3102 11.8306L14.4102 11.7706L14.5102 11.7106L14.6102 11.6506L14.7102 11.5906L14.8102 11.5206L14.9102 11.4606L15.0102 11.4006L15.1102 11.3406Z" fill="white"/>
</g>
<defs>
<clipPath id="clip0_1088_10360">
<rect width="22.68" height="22.68" fill="white"/>
</clipPath>
</defs>
</svg>
