<svg width="24" height="24" viewBox="0 0 24 24" fill="none" xmlns="http://www.w3.org/2000/svg">
<g clip-path="url(#clip0_1088_10406)">
<path d="M12 1.5C12.09 1.5 12.18 1.5 12.27 1.5C12.36 1.5 12.45 1.5 12.54 1.51C12.63 1.51 12.72 1.52 12.81 1.53C12.9 1.53 12.99 1.54 13.08 1.55C13.17 1.55 13.26 1.57 13.34 1.58C13.43 1.59 13.51 1.6 13.6 1.62C13.69 1.64 13.77 1.65 13.86 1.66C13.95 1.68 14.03 1.69 14.12 1.71C14.21 1.73 14.29 1.75 14.38 1.77C14.46 1.79 14.55 1.81 14.63 1.83C14.71 1.85 14.8 1.87 14.88 1.9C14.96 1.92 15.05 1.95 15.13 1.97C15.21 2 15.29 2.02 15.38 2.05C15.46 2.08 15.54 2.11 15.62 2.14C15.7 2.17 15.78 2.2 15.86 2.23C15.94 2.26 16.02 2.29 16.1 2.33C16.18 2.36 16.26 2.4 16.33 2.43C16.41 2.47 16.48 2.5 16.56 2.54C16.64 2.58 16.71 2.61 16.79 2.65C16.87 2.69 16.94 2.73 17.01 2.77C17.08 2.81 17.16 2.85 17.23 2.89C17.3 2.93 17.38 2.98 17.45 3.02C17.52 3.06 17.59 3.11 17.66 3.15C17.73 3.2 17.8 3.24 17.87 3.29C17.94 3.34 18.01 3.39 18.08 3.43C18.15 3.48 18.22 3.53 18.28 3.58C18.35 3.63 18.41 3.68 18.48 3.73C18.55 3.78 18.61 3.83 18.68 3.89C18.74 3.94 18.81 4 18.87 4.05C18.93 4.11 19 4.16 19.06 4.22C19.12 4.28 19.18 4.33 19.24 4.39C19.3 4.45 19.36 4.51 19.42 4.57C19.48 4.63 19.54 4.69 19.6 4.75C19.66 4.81 19.72 4.87 19.77 4.93C19.83 4.99 19.88 5.06 19.94 5.12C20 5.18 20.05 5.25 20.1 5.31C20.15 5.37 20.21 5.44 20.26 5.51C20.31 5.58 20.36 5.64 20.41 5.71C20.46 5.78 20.51 5.85 20.56 5.91C20.61 5.98 20.66 6.05 20.7 6.12C20.75 6.19 20.79 6.26 20.84 6.33C20.89 6.4 20.93 6.47 20.97 6.54C21.01 6.61 21.06 6.68 21.1 6.76C21.14 6.84 21.18 6.91 21.22 6.98C21.26 7.05 21.3 7.13 21.34 7.2C21.38 7.28 21.42 7.35 21.45 7.43C21.49 7.51 21.52 7.58 21.56 7.66C21.6 7.74 21.63 7.82 21.66 7.89C21.69 7.97 21.73 8.05 21.76 8.13C21.79 8.21 21.82 8.29 21.85 8.37C21.88 8.45 21.91 8.53 21.94 8.61C21.97 8.69 21.99 8.77 22.02 8.86C22.05 8.94 22.07 9.02 22.09 9.11C22.11 9.2 22.14 9.28 22.16 9.36C22.18 9.44 22.2 9.53 22.22 9.61C22.24 9.69 22.26 9.78 22.28 9.87C22.3 9.96 22.31 10.04 22.33 10.13C22.35 10.22 22.36 10.3 22.37 10.39C22.38 10.48 22.4 10.56 22.41 10.65C22.42 10.74 22.43 10.83 22.44 10.91C22.44 11 22.46 11.09 22.46 11.18C22.46 11.27 22.47 11.36 22.48 11.45C22.48 11.54 22.48 11.63 22.49 11.72C22.49 11.81 22.49 11.9 22.49 11.99C22.49 12.08 22.49 12.17 22.49 12.26C22.49 12.35 22.49 12.44 22.48 12.53C22.48 12.62 22.47 12.71 22.46 12.8C22.46 12.89 22.45 12.98 22.44 13.07C22.44 13.16 22.42 13.25 22.41 13.33C22.4 13.42 22.39 13.5 22.37 13.59C22.36 13.68 22.34 13.76 22.33 13.85C22.31 13.94 22.3 14.02 22.28 14.11C22.26 14.2 22.24 14.28 22.22 14.37C22.2 14.45 22.18 14.54 22.16 14.62C22.14 14.7 22.12 14.79 22.09 14.87C22.06 14.95 22.04 15.04 22.02 15.12C21.99 15.2 21.97 15.28 21.94 15.37C21.91 15.45 21.88 15.53 21.85 15.61C21.82 15.69 21.79 15.77 21.76 15.85C21.73 15.93 21.7 16.01 21.66 16.09C21.63 16.17 21.59 16.25 21.56 16.32C21.53 16.39 21.49 16.47 21.45 16.55C21.41 16.63 21.38 16.7 21.34 16.78C21.3 16.86 21.26 16.93 21.22 17C21.18 17.07 21.14 17.15 21.1 17.22C21.06 17.29 21.01 17.37 20.97 17.44C20.93 17.51 20.88 17.58 20.84 17.65C20.79 17.72 20.75 17.79 20.7 17.86C20.65 17.93 20.6 18 20.56 18.07C20.51 18.14 20.46 18.21 20.41 18.27C20.36 18.34 20.31 18.4 20.26 18.47C20.21 18.54 20.16 18.6 20.1 18.67C20.05 18.73 19.99 18.8 19.94 18.86C19.88 18.92 19.83 18.99 19.77 19.05C19.71 19.11 19.66 19.17 19.6 19.23C19.54 19.29 19.48 19.35 19.42 19.41C19.36 19.47 19.3 19.53 19.24 19.59C19.18 19.65 19.12 19.71 19.06 19.76C19 19.82 18.93 19.87 18.87 19.93C18.81 19.99 18.74 20.04 18.68 20.09C18.62 20.14 18.55 20.2 18.48 20.25C18.41 20.3 18.35 20.35 18.28 20.4C18.21 20.45 18.14 20.5 18.08 20.55C18.01 20.6 17.94 20.65 17.87 20.69C17.8 20.74 17.73 20.78 17.66 20.83C17.59 20.88 17.52 20.92 17.45 20.96C17.38 21 17.31 21.05 17.23 21.09C17.15 21.13 17.08 21.17 17.01 21.21C16.94 21.25 16.86 21.29 16.79 21.33C16.71 21.37 16.64 21.41 16.56 21.44C16.48 21.48 16.41 21.51 16.33 21.55C16.25 21.59 16.17 21.62 16.1 21.65C16.02 21.68 15.94 21.72 15.86 21.75C15.78 21.78 15.7 21.81 15.62 21.84C15.54 21.87 15.46 21.9 15.38 21.93C15.3 21.96 15.22 21.98 15.13 22.01C15.04 22.04 14.97 22.06 14.88 22.08C14.79 22.1 14.71 22.13 14.63 22.15C14.55 22.17 14.46 22.19 14.38 22.21C14.3 22.23 14.21 22.25 14.12 22.27C14.03 22.29 13.95 22.3 13.86 22.32C13.77 22.34 13.69 22.35 13.6 22.36C13.51 22.37 13.43 22.39 13.34 22.4C13.25 22.41 13.16 22.42 13.08 22.43C12.99 22.43 12.9 22.45 12.81 22.45C12.72 22.45 12.63 22.46 12.54 22.47C12.45 22.47 12.36 22.47 12.27 22.48C12.18 22.49 12.09 22.48 12 22.48C11.91 22.48 11.82 22.48 11.73 22.48C11.64 22.48 11.55 22.48 11.46 22.47C11.37 22.47 11.28 22.46 11.19 22.45C11.1 22.45 11.01 22.44 10.92 22.43C10.83 22.43 10.74 22.41 10.66 22.4C10.57 22.39 10.49 22.38 10.4 22.36C10.31 22.35 10.23 22.33 10.14 22.32C10.05 22.3 9.97 22.29 9.88 22.27C9.79 22.25 9.71 22.23 9.62 22.21C9.54 22.19 9.45 22.17 9.37 22.15C9.29 22.13 9.2 22.11 9.12 22.08C9.04 22.05 8.95 22.03 8.87 22.01C8.79 21.99 8.71 21.96 8.62 21.93C8.53 21.9 8.46 21.87 8.38 21.84C8.3 21.81 8.22 21.78 8.14 21.75C8.06 21.72 7.98 21.69 7.9 21.65C7.82 21.62 7.74 21.58 7.67 21.55C7.6 21.52 7.52 21.48 7.44 21.44C7.36 21.4 7.29 21.37 7.21 21.33C7.13 21.29 7.06 21.25 6.99 21.21C6.92 21.17 6.84 21.13 6.77 21.09C6.7 21.05 6.62 21 6.55 20.96C6.48 20.92 6.41 20.87 6.34 20.83C6.27 20.78 6.2 20.74 6.13 20.69C6.06 20.64 5.99 20.59 5.92 20.55C5.85 20.5 5.78 20.45 5.72 20.4C5.65 20.35 5.59 20.3 5.52 20.25C5.45 20.2 5.39 20.15 5.32 20.09C5.26 20.04 5.19 19.98 5.13 19.93C5.07 19.87 5 19.82 4.94 19.76C4.88 19.7 4.82 19.65 4.76 19.59C4.7 19.53 4.64 19.47 4.58 19.41C4.52 19.35 4.46 19.29 4.4 19.23C4.34 19.17 4.28 19.11 4.23 19.05C4.17 18.99 4.12 18.92 4.06 18.86C4 18.8 3.95 18.73 3.9 18.67C3.85 18.61 3.79 18.54 3.74 18.47C3.69 18.4 3.64 18.34 3.59 18.27C3.54 18.2 3.49 18.13 3.44 18.07C3.39 18 3.34 17.93 3.3 17.86C3.25 17.79 3.21 17.72 3.16 17.65C3.11 17.58 3.07 17.51 3.03 17.44C2.99 17.37 2.94 17.3 2.9 17.22C2.86 17.14 2.82 17.07 2.78 17C2.74 16.93 2.7 16.85 2.66 16.78C2.62 16.7 2.58 16.63 2.55 16.55C2.51 16.47 2.48 16.4 2.44 16.32C2.4 16.24 2.37 16.16 2.34 16.09C2.31 16.01 2.27 15.93 2.24 15.85C2.21 15.77 2.18 15.69 2.15 15.61C2.12 15.53 2.09 15.45 2.06 15.37C2.03 15.29 2.01 15.21 1.98 15.12C1.95 15.03 1.93 14.96 1.91 14.87C1.89 14.78 1.86 14.7 1.84 14.62C1.82 14.54 1.8 14.45 1.78 14.37C1.76 14.29 1.74 14.2 1.72 14.11C1.7 14.02 1.69 13.94 1.67 13.85C1.65 13.76 1.64 13.68 1.63 13.59C1.62 13.5 1.6 13.42 1.59 13.33C1.58 13.24 1.57 13.15 1.56 13.07C1.56 12.98 1.54 12.89 1.54 12.8C1.54 12.71 1.53 12.62 1.52 12.53C1.52 12.44 1.52 12.35 1.51 12.26C1.51 12.17 1.51 12.08 1.51 11.99C1.51 11.9 1.51 11.81 1.51 11.72C1.51 11.63 1.51 11.54 1.52 11.45C1.52 11.36 1.53 11.27 1.54 11.18C1.54 11.09 1.55 11 1.56 10.91C1.56 10.82 1.58 10.73 1.59 10.65C1.6 10.56 1.61 10.48 1.63 10.39C1.64 10.3 1.66 10.22 1.67 10.13C1.69 10.04 1.7 9.96 1.72 9.87C1.74 9.78 1.76 9.7 1.78 9.61C1.8 9.53 1.82 9.44 1.84 9.36C1.86 9.28 1.88 9.19 1.91 9.11C1.94 9.03 1.96 8.94 1.98 8.86C2 8.78 2.03 8.7 2.06 8.61C2.09 8.53 2.12 8.45 2.15 8.37C2.18 8.29 2.21 8.21 2.24 8.13C2.27 8.05 2.3 7.97 2.34 7.89C2.37 7.81 2.41 7.73 2.44 7.66C2.48 7.58 2.51 7.51 2.55 7.43C2.59 7.35 2.62 7.28 2.66 7.2C2.7 7.12 2.74 7.05 2.78 6.98C2.82 6.91 2.86 6.83 2.9 6.76C2.94 6.69 2.99 6.61 3.03 6.54C3.07 6.47 3.12 6.4 3.16 6.33C3.21 6.26 3.25 6.19 3.3 6.12C3.35 6.05 3.4 5.98 3.44 5.91C3.49 5.84 3.54 5.77 3.59 5.71C3.64 5.64 3.69 5.58 3.74 5.51C3.79 5.44 3.84 5.38 3.9 5.31C3.95 5.25 4.01 5.18 4.06 5.12C4.12 5.06 4.17 4.99 4.23 4.93C4.29 4.87 4.34 4.81 4.4 4.75C4.46 4.69 4.52 4.63 4.58 4.57C4.64 4.51 4.7 4.45 4.76 4.39C4.82 4.33 4.88 4.27 4.94 4.22C5 4.16 5.07 4.11 5.13 4.05C5.19 3.99 5.26 3.94 5.32 3.89C5.38 3.84 5.45 3.78 5.52 3.73C5.59 3.68 5.65 3.63 5.72 3.58C5.79 3.53 5.86 3.48 5.92 3.43C5.99 3.38 6.06 3.33 6.13 3.29C6.2 3.25 6.27 3.2 6.34 3.15C6.41 3.1 6.48 3.06 6.55 3.02C6.62 2.98 6.69 2.93 6.77 2.89C6.84 2.85 6.92 2.81 6.99 2.77C7.06 2.73 7.14 2.69 7.21 2.65C7.28 2.61 7.36 2.57 7.44 2.54C7.52 2.5 7.59 2.47 7.67 2.43C7.75 2.39 7.83 2.36 7.9 2.33C7.98 2.3 8.06 2.26 8.14 2.23C8.22 2.2 8.3 2.17 8.38 2.14C8.46 2.11 8.54 2.08 8.62 2.05C8.7 2.02 8.78 2 8.87 1.97C8.95 1.94 9.03 1.92 9.12 1.9C9.2 1.88 9.29 1.85 9.37 1.83C9.45 1.81 9.54 1.79 9.62 1.77C9.7 1.75 9.79 1.73 9.88 1.71C9.97 1.69 10.05 1.68 10.14 1.66C10.23 1.64 10.31 1.63 10.4 1.62C10.49 1.61 10.57 1.59 10.66 1.58C10.75 1.57 10.84 1.56 10.92 1.55C11.01 1.55 11.1 1.53 11.19 1.53C11.28 1.53 11.37 1.52 11.46 1.51C11.55 1.51 11.64 1.51 11.73 1.5C11.82 1.5 11.91 1.5 12 1.5ZM12 0C11.9 0 11.79 0 11.69 0C11.59 0 11.48 0 11.38 0.01C11.28 0.01 11.18 0.02 11.07 0.03C10.97 0.03 10.87 0.05 10.77 0.06C10.67 0.07 10.57 0.08 10.47 0.09C10.37 0.1 10.27 0.12 10.17 0.13C10.07 0.15 9.97 0.16 9.87 0.18C9.77 0.2 9.67 0.22 9.58 0.24C9.48 0.26 9.39 0.28 9.29 0.3C9.19 0.32 9.1 0.35 9 0.37C8.9 0.39 8.81 0.42 8.71 0.45C8.62 0.48 8.52 0.51 8.43 0.53C8.34 0.56 8.24 0.59 8.15 0.62C8.06 0.65 7.96 0.68 7.87 0.72C7.78 0.75 7.69 0.79 7.6 0.82C7.51 0.86 7.42 0.89 7.33 0.93C7.24 0.97 7.15 1.01 7.06 1.05C6.97 1.09 6.88 1.13 6.8 1.17C6.71 1.21 6.63 1.26 6.54 1.3C6.45 1.34 6.37 1.39 6.28 1.44C6.19 1.49 6.11 1.53 6.03 1.58C5.95 1.63 5.86 1.68 5.78 1.73C5.7 1.78 5.62 1.83 5.53 1.88C5.45 1.93 5.37 1.99 5.29 2.04C5.21 2.09 5.13 2.15 5.05 2.2C4.97 2.26 4.89 2.31 4.82 2.37C4.75 2.43 4.67 2.49 4.59 2.55C4.51 2.61 4.44 2.67 4.37 2.73C4.3 2.79 4.22 2.85 4.15 2.92C4.08 2.99 4.01 3.05 3.93 3.11C3.86 3.17 3.79 3.24 3.72 3.31C3.65 3.38 3.58 3.44 3.51 3.51C3.44 3.58 3.38 3.65 3.31 3.72C3.24 3.79 3.18 3.86 3.11 3.93C3.05 4 2.98 4.07 2.92 4.15C2.86 4.22 2.8 4.3 2.73 4.37C2.67 4.44 2.61 4.52 2.55 4.59C2.49 4.67 2.43 4.74 2.37 4.82C2.31 4.9 2.26 4.97 2.2 5.05C2.14 5.13 2.09 5.21 2.04 5.29C1.99 5.37 1.93 5.45 1.88 5.53C1.83 5.61 1.78 5.69 1.73 5.78C1.68 5.87 1.63 5.95 1.58 6.03C1.53 6.11 1.48 6.2 1.44 6.28C1.4 6.36 1.35 6.45 1.3 6.54C1.26 6.63 1.21 6.71 1.17 6.8C1.13 6.89 1.09 6.98 1.05 7.06C1.01 7.15 0.97 7.24 0.93 7.33C0.89 7.42 0.86 7.51 0.82 7.6C0.78 7.69 0.75 7.78 0.72 7.87C0.69 7.96 0.65 8.05 0.62 8.15C0.59 8.25 0.56 8.34 0.53 8.43C0.5 8.52 0.47 8.62 0.45 8.71C0.42 8.8 0.4 8.9 0.37 9C0.35 9.1 0.32 9.19 0.3 9.29C0.28 9.39 0.26 9.48 0.24 9.58C0.22 9.68 0.2 9.78 0.18 9.87C0.16 9.97 0.15 10.07 0.13 10.17C0.11 10.27 0.1 10.37 0.09 10.47C0.08 10.57 0.07 10.67 0.06 10.77C0.05 10.87 0.04 10.97 0.03 11.07C0.02 11.17 0.02 11.27 0.01 11.38C0.01 11.48 0.01 11.58 0 11.69C0 11.79 0 11.9 0 12C0 12.1 0 12.21 0 12.31C0 12.41 0 12.52 0.01 12.62C0.01 12.72 0.02 12.82 0.03 12.93C0.03 13.03 0.05 13.13 0.06 13.23C0.07 13.33 0.08 13.43 0.09 13.53C0.1 13.63 0.12 13.73 0.13 13.83C0.15 13.93 0.16 14.03 0.18 14.13C0.2 14.23 0.22 14.33 0.24 14.42C0.26 14.52 0.28 14.61 0.3 14.71C0.32 14.81 0.35 14.9 0.37 15C0.39 15.1 0.42 15.19 0.45 15.29C0.48 15.39 0.51 15.48 0.53 15.57C0.56 15.66 0.59 15.76 0.62 15.85C0.65 15.94 0.68 16.04 0.72 16.13C0.75 16.22 0.79 16.31 0.82 16.4C0.86 16.49 0.89 16.58 0.93 16.67C0.97 16.76 1.01 16.85 1.05 16.94C1.09 17.03 1.13 17.12 1.17 17.2C1.21 17.28 1.26 17.37 1.3 17.46C1.34 17.55 1.39 17.63 1.44 17.72C1.49 17.81 1.53 17.89 1.58 17.97C1.63 18.05 1.68 18.14 1.73 18.22C1.78 18.3 1.83 18.38 1.88 18.47C1.93 18.55 1.99 18.63 2.04 18.71C2.09 18.79 2.15 18.87 2.2 18.95C2.26 19.03 2.31 19.11 2.37 19.18C2.43 19.26 2.49 19.33 2.55 19.41C2.61 19.49 2.67 19.56 2.73 19.63C2.79 19.7 2.85 19.78 2.92 19.85C2.99 19.92 3.05 19.99 3.11 20.07C3.17 20.14 3.24 20.21 3.31 20.28C3.38 20.35 3.44 20.42 3.51 20.49C3.58 20.56 3.65 20.62 3.72 20.69C3.79 20.76 3.86 20.82 3.93 20.89C4 20.95 4.07 21.02 4.15 21.08C4.22 21.14 4.3 21.2 4.37 21.27C4.44 21.33 4.52 21.39 4.59 21.45C4.67 21.51 4.74 21.57 4.82 21.63C4.9 21.69 4.97 21.74 5.05 21.8C5.13 21.86 5.21 21.91 5.29 21.96C5.37 22.01 5.45 22.07 5.53 22.12C5.61 22.17 5.69 22.22 5.78 22.27C5.87 22.32 5.95 22.37 6.03 22.42C6.11 22.47 6.2 22.52 6.28 22.56C6.36 22.6 6.45 22.65 6.54 22.7C6.63 22.74 6.71 22.79 6.8 22.83C6.89 22.87 6.98 22.91 7.06 22.95C7.15 22.99 7.24 23.03 7.33 23.07C7.42 23.11 7.51 23.14 7.6 23.18C7.69 23.22 7.78 23.25 7.87 23.28C7.96 23.31 8.05 23.35 8.15 23.38C8.25 23.41 8.34 23.44 8.43 23.47C8.52 23.5 8.62 23.53 8.71 23.55C8.8 23.58 8.9 23.6 9 23.63C9.1 23.65 9.19 23.68 9.29 23.7C9.39 23.72 9.48 23.74 9.58 23.76C9.68 23.78 9.78 23.8 9.87 23.82C9.97 23.84 10.07 23.85 10.17 23.87C10.27 23.89 10.37 23.9 10.47 23.91C10.57 23.92 10.67 23.93 10.77 23.94C10.87 23.95 10.97 23.96 11.07 23.97C11.17 23.98 11.27 23.98 11.38 23.99C11.48 23.99 11.58 23.99 11.69 24C11.79 24 11.9 24 12 24C12.1 24 12.21 24 12.31 24C12.41 24 12.52 24 12.62 23.99C12.72 23.99 12.82 23.98 12.93 23.97C13.03 23.97 13.13 23.95 13.23 23.94C13.33 23.93 13.43 23.92 13.53 23.91C13.63 23.9 13.73 23.88 13.83 23.87C13.93 23.85 14.03 23.84 14.13 23.82C14.23 23.8 14.33 23.78 14.42 23.76C14.52 23.74 14.61 23.72 14.71 23.7C14.81 23.68 14.9 23.65 15 23.63C15.1 23.61 15.19 23.58 15.29 23.55C15.38 23.52 15.48 23.49 15.57 23.47C15.66 23.44 15.76 23.41 15.85 23.38C15.94 23.35 16.04 23.32 16.13 23.28C16.22 23.25 16.31 23.21 16.4 23.18C16.49 23.14 16.58 23.11 16.67 23.07C16.76 23.03 16.85 22.99 16.94 22.95C17.03 22.91 17.12 22.87 17.2 22.83C17.28 22.79 17.37 22.74 17.46 22.7C17.55 22.66 17.63 22.61 17.72 22.56C17.81 22.51 17.89 22.47 17.97 22.42C18.05 22.37 18.14 22.32 18.22 22.27C18.3 22.22 18.38 22.17 18.47 22.12C18.55 22.07 18.63 22.01 18.71 21.96C18.79 21.91 18.87 21.85 18.95 21.8C19.03 21.74 19.11 21.69 19.18 21.63C19.26 21.57 19.33 21.51 19.41 21.45C19.49 21.39 19.56 21.33 19.63 21.27C19.7 21.21 19.78 21.15 19.85 21.08C19.92 21.02 19.99 20.95 20.07 20.89C20.14 20.83 20.21 20.76 20.28 20.69C20.35 20.62 20.42 20.56 20.49 20.49C20.56 20.42 20.62 20.35 20.69 20.28C20.76 20.21 20.82 20.14 20.89 20.07C20.95 20 21.02 19.93 21.08 19.85C21.14 19.77 21.2 19.7 21.27 19.63C21.33 19.56 21.39 19.48 21.45 19.41C21.51 19.33 21.57 19.26 21.63 19.18C21.69 19.1 21.74 19.03 21.8 18.95C21.86 18.87 21.91 18.79 21.96 18.71C22.01 18.63 22.07 18.55 22.12 18.47C22.17 18.39 22.22 18.31 22.27 18.22C22.32 18.14 22.37 18.05 22.42 17.97C22.47 17.89 22.52 17.8 22.56 17.72C22.61 17.63 22.65 17.55 22.7 17.46C22.74 17.37 22.79 17.29 22.83 17.2C22.87 17.11 22.91 17.02 22.95 16.94C22.99 16.85 23.03 16.76 23.07 16.67C23.11 16.58 23.14 16.49 23.18 16.4C23.22 16.31 23.25 16.22 23.28 16.13C23.31 16.04 23.35 15.95 23.38 15.85C23.41 15.75 23.44 15.66 23.47 15.57C23.5 15.48 23.53 15.38 23.55 15.29C23.58 15.2 23.6 15.1 23.63 15C23.65 14.9 23.68 14.81 23.7 14.71C23.72 14.61 23.74 14.52 23.76 14.42C23.78 14.32 23.8 14.22 23.82 14.13C23.84 14.03 23.85 13.93 23.87 13.83C23.89 13.73 23.9 13.63 23.91 13.53C23.92 13.43 23.93 13.33 23.94 13.23C23.95 13.13 23.96 13.03 23.97 12.93C23.97 12.83 23.98 12.73 23.99 12.62C23.99 12.52 23.99 12.42 24 12.31C24 12.21 24 12.1 24 12C24 11.9 24 11.79 24 11.69C24 11.59 24 11.48 23.99 11.38C23.99 11.28 23.98 11.18 23.97 11.07C23.96 10.96 23.95 10.87 23.94 10.77C23.93 10.67 23.92 10.57 23.91 10.47C23.9 10.37 23.88 10.27 23.87 10.17C23.85 10.07 23.84 9.97 23.82 9.87C23.8 9.77 23.78 9.67 23.76 9.58C23.74 9.48 23.72 9.39 23.7 9.29C23.68 9.19 23.65 9.1 23.63 9C23.61 8.9 23.58 8.81 23.55 8.71C23.52 8.62 23.49 8.52 23.47 8.43C23.44 8.34 23.41 8.24 23.38 8.15C23.35 8.06 23.32 7.96 23.28 7.87C23.25 7.78 23.21 7.69 23.18 7.6C23.14 7.51 23.11 7.42 23.07 7.33C23.03 7.24 22.99 7.15 22.95 7.06C22.91 6.97 22.87 6.88 22.83 6.8C22.79 6.71 22.74 6.63 22.7 6.54C22.66 6.45 22.61 6.37 22.56 6.28C22.51 6.19 22.47 6.11 22.42 6.03C22.37 5.95 22.32 5.86 22.27 5.78C22.22 5.7 22.17 5.62 22.12 5.53C22.07 5.45 22.01 5.37 21.96 5.29C21.91 5.21 21.85 5.13 21.8 5.05C21.74 4.97 21.69 4.89 21.63 4.82C21.57 4.75 21.51 4.67 21.45 4.59C21.39 4.51 21.33 4.44 21.27 4.37C21.21 4.3 21.15 4.22 21.08 4.15C21.02 4.08 20.95 4.01 20.89 3.93C20.83 3.86 20.76 3.79 20.69 3.72C20.62 3.65 20.56 3.58 20.49 3.51C20.42 3.44 20.35 3.38 20.28 3.31C20.21 3.24 20.14 3.18 20.07 3.11C20 3.05 19.93 2.98 19.85 2.92C19.77 2.86 19.7 2.8 19.63 2.73C19.56 2.67 19.48 2.61 19.41 2.55C19.34 2.49 19.26 2.43 19.18 2.37C19.1 2.31 19.03 2.26 18.95 2.2C18.87 2.14 18.79 2.09 18.71 2.04C18.63 1.99 18.55 1.93 18.47 1.88C18.39 1.83 18.31 1.78 18.22 1.73C18.14 1.68 18.05 1.63 17.97 1.58C17.89 1.53 17.8 1.48 17.72 1.44C17.63 1.39 17.55 1.35 17.46 1.3C17.37 1.26 17.29 1.21 17.2 1.17C17.11 1.13 17.02 1.09 16.94 1.05C16.85 1.01 16.76 0.97 16.67 0.93C16.58 0.89 16.49 0.86 16.4 0.82C16.31 0.78 16.22 0.75 16.13 0.72C16.04 0.69 15.95 0.65 15.85 0.62C15.75 0.59 15.66 0.56 15.57 0.53C15.48 0.5 15.38 0.47 15.29 0.45C15.2 0.42 15.1 0.4 15 0.37C14.9 0.35 14.81 0.32 14.71 0.3C14.61 0.28 14.52 0.26 14.42 0.24C14.32 0.22 14.22 0.2 14.13 0.18C14.03 0.16 13.93 0.15 13.83 0.13C13.73 0.11 13.63 0.1 13.53 0.09C13.43 0.08 13.33 0.07 13.23 0.06C13.13 0.05 13.03 0.04 12.93 0.03C12.83 0.03 12.73 0.02 12.62 0.01C12.52 0.01 12.42 0.01 12.31 0C12.21 0 12.1 0 12 0Z" fill="white"/>
<path d="M16.7199 16.7214H16.6699H16.6099H16.5599H16.4999H16.4499H16.3899H16.3399H16.2799H16.2299H16.1699H16.1199H16.0599H16.0099H15.9499H15.8999H15.8399H15.7799H15.7299H15.6699H15.6199H15.5599H15.5099H15.4499H15.3999H15.3399H15.2899H15.2299H15.1799H15.1199H15.0699H15.0099H14.9599H14.8999H14.8499H14.7899H14.7399H14.6799H14.6199H14.5699H14.5099H14.4599H14.3999H14.3499H14.2899H14.2399H14.1799H14.1299H14.0699H14.0199H13.9599H13.9099H13.8499H13.7999H13.7399H13.6899H13.6299H13.5799H13.5199H13.4599H13.4099H13.3499H13.2999H13.2399H13.1899V16.7014V16.6814V16.6614V16.6414V16.6314V16.6114V16.5914V16.5714V16.5514V16.5314V16.5114V16.4914V16.4714V16.4514V16.4314V16.4114V16.3914V16.3714V16.3514V16.3314V16.3114V16.2914V16.2714V16.2514V16.2314V16.2114V16.1914V16.1714V16.1514V16.1314V16.1114V16.0914V16.0714V16.0514V16.0314V16.0114V15.9914V15.9814V15.9614V15.9414V15.9214V15.9014V15.8814V15.8614V15.8414V15.8214V15.8014V15.7814V15.7614V15.7414V15.7214V15.7014V15.6814V15.6614V15.6414V15.6214V15.6014V15.5814V15.5614V15.5414V15.5214V15.5014V15.4814V15.4614H13.2199H13.2599H13.2999H13.3299H13.3699H13.3999H13.4399H13.4699H13.5099H13.5399H13.5799H13.6199H13.6499H13.6899H13.7199H13.7599H13.7899H13.8299H13.8599H13.8999H13.9399H13.9699H14.0099H14.0399H14.0799H14.1099H14.1499H14.1799H14.2199H14.2499H14.2899H14.3299H14.3599H14.3999H14.4299H14.4699H14.4999H14.5399H14.5699H14.6099H14.6499H14.6799H14.7199H14.7499H14.7899H14.8199H14.8599H14.8899H14.9299H14.9699H14.9999H15.0399H15.0699H15.1099H15.1399H15.1799H15.2099H15.2499H15.2899H15.3199H15.3599H15.3899H15.4299H15.4599V15.4314V15.3914V15.3614V15.3214V15.2914V15.2514V15.2114V15.1814V15.1414V15.1114V15.0714V15.0414V15.0014V14.9714V14.9314V14.8914V14.8614V14.8214V14.7914V14.7514V14.7214V14.6814V14.6514V14.6114V14.5714V14.5414V14.5014V14.4714V14.4314V14.4014V14.3614V14.3314V14.2914V14.2514V14.2214V14.1814V14.1514V14.1114V14.0814V14.0414V14.0114V13.9714V13.9414V13.9014V13.8614V13.8314V13.7914V13.7614V13.7214V13.6914V13.6514V13.6214V13.5814V13.5414V13.5114V13.4714V13.4414V13.4014V13.3714V13.3314V13.3014V13.2614V13.2214V13.1914H15.4799H15.4999H15.5199H15.5399H15.5599H15.5799H15.5999H15.6199H15.6399H15.6599H15.6799H15.6999H15.7199H15.7399H15.7599H15.7799H15.7999H15.8199H15.8399H15.8599H15.8799H15.8999H15.9199H15.9399H15.9599H15.9799H15.9899H16.0099H16.0299H16.0499H16.0699H16.0899H16.1099H16.1299H16.1499H16.1699H16.1899H16.2099H16.2299H16.2499H16.2699H16.2899H16.3099H16.3299H16.3499H16.3699H16.3899H16.4099H16.4299H16.4499H16.4699H16.4899H16.5099H16.5299H16.5499H16.5699H16.5899H16.6099H16.6299H16.6399H16.6599H16.6799H16.6999H16.7199V13.2414V13.3014V13.3514V13.4114V13.4614V13.5214V13.5814V13.6314V13.6914V13.7414V13.8014V13.8514V13.9114V13.9614V14.0214V14.0714V14.1314V14.1814V14.2414V14.2914V14.3514V14.4014V14.4614V14.5114V14.5714V14.6214V14.6814V14.7414V14.7914V14.8514V14.9014V14.9614V15.0114V15.0714V15.1214V15.1814V15.2314V15.2914V15.3414V15.4014V15.4514V15.5114V15.5614V15.6214V15.6714V15.7314V15.7814V15.8414V15.9014V15.9514V16.0114V16.0614V16.1214V16.1714V16.2314V16.2814V16.3414V16.3914V16.4514V16.5014V16.5614V16.6114V16.6714V16.7214Z" fill="white"/>
<path d="M16.7199 10.8113H16.6999H16.6799H16.6599H16.6399H16.6299H16.6099H16.5899H16.5699H16.5499H16.5299H16.5099H16.4899H16.4699H16.4499H16.4299H16.4099H16.3899H16.3699H16.3499H16.3299H16.3099H16.2899H16.2699H16.2499H16.2299H16.2099H16.1899H16.1699H16.1499H16.1299H16.1099H16.0899H16.0699H16.0499H16.0299H16.0099H15.9899H15.9799H15.9599H15.9399H15.9199H15.8999H15.8799H15.8599H15.8399H15.8199H15.7999H15.7799H15.7599H15.7399H15.7199H15.6999H15.6799H15.6599H15.6399H15.6199H15.5999H15.5799H15.5599H15.5399H15.5199H15.4999H15.4799H15.4599V10.7812V10.7412V10.7012V10.6712V10.6312V10.6013V10.5613V10.5312V10.4912V10.4612V10.4212V10.3812V10.3513V10.3113V10.2812V10.2412V10.2112V10.1712V10.1413V10.1013V10.0613V10.0312V9.99125V9.96125V9.92125V9.89125V9.85125V9.82125V9.78125V9.75125V9.71125V9.67125V9.64125V9.60125V9.57125V9.53125V9.50125V9.46125V9.43125V9.39125V9.35125V9.32125V9.28125V9.25125V9.21125V9.18125V9.14125V9.11125V9.07125V9.03125V9.00125V8.96125V8.93125V8.89125V8.86125V8.82125V8.79125V8.75125V8.71125V8.68125V8.64125V8.61125V8.57125V8.54125H15.4299H15.3899H15.3599H15.3199H15.2899H15.2499H15.2099H15.1799H15.1399H15.1099H15.0699H15.0399H14.9999H14.9699H14.9299H14.8899H14.8599H14.8199H14.7899H14.7499H14.7199H14.6799H14.6499H14.6099H14.5699H14.5399H14.4999H14.4699H14.4299H14.3999H14.3599H14.3299H14.2899H14.2499H14.2199H14.1799H14.1499H14.1099H14.0799H14.0399H14.0099H13.9699H13.9399H13.8999H13.8599H13.8299H13.7899H13.7599H13.7199H13.6899H13.6499H13.6199H13.5799H13.5399H13.5099H13.4699H13.4399H13.3999H13.3699H13.3299H13.2999H13.2599H13.2199H13.1899V8.52125V8.50125V8.48125V8.46125V8.44125V8.42125V8.40125V8.38125V8.36125V8.34125V8.32125V8.30125V8.28125V8.26125V8.24125V8.22125V8.20125V8.18125V8.16125V8.14125V8.12125V8.10125V8.08125V8.06125V8.04125V8.02125V8.00125V7.99125V7.97125V7.95125V7.93125V7.91125V7.89125V7.87125V7.85125V7.83125V7.81125V7.79125V7.77125V7.75125V7.73125V7.71125V7.69125V7.67125V7.65125V7.63125V7.61125V7.59125V7.57125V7.55125V7.53125V7.51125V7.49125V7.47125V7.45125V7.43125V7.41125V7.39125V7.37125V7.35125V7.34125V7.32125V7.30125V7.28125H13.2399H13.2999H13.3499H13.4099H13.4599H13.5199H13.5799H13.6299H13.6899H13.7399H13.7999H13.8499H13.9099H13.9599H14.0199H14.0699H14.1299H14.1799H14.2399H14.2899H14.3499H14.3999H14.4599H14.5099H14.5699H14.6199H14.6799H14.7399H14.7899H14.8499H14.8999H14.9599H15.0099H15.0699H15.1199H15.1799H15.2299H15.2899H15.3399H15.3999H15.4499H15.5099H15.5599H15.6199H15.6699H15.7299H15.7799H15.8399H15.8999H15.9499H16.0099H16.0599H16.1199H16.1699H16.2299H16.2799H16.3399H16.3899H16.4499H16.4999H16.5599H16.6099H16.6699H16.7199V7.33125V7.39125V7.44125V7.50125V7.55125V7.61125V7.66125V7.72125V7.77125V7.83125V7.88125V7.94125V7.99125V8.05125V8.10125V8.16125V8.22125V8.27125V8.33125V8.38125V8.44125V8.49125V8.55125V8.60125V8.66125V8.71125V8.77125V8.82125V8.88125V8.93125V8.99125V9.04125V9.10125V9.15125V9.21125V9.26125V9.32125V9.38125V9.43125V9.49125V9.54125V9.60125V9.65125V9.71125V9.76125V9.82125V9.87125V9.93125V9.98125V10.0412V10.0912V10.1512V10.2012V10.2613V10.3113V10.3712V10.4212V10.4812V10.5412V10.5912V10.6512V10.7012V10.7613V10.8113Z" fill="white"/>
<path d="M8.53978 10.8113H8.51979H8.49978H8.47978H8.45978H8.43978H8.41979H8.39978H8.37979H8.35978H8.33979H8.31978H8.29979H8.27978H8.25979H8.23978H8.21979H8.19978H8.17979H8.15978H8.13979H8.11978H8.09979H8.07978H8.05979H8.03978H8.01979H7.99978H7.98978H7.96978H7.94978H7.92978H7.90978H7.88978H7.86978H7.84978H7.82978H7.80978H7.78978H7.76978H7.74978H7.72978H7.70978H7.68979H7.66979H7.64979H7.62979H7.60979H7.58979H7.56979H7.54979H7.52979H7.50979H7.48978H7.46978H7.44978H7.42978H7.40978H7.38978H7.36978H7.34978H7.33979H7.31979H7.29979H7.27979V10.7613V10.7012V10.6512V10.5912V10.5412V10.4812V10.4212V10.3712V10.3113V10.2613V10.2012V10.1512V10.0912V10.0412V9.98125V9.93125V9.87125V9.82125V9.76125V9.71125V9.65125V9.60125V9.54125V9.49125V9.43125V9.38125V9.32125V9.26125V9.21125V9.15125V9.10125V9.04125V8.99125V8.93125V8.88125V8.82125V8.77125V8.71125V8.66125V8.60125V8.55125V8.49125V8.44125V8.38125V8.33125V8.27125V8.22125V8.16125V8.10125V8.05125V7.99125V7.94125V7.88125V7.83125V7.77125V7.72125V7.66125V7.61125V7.55125V7.50125V7.44125V7.39125V7.33125V7.28125H7.32978H7.38978H7.43979H7.49978H7.54979H7.60979H7.65978H7.71978H7.76978H7.82978H7.87979H7.93979H7.98978H8.04979H8.09979H8.15978H8.21979H8.26979H8.32978H8.37979H8.43978H8.48978H8.54979H8.59979H8.65978H8.70978H8.76979H8.81978H8.87979H8.92979H8.98978H9.03978H9.09979H9.14978H9.20978H9.25979H9.31978H9.37979H9.42979H9.48978H9.53978H9.59979H9.64978H9.70978H9.75979H9.81978H9.86978H9.92979H9.97978H10.0398H10.0898H10.1498H10.1998H10.2598H10.3098H10.3698H10.4198H10.4798H10.5398H10.5898H10.6498H10.6998H10.7598H10.8098V7.30125V7.32125V7.34125V7.35125V7.37125V7.39125V7.41125V7.43125V7.45125V7.47125V7.49125V7.51125V7.53125V7.55125V7.57125V7.59125V7.61125V7.63125V7.65125V7.67125V7.69125V7.71125V7.73125V7.75125V7.77125V7.79125V7.81125V7.83125V7.85125V7.87125V7.89125V7.91125V7.93125V7.95125V7.97125V7.99125V8.00125V8.02125V8.04125V8.06125V8.08125V8.10125V8.12125V8.14125V8.16125V8.18125V8.20125V8.22125V8.24125V8.26125V8.28125V8.30125V8.32125V8.34125V8.36125V8.38125V8.40125V8.42125V8.44125V8.46125V8.48125V8.50125V8.52125V8.54125H10.7798H10.7398H10.6998H10.6698H10.6298H10.5998H10.5598H10.5298H10.4898H10.4598H10.4198H10.3798H10.3498H10.3098H10.2798H10.2398H10.2098H10.1698H10.1398H10.0998H10.0598H10.0298H9.98978H9.95978H9.91979H9.88979H9.84979H9.81978H9.77978H9.74978H9.70978H9.66979H9.63979H9.59979H9.56978H9.52978H9.49978H9.45978H9.42979H9.38979H9.34979H9.31978H9.27978H9.24978H9.20978H9.17979H9.13979H9.10978H9.06978H9.02978H8.99978H8.95978H8.92979H8.88979H8.85978H8.81978H8.78978H8.74978H8.70978H8.67979H8.63979H8.60978H8.56978H8.53978V8.57125V8.61125V8.64125V8.68125V8.71125V8.75125V8.79125V8.82125V8.86125V8.89125V8.93125V8.96125V9.00125V9.03125V9.07125V9.11125V9.14125V9.18125V9.21125V9.25125V9.28125V9.32125V9.35125V9.39125V9.43125V9.46125V9.50125V9.53125V9.57125V9.60125V9.64125V9.67125V9.71125V9.75125V9.78125V9.82125V9.85125V9.89125V9.92125V9.96125V9.99125V10.0312V10.0613V10.1013V10.1413V10.1712V10.2112V10.2412V10.2812V10.3113V10.3513V10.3812V10.4212V10.4612V10.4912V10.5312V10.5613V10.6013V10.6312V10.6712V10.7012V10.7412V10.7812V10.8113Z" fill="white"/>
<path d="M10.8098 16.7214H10.7598H10.6998H10.6498H10.5898H10.5398H10.4798H10.4198H10.3698H10.3098H10.2598H10.1998H10.1498H10.0898H10.0398H9.97978H9.92979H9.86978H9.81978H9.75979H9.70978H9.64978H9.59979H9.53978H9.48978H9.42979H9.37979H9.31978H9.25979H9.20978H9.14978H9.09979H9.03978H8.98978H8.92979H8.87979H8.81978H8.76979H8.70978H8.65978H8.59979H8.54979H8.48978H8.43978H8.37979H8.32978H8.26979H8.21979H8.15978H8.09979H8.04979H7.98978H7.93979H7.87979H7.82978H7.76978H7.71978H7.65978H7.60979H7.54979H7.49978H7.43979H7.38978H7.32978H7.27979V16.6714V16.6114V16.5614V16.5014V16.4514V16.3914V16.3414V16.2814V16.2314V16.1714V16.1214V16.0614V16.0114V15.9514V15.9014V15.8414V15.7814V15.7314V15.6714V15.6214V15.5614V15.5114V15.4514V15.4014V15.3414V15.2914V15.2314V15.1814V15.1214V15.0714V15.0114V14.9614V14.9014V14.8514V14.7914V14.7414V14.6814V14.6214V14.5714V14.5114V14.4614V14.4014V14.3514V14.2914V14.2414V14.1814V14.1314V14.0714V14.0214V13.9614V13.9114V13.8514V13.8014V13.7414V13.6914V13.6314V13.5814V13.5214V13.4614V13.4114V13.3514V13.3014V13.2414V13.1914H7.29979H7.31979H7.33979H7.34978H7.36978H7.38978H7.40978H7.42978H7.44978H7.46978H7.48978H7.50979H7.52979H7.54979H7.56979H7.58979H7.60979H7.62979H7.64979H7.66979H7.68979H7.70978H7.72978H7.74978H7.76978H7.78978H7.80978H7.82978H7.84978H7.86978H7.88978H7.90978H7.92978H7.94978H7.96978H7.98978H7.99978H8.01979H8.03978H8.05979H8.07978H8.09979H8.11978H8.13979H8.15978H8.17979H8.19978H8.21979H8.23978H8.25979H8.27978H8.29979H8.31978H8.33979H8.35978H8.37979H8.39978H8.41979H8.43978H8.45978H8.47978H8.49978H8.51979H8.53978V13.2214V13.2614V13.3014V13.3314V13.3714V13.4014V13.4414V13.4714V13.5114V13.5414V13.5814V13.6214V13.6514V13.6914V13.7214V13.7614V13.7914V13.8314V13.8614V13.9014V13.9414V13.9714V14.0114V14.0414V14.0814V14.1114V14.1514V14.1814V14.2214V14.2514V14.2914V14.3314V14.3614V14.4014V14.4314V14.4714V14.5014V14.5414V14.5714V14.6114V14.6514V14.6814V14.7214V14.7514V14.7914V14.8214V14.8614V14.8914V14.9314V14.9714V15.0014V15.0414V15.0714V15.1114V15.1414V15.1814V15.2114V15.2514V15.2914V15.3214V15.3614V15.3914V15.4314V15.4614H8.56978H8.60978H8.63979H8.67979H8.70978H8.74978H8.78978H8.81978H8.85978H8.88979H8.92979H8.95978H8.99978H9.02978H9.06978H9.10978H9.13979H9.17979H9.20978H9.24978H9.27978H9.31978H9.34979H9.38979H9.42979H9.45978H9.49978H9.52978H9.56978H9.59979H9.63979H9.66979H9.70978H9.74978H9.77978H9.81978H9.84979H9.88979H9.91979H9.95978H9.98978H10.0298H10.0598H10.0998H10.1398H10.1698H10.2098H10.2398H10.2798H10.3098H10.3498H10.3798H10.4198H10.4598H10.4898H10.5298H10.5598H10.5998H10.6298H10.6698H10.6998H10.7398H10.7798H10.8098V15.4814V15.5014V15.5214V15.5414V15.5614V15.5814V15.6014V15.6214V15.6414V15.6614V15.6814V15.7014V15.7214V15.7414V15.7614V15.7814V15.8014V15.8214V15.8414V15.8614V15.8814V15.9014V15.9214V15.9414V15.9614V15.9814V15.9914V16.0114V16.0314V16.0514V16.0714V16.0914V16.1114V16.1314V16.1514V16.1714V16.1914V16.2114V16.2314V16.2514V16.2714V16.2914V16.3114V16.3314V16.3514V16.3714V16.3914V16.4114V16.4314V16.4514V16.4714V16.4914V16.5114V16.5314V16.5514V16.5714V16.5914V16.6114V16.6314V16.6414V16.6614V16.6814V16.7014V16.7214Z" fill="white"/>
</g>
<defs>
<clipPath id="clip0_1088_10406">
<rect width="24" height="24" fill="white"/>
</clipPath>
</defs>
</svg>
