<svg xmlns="http://www.w3.org/2000/svg" width="93.58" height="60" fill="none" overflow="visible"><g><g><defs><linearGradient id="idid_eCNYVq_R3g227037308" x1="0" x2="1" y1="0.784146396002241" y2="0.21585360399775894"><stop offset="0" stop-color="rgb(25,63,60)" stop-opacity="1"></stop><stop offset="1" stop-color="rgb(25,84,80)" stop-opacity="1"></stop></linearGradient></defs><path d="M 24.772 56.644 L 25.279 56.644 L 25.279 58.765 L 26.526 58.765 L 26.526 59.238 L 24.772 59.238 L 24.772 56.644 Z M 29.353 57.941 C 29.353 58.683 28.761 59.259 28.064 59.259 C 27.366 59.259 26.775 58.683 26.775 57.941 C 26.775 57.2 27.366 56.623 28.064 56.623 C 28.761 56.623 29.353 57.2 29.353 57.941 Z M 27.282 57.941 C 27.282 58.436 27.641 58.785 28.064 58.785 C 28.486 58.785 28.846 58.435 28.846 57.941 C 28.846 57.448 28.487 57.097 28.064 57.097 C 27.641 57.097 27.282 57.447 27.282 57.941 Z M 29.898 56.644 L 30.342 56.644 L 31.525 58.332 L 31.525 56.644 L 32.032 56.644 L 32.032 59.238 L 31.588 59.238 L 30.405 57.55 L 30.405 59.238 L 29.898 59.238 Z M 34.627 58.992 C 34.564 59.045 34.496 59.09 34.42 59.128 C 34.29 59.193 34.103 59.26 33.866 59.26 C 33.169 59.26 32.577 58.683 32.577 57.942 C 32.577 57.2 33.169 56.624 33.866 56.624 C 34.475 56.624 34.927 57.057 35.049 57.551 L 34.521 57.551 C 34.454 57.325 34.225 57.098 33.866 57.098 C 33.444 57.098 33.085 57.448 33.085 57.943 C 33.085 58.437 33.444 58.787 33.866 58.787 C 34.133 58.787 34.301 58.672 34.403 58.552 C 34.462 58.482 34.509 58.399 34.543 58.313 L 33.846 58.313 L 33.846 57.88 L 35.093 57.88 L 35.093 59.239 L 34.734 59.239 L 34.628 58.992 Z M 37.088 56.644 L 37.532 56.644 L 38.441 58.558 L 39.35 56.644 L 39.793 56.644 L 39.793 59.238 L 39.286 59.238 L 39.286 57.797 L 38.61 59.238 L 38.272 59.238 L 37.595 57.797 L 37.595 59.238 L 37.088 59.238 L 37.088 56.644 Z M 41.183 56.644 L 41.648 56.644 L 42.641 59.238 L 42.112 59.238 L 41.922 58.702 L 40.908 58.702 L 40.717 59.238 L 40.189 59.238 L 41.182 56.644 Z M 41.754 58.25 L 41.416 57.303 L 41.078 58.25 L 41.755 58.25 Z M 41.416 59.465 C 41.564 59.465 41.691 59.589 41.691 59.732 C 41.691 59.876 41.565 60 41.416 60 C 41.268 60 41.141 59.876 41.141 59.732 C 41.141 59.589 41.268 59.465 41.416 59.465 Z M 45.3 58.332 C 45.177 58.827 44.725 59.259 44.096 59.259 C 43.399 59.259 42.807 58.683 42.807 57.941 C 42.807 57.2 43.398 56.623 44.096 56.623 C 44.705 56.623 45.157 57.056 45.279 57.55 L 44.751 57.55 C 44.683 57.324 44.455 57.097 44.096 57.097 C 43.673 57.097 43.314 57.448 43.314 57.942 C 43.314 58.436 43.673 58.786 44.096 58.786 C 44.459 58.786 44.683 58.559 44.772 58.333 L 45.3 58.333 Z M 45.824 56.644 L 46.331 56.644 L 46.331 57.674 L 47.452 57.674 L 47.452 56.644 L 47.959 56.644 L 47.959 59.238 L 47.452 59.238 L 47.452 58.147 L 46.331 58.147 L 46.331 59.238 L 45.824 59.238 Z M 50.102 58.168 L 49.764 58.168 L 49.764 57.757 L 50.102 57.757 L 50.102 56.644 L 50.947 56.644 C 51.645 56.644 52.257 57.241 52.257 57.942 C 52.257 58.643 51.644 59.239 50.947 59.239 L 50.102 59.239 L 50.102 58.169 Z M 50.947 58.765 C 51.369 58.765 51.75 58.39 51.75 57.941 C 51.75 57.492 51.369 57.118 50.947 57.118 L 50.609 57.118 L 50.609 57.756 L 51.073 57.756 L 51.073 58.167 L 50.609 58.167 L 50.609 58.765 Z M 53.415 56.644 L 53.88 56.644 L 54.873 59.238 L 54.345 59.238 L 54.154 58.702 L 53.14 58.702 L 52.95 59.238 L 52.421 59.238 L 53.414 56.644 Z M 53.436 55.84 L 53.859 55.84 L 54.218 56.355 L 53.817 56.355 L 53.648 56.088 L 53.478 56.355 L 53.077 56.355 L 53.436 55.84 Z M 53.986 58.25 L 53.648 57.303 L 53.31 58.25 L 53.987 58.25 Z M 54.398 55.635 L 54.821 55.635 L 54.483 56.067 L 54.166 56.067 Z M 55.672 57.118 L 54.89 57.118 L 54.89 56.644 L 56.96 56.644 L 56.96 57.118 L 56.179 57.118 L 56.179 59.239 L 55.672 59.239 L 55.672 57.118 Z M 58.788 56.644 L 59.295 56.644 L 59.295 58.765 L 60.542 58.765 L 60.542 59.238 L 58.788 59.238 Z M 61.991 56.644 L 62.456 56.644 L 63.449 59.238 L 62.92 59.238 L 62.73 58.702 L 61.716 58.702 L 61.525 59.238 L 60.997 59.238 L 61.99 56.644 Z M 61.653 55.84 L 62.118 55.84 L 62.393 56.355 L 62.034 56.355 Z M 62.562 58.25 L 62.224 57.303 L 61.886 58.25 L 62.563 58.25 Z M 63.847 56.644 L 64.291 56.644 L 65.474 58.332 L 65.474 56.644 L 65.981 56.644 L 65.981 59.238 L 65.537 59.238 L 64.354 57.55 L 64.354 59.238 L 63.847 59.238 Z M 66.675 56.644 L 67.182 56.644 L 67.182 57.674 L 68.302 57.674 L 68.302 56.644 L 68.809 56.644 L 68.809 59.238 L 68.302 59.238 L 68.302 58.147 L 67.182 58.147 L 67.182 59.238 L 66.675 59.238 Z" fill="url(#idid_eCNYVq_R3g227037308)"></path></g><path d="M 77.875 57.883 L 73.576 58.703 L 72.477 57.883 L 73.576 57.062 Z M 15.706 57.883 L 20.004 58.702 L 21.103 57.883 L 20.004 57.063 Z M 57.908 9.408 C 56.684 8.004 55.293 7.044 54.607 6.615 C 53.393 7.261 52.278 8.078 51.296 9.042 C 50.169 10.148 49.412 11.257 48.918 12.11 C 50.197 12.981 51.408 14.293 52.436 15.447 C 53.976 17.174 54.918 18.805 55.458 19.936 C 55.861 18.847 56.474 17.399 57.639 15.958 C 58.629 14.738 59.607 13.873 60.33 13.317 C 59.884 12.27 59.126 10.807 57.907 9.408 Z M 57.442 14.336 C 56.649 15.194 55.997 16.181 55.351 17.174 C 54.652 16.13 53.72 15.12 52.787 14.22 C 52.481 13.923 52.423 13.468 52.656 13.116 C 53.276 12.182 54.09 11.343 55.052 10.718 C 56.113 11.352 56.974 12.253 57.572 13.257 C 57.776 13.603 57.713 14.044 57.442 14.336 Z M 65.415 17.035 C 64.241 15.607 62.998 14.615 62.13 14.086 C 61.282 14.611 60.069 15.598 58.927 17.005 C 57.84 18.349 57.3 19.665 56.958 20.612 C 58.14 21.383 59.224 22.3 60.188 23.344 C 61.264 24.505 62.175 25.811 62.9 27.225 C 63.158 26.314 63.621 25.076 64.479 23.778 C 65.518 22.201 66.706 21.189 67.513 20.605 C 67.147 19.678 66.513 18.369 65.415 17.034 Z M 65.022 21.297 C 64.212 22.273 63.474 23.352 62.766 24.461 C 61.901 23.182 61.009 22.119 59.948 21.027 C 59.669 20.741 59.605 20.332 59.787 19.985 C 60.348 18.907 61.365 17.834 62.384 17.167 C 63.6 17.975 64.537 19.032 65.145 20.235 C 65.319 20.579 65.274 20.999 65.022 21.298 Z M 50.351 32.716 C 49.585 32.003 48.75 31.371 47.864 30.841 L 46.791 30.197 L 45.717 30.841 C 44.831 31.371 43.995 32.003 43.229 32.716 C 41.929 33.927 41.045 35.258 40.694 35.828 C 41.21 36.248 41.716 36.691 42.204 37.141 C 42.977 37.857 43.637 38.617 44.34 39.408 C 44.364 39.436 44.404 39.446 44.439 39.433 C 44.474 39.42 44.498 39.387 44.498 39.349 C 44.498 39.337 44.495 39.326 44.491 39.314 C 44.129 38.447 43.561 37.591 43.099 36.962 C 42.892 36.681 42.661 36.317 42.685 35.952 C 42.693 35.811 42.718 35.647 42.907 35.344 C 43.168 34.927 43.467 34.533 43.802 34.174 C 45.29 32.58 46.789 32.098 46.789 32.098 C 46.789 32.098 48.288 32.58 49.776 34.174 C 50.112 34.533 50.412 34.926 50.671 35.344 C 50.86 35.647 50.885 35.811 50.894 35.952 C 50.918 36.317 50.686 36.681 50.479 36.962 C 50.017 37.59 49.45 38.447 49.087 39.314 C 49.062 39.373 49.107 39.438 49.171 39.438 C 49.197 39.438 49.221 39.428 49.238 39.408 C 49.941 38.617 50.601 37.856 51.374 37.141 C 51.862 36.691 52.369 36.248 52.884 35.828 C 52.533 35.257 51.649 33.926 50.349 32.716 Z M 51.2 16.556 C 49.613 14.773 47.956 13.663 46.79 13.006 C 45.624 13.663 43.968 14.773 42.38 16.556 C 40.969 18.139 40.051 19.704 39.523 20.857 C 40.141 21.304 41.073 22.005 41.793 22.664 C 42.474 23.285 43.173 23.988 43.774 24.731 C 45.396 26.738 46.335 28.373 46.791 29.261 C 47.247 28.374 48.184 26.738 49.806 24.731 C 50.407 23.988 51.106 23.285 51.787 22.664 C 52.508 22.005 53.438 21.304 54.058 20.857 C 53.53 19.704 52.612 18.138 51.201 16.556 Z M 50.426 22.04 C 49.032 23.399 47.864 24.839 46.79 26.535 C 45.717 24.839 44.548 23.399 43.154 22.04 C 42.651 21.569 42.572 20.862 42.895 20.27 C 43.765 18.674 45.141 17.055 46.791 16.043 C 48.441 17.055 49.817 18.674 50.687 20.27 C 51.008 20.861 50.93 21.568 50.426 22.04 Z M 42.283 9.042 C 41.078 7.859 39.874 7.094 38.972 6.615 C 38.288 7.044 36.896 8.004 35.672 9.408 C 34.454 10.807 33.694 12.27 33.249 13.317 C 33.973 13.873 34.95 14.738 35.94 15.958 C 37.106 17.398 37.72 18.847 38.122 19.936 C 38.661 18.806 39.604 17.174 41.143 15.447 C 42.172 14.293 43.383 12.982 44.662 12.11 C 44.168 11.257 43.411 10.148 42.283 9.042 Z M 40.792 14.22 C 39.86 15.12 38.927 16.131 38.228 17.174 C 37.583 16.18 36.931 15.193 36.137 14.336 C 35.866 14.044 35.803 13.603 36.008 13.257 C 36.606 12.253 37.467 11.352 38.528 10.718 C 39.49 11.343 40.303 12.182 40.924 13.116 C 41.157 13.468 41.099 13.923 40.792 14.22 Z M 49.946 2.562 C 48.85 1.348 47.701 0.546 46.79 0 C 45.879 0.546 44.73 1.348 43.634 2.562 C 42.46 3.863 41.651 5.196 41.21 6.102 C 42.265 6.853 43.242 7.708 44.125 8.656 C 45.342 9.962 46.198 11.247 46.79 12.292 C 47.382 11.247 48.237 9.961 49.454 8.656 C 50.338 7.708 51.315 6.853 52.37 6.102 C 51.929 5.196 51.12 3.864 49.947 2.562 Z M 48.786 7.941 C 48.021 8.686 47.379 9.478 46.79 10.409 C 46.2 9.478 45.559 8.686 44.794 7.941 C 44.517 7.681 44.474 7.294 44.65 6.97 C 45.129 6.093 45.883 5.203 46.789 4.647 C 47.696 5.203 48.45 6.093 48.928 6.97 C 49.105 7.294 49.061 7.681 48.786 7.941 Z M 34.653 17.006 C 33.512 15.598 32.297 14.612 31.45 14.087 C 30.581 14.616 29.338 15.607 28.164 17.036 C 27.067 18.37 26.432 19.679 26.067 20.606 C 26.873 21.19 28.061 22.202 29.1 23.78 C 29.958 25.077 30.421 26.316 30.68 27.226 C 31.405 25.812 32.316 24.507 33.392 23.345 C 34.352 22.305 35.436 21.387 36.621 20.613 C 36.28 19.666 35.74 18.35 34.653 17.007 Z M 33.633 21.026 C 32.571 22.119 31.679 23.182 30.813 24.46 C 30.105 23.352 29.367 22.273 28.557 21.296 C 28.306 20.997 28.261 20.578 28.435 20.234 C 29.042 19.031 29.979 17.974 31.196 17.166 C 32.216 17.832 33.232 18.906 33.792 19.984 C 33.975 20.331 33.911 20.74 33.633 21.026 Z M 44.829 29.355 C 43.841 29.947 42.908 30.651 42.053 31.447 C 40.435 32.955 39.407 34.601 39.103 35.119 C 39.077 35.163 39.009 35.144 39.01 35.093 C 39.029 34.225 39.186 33.464 39.871 32.117 C 40.268 31.338 40.867 30.659 41.515 29.991 C 41.905 29.589 41.981 28.997 41.705 28.518 C 40.2 25.908 37.938 24.772 37.938 24.772 C 37.938 24.772 36.72 25.582 35.73 26.677 C 35.356 27.089 35.047 27.5 34.801 27.856 C 34.477 28.324 34.42 28.752 34.7 29.256 C 34.766 29.374 35.58 30.563 35.929 31.301 C 36.121 31.706 36.273 32.088 36.378 32.47 C 36.392 32.523 36.325 32.556 36.29 32.514 C 35.433 31.422 34.56 30.448 33.691 29.611 C 33.185 29.124 32.661 28.655 32.12 28.206 C 32.785 26.863 33.64 25.623 34.658 24.523 C 35.62 23.483 36.716 22.58 37.916 21.839 C 37.916 21.839 39.566 22.974 40.629 23.945 C 41.255 24.517 41.886 25.176 42.453 25.849 C 43.354 26.922 44.153 28.101 44.829 29.355 Z M 61.46 28.205 C 60.912 28.659 60.385 29.132 59.889 29.61 C 59.019 30.446 58.146 31.421 57.288 32.512 C 57.254 32.554 57.186 32.521 57.201 32.469 C 57.306 32.087 57.458 31.705 57.649 31.3 C 57.999 30.561 58.812 29.372 58.878 29.255 C 59.158 28.75 59.1 28.323 58.777 27.855 C 58.531 27.499 58.222 27.087 57.848 26.675 C 56.857 25.58 55.64 24.772 55.64 24.77 C 55.64 24.771 53.378 25.906 51.873 28.516 C 51.596 28.996 51.673 29.587 52.062 29.99 C 52.711 30.657 53.31 31.336 53.707 32.116 C 54.393 33.463 54.549 34.224 54.567 35.092 C 54.568 35.142 54.501 35.162 54.475 35.118 C 54.171 34.6 53.143 32.954 51.524 31.446 C 50.67 30.65 49.736 29.945 48.748 29.353 C 49.424 28.098 50.223 26.92 51.125 25.847 C 51.692 25.174 52.322 24.515 52.948 23.943 C 54.011 22.972 55.662 21.837 55.662 21.837 C 56.865 22.58 57.96 23.483 58.92 24.521 C 59.937 25.62 60.79 26.859 61.458 28.204 Z" fill="rgb(192,157,115)"></path><g><defs><linearGradient id="idid_sW_DcshQOg227037210" x1="0" x2="1" y1="0.4975124378109453" y2="0.5024875621890547"><stop offset="0" stop-color="rgb(25,63,60)" stop-opacity="1"></stop><stop offset="1" stop-color="rgb(25,84,80)" stop-opacity="1"></stop></linearGradient></defs><path d="M 0.299 49.922 L 0.299 41.804 C 0.299 40.589 0 39.726 0 39.726 L 5.38 39.726 C 8.58 39.726 11.164 41.364 11.164 45.872 C 11.164 50.381 8.58 52.018 5.38 52.018 L 0 52.018 C 0 52.018 0.299 51.155 0.299 49.923 Z M 8.773 45.872 C 8.773 41.84 6.856 40.361 4.5 40.361 L 2.707 40.361 L 2.707 51.367 L 4.5 51.385 C 6.856 51.385 8.773 49.906 8.773 45.873 Z" fill="url(#idid_sW_DcshQOg227037210)"></path></g><g><defs><linearGradient id="idid_vyAav4Ft3g227037210" x1="0" x2="1" y1="0.4975124378109453" y2="0.5024875621890547"><stop offset="0" stop-color="rgb(25,63,60)" stop-opacity="1"></stop><stop offset="1" stop-color="rgb(25,84,80)" stop-opacity="1"></stop></linearGradient></defs><path d="M 26.136 50.491 L 25.701 49.453 L 22.013 49.453 C 21.398 51.389 22.026 52.018 22.026 52.018 L 20.375 52.018 L 24.165 43.065 L 24.882 43.065 L 28.673 52.018 L 26.56 52.018 C 26.56 52.018 26.521 51.389 26.137 50.491 Z M 25.496 48.991 L 23.831 45.053 L 22.166 48.991 L 25.495 48.991 Z" fill="url(#idid_vyAav4Ft3g227037210)"></path></g><g><defs><linearGradient id="idid_sFGVrCwRFg227037210" x1="0" x2="1" y1="0.4975124378109453" y2="0.5024875621890547"><stop offset="0" stop-color="rgb(25,63,60)" stop-opacity="1"></stop><stop offset="1" stop-color="rgb(25,84,80)" stop-opacity="1"></stop></linearGradient></defs><path d="M 28.647 47.542 C 28.647 44.194 30.529 42.975 32.86 42.975 C 33.948 42.975 35.446 43.245 36.202 43.86 L 36.202 45.784 C 36.202 45.784 35.113 43.45 32.86 43.45 C 31.503 43.45 30.388 44.541 30.388 47.542 C 30.388 50.261 32.335 52.031 34.46 51.325 L 34.46 47.58 C 33.192 47.657 32.347 48.016 32.347 48.016 L 32.347 47.105 L 36.432 47.105 C 36.432 47.105 36.202 47.734 36.202 48.632 L 36.202 50.684 C 35.242 51.941 33.718 52.108 32.86 52.108 C 30.529 52.108 28.647 50.889 28.647 47.542 Z" fill="url(#idid_sFGVrCwRFg227037210)"></path></g><g><defs><linearGradient id="idid_jLc9qo1PKg227037210" x1="0" x2="1" y1="0.4975124378109453" y2="0.5024875621890547"><stop offset="0" stop-color="rgb(25,63,60)" stop-opacity="1"></stop><stop offset="1" stop-color="rgb(25,84,80)" stop-opacity="1"></stop></linearGradient></defs><path d="M 37.29 47.542 C 37.29 44.194 39.172 42.975 41.503 42.975 C 43.834 42.975 45.716 44.194 45.716 47.542 C 45.716 50.89 43.834 52.108 41.503 52.108 C 39.172 52.108 37.29 50.889 37.29 47.542 Z M 43.974 47.542 C 43.974 44.541 42.873 43.45 41.503 43.45 C 40.133 43.45 39.031 44.541 39.031 47.542 C 39.031 50.543 40.146 51.634 41.503 51.634 C 42.86 51.634 43.974 50.543 43.974 47.542 Z" fill="url(#idid_jLc9qo1PKg227037210)"></path></g><g><defs><linearGradient id="idid_SPpqFOPUlg227037210" x1="0" x2="1" y1="0.4975124378109453" y2="0.5024875621890547"><stop offset="0" stop-color="rgb(25,63,60)" stop-opacity="1"></stop><stop offset="1" stop-color="rgb(25,84,80)" stop-opacity="1"></stop></linearGradient></defs><path d="M 46.65 43.066 L 49.071 43.066 L 54.064 49.543 L 54.064 46.298 C 54.064 44.387 53.027 43.066 53.027 43.066 L 54.525 43.066 L 54.525 52.018 L 53.757 52.018 L 47.341 43.668 L 47.341 47.182 C 47.341 50.03 48.584 52.018 48.584 52.018 L 46.868 52.018 L 46.868 44.579 C 46.868 43.694 46.65 43.066 46.65 43.066 Z" fill="url(#idid_SPpqFOPUlg227037210)"></path></g><g><defs><linearGradient id="idid_BwDkKX73Gg227037210" x1="0" x2="1" y1="0.4975124378109453" y2="0.5024875621890547"><stop offset="0" stop-color="rgb(25,63,60)" stop-opacity="1"></stop><stop offset="1" stop-color="rgb(25,84,80)" stop-opacity="1"></stop></linearGradient></defs><path d="M 59.26 49.922 L 59.26 41.804 C 59.26 40.572 58.961 39.726 58.961 39.726 L 67.681 39.726 L 67.681 42.016 C 67.681 42.016 66.82 40.361 63.216 40.361 L 61.668 40.361 L 61.668 45.045 L 65.413 45.045 L 65.413 46.295 C 65.413 46.295 64.006 45.696 61.985 45.696 L 61.668 45.696 L 61.668 51.366 L 63.743 51.366 C 67.347 51.366 68.208 49.729 68.208 49.729 L 68.208 52.018 L 58.961 52.018 C 58.961 52.018 59.259 51.155 59.259 49.923 Z" fill="url(#idid_BwDkKX73Gg227037210)"></path></g><g><defs><linearGradient id="idid_xNek6wwaUg227037210" x1="0" x2="1" y1="0.4975124378109453" y2="0.5024875621890547"><stop offset="0" stop-color="rgb(25,63,60)" stop-opacity="1"></stop><stop offset="1" stop-color="rgb(25,84,80)" stop-opacity="1"></stop></linearGradient></defs><path d="M 69.367 50.491 L 69.367 44.579 C 69.367 43.694 69.149 43.066 69.149 43.066 L 73.067 43.066 C 75.397 43.066 77.28 44.259 77.28 47.542 C 77.28 50.825 75.398 52.018 73.067 52.018 L 69.149 52.018 C 69.149 52.018 69.367 51.39 69.367 50.492 Z M 75.538 47.542 C 75.538 44.605 74.143 43.528 72.427 43.528 L 71.121 43.528 L 71.121 51.544 L 72.427 51.557 C 74.143 51.557 75.538 50.479 75.538 47.543 Z" fill="url(#idid_xNek6wwaUg227037210)"></path></g><g><defs><linearGradient id="idid_lZs9Ybiycg227037210" x1="0" x2="1" y1="0.4975124378109453" y2="0.5024875621890547"><stop offset="0" stop-color="rgb(25,63,60)" stop-opacity="1"></stop><stop offset="1" stop-color="rgb(25,84,80)" stop-opacity="1"></stop></linearGradient></defs><path d="M 78.432 50.491 L 78.432 44.579 C 78.432 43.681 78.215 43.066 78.215 43.066 L 84.566 43.066 L 84.566 44.733 C 84.566 44.733 83.938 43.528 81.313 43.528 L 80.187 43.528 L 80.187 46.939 L 82.914 46.939 L 82.914 47.849 C 82.914 47.849 81.889 47.414 80.417 47.414 L 80.187 47.414 L 80.187 51.544 L 81.697 51.544 C 84.322 51.544 84.949 50.351 84.949 50.351 L 84.949 52.018 L 78.214 52.018 C 78.214 52.018 78.432 51.39 78.432 50.492 Z" fill="url(#idid_lZs9Ybiycg227037210)"></path></g><g><defs><linearGradient id="idid_OfXkCq6aJg227037210" x1="0" x2="1" y1="0.4975124378109453" y2="0.5024875621890547"><stop offset="0" stop-color="rgb(25,63,60)" stop-opacity="1"></stop><stop offset="1" stop-color="rgb(25,84,80)" stop-opacity="1"></stop></linearGradient></defs><path d="M 85.705 43.066 L 88.126 43.066 L 93.12 49.543 L 93.12 46.298 C 93.12 44.387 92.082 43.066 92.082 43.066 L 93.58 43.066 L 93.58 52.018 L 92.812 52.018 L 86.396 43.668 L 86.396 47.182 C 86.396 50.03 87.639 52.018 87.639 52.018 L 85.923 52.018 L 85.923 44.579 C 85.923 43.694 85.705 43.066 85.705 43.066 Z" fill="url(#idid_OfXkCq6aJg227037210)"></path></g><g><defs><linearGradient id="idid_f_L8zYt85g227037210" x1="0" x2="1" y1="0.4975124378109453" y2="0.5024875621890547"><stop offset="0" stop-color="rgb(25,63,60)" stop-opacity="1"></stop><stop offset="1" stop-color="rgb(25,84,80)" stop-opacity="1"></stop></linearGradient></defs><path d="M 20.047 51.542 C 18.873 51.5 18.251 48.713 16.053 47.567 L 16.373 47.567 C 17.756 47.567 18.882 46.977 18.882 45.323 C 18.882 43.668 17.756 43.066 16.373 43.066 L 12.071 43.066 C 12.071 43.066 12.289 43.694 12.289 44.579 L 12.289 50.491 C 12.289 51.389 12.071 52.018 12.071 52.018 L 14.261 52.018 C 14.261 52.018 14.043 51.389 14.043 50.491 L 14.043 47.567 C 15.717 47.567 15.436 51.868 19.843 52.014 L 20.047 51.542 Z M 14.042 47.105 L 14.042 43.527 L 15.861 43.527 C 16.565 43.527 17.141 44.002 17.141 45.323 C 17.141 46.644 16.565 47.105 15.861 47.105 Z" fill="url(#idid_f_L8zYt85g227037210)"></path></g></g></svg>